<?xml version="1.0" standalone="no"?>
<!DOCTYPE svg PUBLIC "-//W3C//DTD SVG 20010904//EN"
 "http://www.w3.org/TR/2001/REC-SVG-20010904/DTD/svg10.dtd">
<svg version="1.0" xmlns="http://www.w3.org/2000/svg"
 width="5370.000000pt" height="2038.000000pt" viewBox="0 0 5370.000000 2038.000000"
 preserveAspectRatio="xMidYMid meet">

<g transform="translate(0.000000,2038.000000) scale(0.100000,-0.100000)"
fill="#000000" stroke="none">
<path d="M1660 17865 l0 -835 772 0 772 0 165 81 c163 80 167 82 273 186 59
59 105 110 102 114 -2 4 1 11 7 15 8 4 9 3 5 -4 -4 -7 -2 -12 4 -12 18 0 5 25
-14 28 -20 4 -131 -47 -193 -90 -24 -16 -43 -26 -43 -23 0 3 -10 0 -22 -6 -13
-7 -61 -16 -108 -20 -129 -10 -162 -23 -249 -94 -76 -60 -78 -62 -58 -27 12
20 22 41 23 47 0 5 2 17 2 26 1 9 13 22 27 29 13 7 23 17 22 23 -3 17 85 45
207 66 97 16 122 24 169 55 53 35 87 73 87 96 0 7 -21 -7 -47 -31 -66 -58
-137 -88 -220 -95 -63 -5 -67 -4 -49 10 19 16 19 16 -5 16 l-24 0 25 20 c14
11 51 33 83 50 31 17 57 35 57 40 0 5 15 14 34 21 19 7 34 15 33 18 -3 16 16
51 31 55 9 3 17 16 18 28 0 13 4 35 8 51 l8 27 -48 -25 c-27 -14 -70 -28 -96
-31 -42 -6 -52 -3 -95 25 -61 40 -129 61 -225 68 -83 6 -93 17 -26 28 53 9
120 33 94 34 -26 1 -135 -28 -168 -45 -15 -8 -28 -11 -28 -6 0 11 49 57 77 71
48 24 304 1 341 -32 22 -19 72 -31 72 -17 0 5 11 10 25 10 31 0 32 16 3 49
l-23 26 30 -26 c80 -70 130 -60 66 13 -47 55 -63 97 -92 246 -25 129 -27 146
-14 181 17 50 90 165 118 189 12 9 31 35 42 56 26 51 87 102 155 132 l55 23
-1082 1 -1083 0 0 -835z m1390 45 c0 -5 -8 -10 -17 -10 -30 0 -94 -53 -129
-107 -19 -29 -41 -53 -50 -53 -24 0 -114 -70 -186 -144 l-60 -61 46 75 c26 41
64 88 84 105 21 16 62 54 91 83 73 73 148 122 188 122 18 0 33 -4 33 -10z
m-70 -165 c-10 -12 -10 -15 0 -15 7 0 36 -11 64 -24 28 -13 83 -34 121 -46 82
-26 167 -69 159 -81 -7 -12 -151 -56 -209 -64 -28 -4 -77 -8 -110 -9 -49 -1
-76 -10 -144 -45 -91 -46 -92 -40 -12 39 50 49 101 107 101 114 0 3 -10 6 -22
8 -21 3 -20 5 12 26 l35 22 -32 0 c-18 0 -33 5 -33 12 0 19 50 78 67 78 13 0
13 -3 3 -15z m-120 -19 c0 -3 -4 -8 -10 -11 -5 -3 -10 -1 -10 4 0 6 5 11 10
11 6 0 10 -2 10 -4z m280 -255 c0 -9 -60 -24 -68 -16 -5 5 36 23 56 24 6 1 12
-3 12 -8z m-135 -137 c12 -5 5 -14 -33 -39 -27 -19 -70 -43 -96 -56 -26 -12
-50 -28 -53 -36 -3 -7 -11 -13 -18 -13 -7 0 -18 -7 -25 -15 -24 -29 -29 -15
-7 20 12 20 31 50 42 68 28 44 145 88 190 71z m120 -44 c-3 -5 -12 -10 -18
-10 -7 0 -6 4 3 10 19 12 23 12 15 0z m-140 -60 c-10 -11 -20 -18 -23 -15 -3
3 3 14 13 25 10 11 20 18 23 15 3 -3 -3 -14 -13 -25z"/>
<path d="M4532 18671 c61 -39 82 -70 69 -104 -13 -34 -46 -50 -85 -43 l-31 5
30 -16 c38 -20 111 -85 108 -95 -5 -15 15 -8 21 7 7 19 36 8 36 -13 0 -9 -9
-26 -21 -38 l-20 -22 27 -88 c19 -61 29 -114 30 -169 1 -44 3 -85 3 -90 1 -6
26 -48 56 -94 30 -46 55 -92 55 -103 0 -14 -12 -24 -40 -35 -42 -17 -48 -30
-29 -65 9 -17 7 -24 -9 -41 -19 -18 -19 -22 -6 -43 14 -20 13 -24 -6 -42 -17
-16 -20 -27 -15 -55 9 -47 -15 -92 -57 -106 -25 -8 -52 -7 -111 4 -44 8 -99
15 -125 15 -41 0 -50 -4 -92 -48 -30 -31 -51 -65 -63 -101 -18 -56 -22 -127
-8 -149 4 -7 48 -28 98 -46 49 -19 104 -41 121 -50 28 -14 121 -16 922 -16
l890 0 0 835 0 835 -897 0 -897 0 46 -29z"/>
<path d="M3198 17833 c6 -2 18 -2 25 0 6 3 1 5 -13 5 -14 0 -19 -2 -12 -5z"/>
<path d="M3110 17235 c-8 -9 -8 -15 -2 -15 12 0 26 19 19 26 -2 2 -10 -2 -17
-11z"/>
<path d="M30940 11130 l0 -5690 80 0 80 0 0 5690 0 5690 -80 0 -80 0 0 -5690z"/>
<path d="M8330 16380 l123 -130 129 0 c104 0 127 3 121 13 -4 7 -52 66 -107
130 l-98 117 -145 0 -145 0 122 -130z"/>
<path d="M6246 16170 c-124 -40 -229 -146 -256 -260 -19 -79 -9 -194 23 -256
47 -92 105 -138 292 -230 189 -92 234 -127 241 -190 10 -82 -54 -144 -148
-144 -75 0 -151 34 -221 100 l-62 57 -100 -93 -100 -94 61 -58 c117 -111 238
-156 419 -155 123 0 191 18 269 72 110 76 159 173 160 316 0 78 -4 98 -27 150
-50 109 -124 168 -311 252 -182 81 -228 119 -228 188 0 78 65 131 151 123 67
-7 119 -35 183 -100 l58 -58 101 92 102 92 -66 61 c-71 66 -161 117 -247 140
-78 21 -221 18 -294 -5z"/>
<path d="M1710 15520 l0 -640 135 0 135 0 0 430 c0 237 3 430 8 430 4 0 64
-96 133 -213 l126 -212 99 0 99 0 125 212 c69 117 128 213 133 213 4 0 7 -193
7 -430 l0 -430 135 0 135 0 0 640 0 640 -167 -2 -167 -3 -150 -258 c-94 -162
-153 -253 -158 -245 -4 7 -71 123 -150 258 l-143 245 -168 3 -167 2 0 -640z"/>
<path d="M3320 15520 l0 -640 135 0 135 0 0 640 0 640 -135 0 -135 0 0 -640z"/>
<path d="M3930 15520 l0 -640 135 0 135 0 2 438 3 439 270 -438 270 -438 173
-1 172 0 0 640 0 640 -135 0 -135 0 0 -442 c-1 -397 -2 -441 -16 -423 -8 11
-132 210 -276 442 l-261 423 -168 0 -169 0 0 -640z"/>
<path d="M5430 15520 l0 -640 135 0 135 0 0 640 0 640 -135 0 -135 0 0 -640z"/>
<path d="M6940 16035 l0 -125 193 -2 192 -3 3 -512 2 -513 135 0 135 0 2 513
3 512 193 3 192 2 0 125 0 125 -525 0 -525 0 0 -125z"/>
<path d="M8200 15520 l0 -640 375 0 375 0 0 115 0 115 -240 0 -241 0 3 153 3
152 203 3 202 2 0 115 0 115 -205 0 -206 0 3 138 3 137 238 3 237 2 0 115 0
115 -375 0 -375 0 0 -640z"/>
<path d="M9230 15520 l0 -640 140 0 140 0 0 255 0 255 58 0 57 -1 167 -254
167 -255 162 0 161 0 -18 28 c-9 15 -98 141 -197 280 -98 140 -177 255 -175
256 2 1 20 13 40 25 95 57 149 163 149 295 0 96 -5 124 -38 189 -49 99 -154
168 -292 193 -48 8 -157 13 -298 14 l-223 0 0 -640z m498 386 c53 -28 74 -70
70 -143 -6 -105 -60 -143 -203 -143 l-85 0 0 156 0 156 93 -4 c61 -3 103 -10
125 -22z"/>
<path d="M10420 15520 l0 -640 375 0 375 0 0 115 0 115 -235 0 -235 0 0 155 0
155 200 0 200 0 0 115 0 115 -200 0 -200 0 0 140 0 140 235 0 235 0 0 115 0
115 -375 0 -375 0 0 -640z"/>
<path d="M6309 14557 c-52 -61 -100 -120 -108 -130 -13 -16 -6 -17 116 -17
l129 0 123 130 123 130 -145 0 -145 0 -93 -113z"/>
<path d="M7355 14336 c-185 -43 -347 -167 -434 -336 -57 -110 -75 -184 -75
-320 0 -134 16 -207 72 -320 51 -105 177 -231 282 -282 279 -136 610 -83 810
128 28 30 50 59 48 64 -4 10 -195 160 -205 160 -3 0 -32 -24 -63 -54 -31 -29
-74 -62 -95 -73 -171 -86 -389 -31 -496 123 -115 167 -97 402 42 549 151 160
416 157 563 -6 l45 -50 106 82 c58 45 105 86 105 92 0 17 -126 132 -182 165
-106 63 -188 85 -333 88 -86 3 -150 -1 -190 -10z"/>
<path d="M8642 14330 c-179 -47 -340 -177 -419 -340 -194 -398 9 -857 427
-966 79 -21 249 -23 335 -5 33 7 102 33 154 58 154 74 268 204 328 375 35 98
43 270 18 382 -54 245 -238 434 -483 497 -100 25 -260 25 -360 -1z m313 -257
c176 -62 276 -224 263 -429 -8 -118 -37 -185 -117 -265 -88 -88 -150 -113
-276 -113 -114 1 -184 26 -258 94 -211 193 -170 565 77 692 89 46 216 55 311
21z"/>
<path d="M11624 14330 c-241 -63 -417 -243 -480 -490 -25 -99 -16 -291 19
-388 58 -166 173 -300 318 -371 117 -57 192 -75 324 -75 122 0 203 17 300 63
334 157 472 575 302 921 -80 165 -241 294 -423 340 -102 26 -261 26 -360 0z
m301 -255 c287 -81 370 -503 139 -714 -76 -70 -144 -95 -259 -95 -126 0 -189
26 -276 113 -93 93 -113 148 -114 301 0 109 2 119 32 182 41 87 101 151 178
189 101 50 185 56 300 24z"/>
<path d="M1710 13680 l0 -642 328 4 327 4 80 28 c117 40 181 80 265 165 123
124 180 265 180 440 -1 292 -181 526 -472 612 -66 20 -102 22 -390 26 l-318 5
0 -642z m653 361 c204 -79 298 -303 217 -516 -32 -82 -122 -173 -205 -205 -53
-21 -80 -25 -227 -28 l-168 -4 0 384 c0 212 3 388 8 392 4 5 77 6 162 4 129
-4 165 -9 213 -27z"/>
<path d="M3120 13680 l0 -640 380 0 380 0 0 115 0 115 -240 0 -240 0 0 155 0
155 200 0 200 0 0 115 0 115 -200 0 -200 0 0 140 0 140 240 0 240 0 0 115 0
115 -380 0 -380 0 0 -640z"/>
<path d="M4630 13680 l0 -640 375 0 375 0 0 125 0 125 -240 0 -240 0 0 515 0
515 -135 0 -135 0 0 -640z"/>
<path d="M5410 14278 c0 -24 5 -145 12 -270 l12 -228 107 0 107 0 6 68 c3 37
8 121 11 187 3 66 8 157 11 203 l6 82 -136 0 -136 0 0 -42z"/>
<path d="M5950 13680 l0 -640 375 0 375 0 0 115 0 115 -240 0 -240 0 0 155 0
155 205 0 205 0 0 115 0 115 -205 0 -205 0 0 140 0 140 240 0 240 0 0 115 0
115 -375 0 -375 0 0 -640z"/>
<path d="M9730 13680 l0 -640 140 0 140 0 2 436 3 435 269 -435 269 -436 174
0 173 0 0 640 0 640 -140 0 -140 0 0 -442 0 -442 -272 442 -273 442 -172 0
-173 0 0 -640z"/>
<path d="M12710 13680 l0 -640 135 0 135 0 0 430 c0 237 3 430 8 430 4 0 63
-96 132 -213 l126 -212 99 0 99 0 126 212 c69 117 128 213 133 213 4 0 7 -193
7 -430 l0 -430 135 0 135 0 0 640 0 640 -167 -2 -168 -3 -143 -245 c-78 -135
-146 -251 -150 -257 -5 -8 -63 83 -157 245 l-150 257 -168 3 -167 2 0 -640z"/>
<path d="M14320 13680 l0 -640 135 0 135 0 0 640 0 640 -135 0 -135 0 0 -640z"/>
<path d="M14930 13680 l0 -640 375 0 375 0 0 115 0 115 -240 0 -240 0 0 155 0
155 205 0 205 0 0 115 0 115 -205 0 -205 0 0 140 0 140 240 0 240 0 0 115 0
115 -375 0 -375 0 0 -640z"/>
<path d="M15995 13298 c-4 -10 -132 -434 -161 -531 -5 -16 3 -17 112 -15 l117
3 103 265 c57 146 103 271 104 278 0 9 -34 12 -135 12 -100 0 -137 -3 -140
-12z"/>
<path d="M35365 12910 c-28 -11 -62 -49 -75 -84 -36 -96 77 -203 172 -163 104
45 118 180 25 237 -33 21 -87 25 -122 10z"/>
<path d="M39535 12910 c-28 -11 -62 -49 -75 -84 -36 -96 77 -203 172 -163 104
45 118 180 25 237 -33 21 -87 25 -122 10z"/>
<path d="M44310 12758 c-52 -83 -97 -155 -98 -160 -2 -5 39 -7 93 -6 l97 3
114 158 114 157 -113 0 -112 -1 -95 -151z"/>
<path d="M46580 12758 c-52 -83 -97 -155 -98 -160 -2 -5 39 -7 93 -6 l97 3
114 158 114 157 -113 0 -112 -1 -95 -151z"/>
<path d="M49030 12200 l0 -710 100 0 100 0 0 710 0 710 -100 0 -100 0 0 -710z"/>
<path d="M33850 12150 l0 -660 303 0 c227 0 319 4 372 15 249 53 436 217 512
450 22 67 26 98 26 195 0 97 -4 128 -26 195 -76 233 -263 397 -512 450 -53 11
-145 15 -372 15 l-303 0 0 -660z m621 450 c132 -25 259 -120 317 -240 112
-231 22 -510 -200 -619 -87 -43 -144 -51 -344 -51 l-174 0 0 460 0 460 174 0
c95 0 198 -5 227 -10z"/>
<path d="M38730 12560 l0 -120 -90 0 -90 0 0 -90 0 -90 89 0 89 0 4 -277 c5
-310 10 -336 74 -411 19 -23 60 -53 92 -69 53 -26 65 -28 177 -28 71 0 131 5
148 13 26 11 27 13 27 97 l0 86 -37 -8 c-21 -4 -69 -8 -108 -8 -89 1 -130 21
-156 78 -17 38 -19 68 -19 285 l0 242 160 0 160 0 0 90 0 90 -160 0 -160 0 0
120 0 120 -100 0 -100 0 0 -120z"/>
<path d="M4368 12491 c-112 -37 -185 -98 -239 -201 -21 -40 -24 -58 -24 -155
0 -97 3 -115 24 -155 58 -109 129 -164 324 -251 192 -85 248 -155 200 -249
-27 -52 -74 -72 -153 -67 -81 5 -135 32 -210 102 l-55 53 -100 -94 -100 -95
62 -58 c119 -111 237 -155 418 -154 90 0 121 4 167 22 175 68 263 192 262 372
-1 71 -5 95 -28 145 -50 108 -126 169 -328 259 -139 63 -185 94 -204 141 -38
91 50 179 161 161 57 -9 107 -39 166 -99 l57 -58 96 86 c53 48 96 92 96 99 0
34 -162 153 -255 187 -86 30 -258 35 -337 9z"/>
<path d="M11970 12495 c-173 -39 -345 -171 -427 -330 -65 -126 -78 -180 -77
-330 0 -113 4 -140 27 -210 73 -219 245 -382 467 -441 88 -24 271 -23 360 0
104 28 216 92 293 168 38 37 67 72 65 77 -1 5 -49 45 -106 88 l-102 79 -63
-62 c-155 -151 -390 -151 -543 1 -92 92 -139 240 -117 370 32 186 158 317 331
344 126 20 263 -28 346 -120 l45 -50 105 82 c58 45 106 86 106 90 0 20 -122
130 -186 167 -111 66 -179 84 -329 88 -90 2 -150 -1 -195 -11z"/>
<path d="M14126 12490 c-124 -40 -229 -146 -256 -260 -18 -75 -9 -185 22 -251
43 -94 102 -141 293 -234 217 -106 257 -144 241 -228 -26 -139 -221 -145 -365
-11 -32 30 -63 54 -67 54 -5 -1 -52 -41 -104 -91 l-95 -89 63 -59 c119 -112
236 -155 417 -154 123 0 191 18 269 72 110 76 159 173 160 316 0 78 -4 98 -29
153 -38 84 -119 159 -228 211 -45 21 -117 55 -160 75 -102 49 -147 93 -147
147 0 85 60 135 149 127 67 -7 119 -35 183 -100 l58 -58 101 92 102 92 -66 61
c-71 66 -161 117 -247 140 -78 21 -221 18 -294 -5z"/>
<path d="M1710 11840 l0 -642 328 4 327 4 80 28 c117 40 181 80 265 165 123
124 180 265 180 440 -1 292 -181 526 -472 612 -66 20 -102 22 -390 26 l-318 5
0 -642z m653 361 c204 -79 298 -303 217 -516 -32 -82 -122 -173 -205 -205 -53
-21 -80 -25 -227 -28 l-168 -4 0 384 c0 212 3 388 8 392 4 5 77 6 162 4 129
-4 165 -9 213 -27z"/>
<path d="M3120 11840 l0 -640 380 0 380 0 0 115 0 115 -240 0 -240 0 0 155 0
155 200 0 200 0 0 115 0 115 -200 0 -200 0 0 140 0 140 240 0 240 0 0 115 0
115 -380 0 -380 0 0 -640z"/>
<path d="M5670 11840 l0 -640 135 0 135 0 2 268 3 267 203 3 202 2 0 115 0
115 -205 0 -206 0 3 138 3 137 238 3 237 2 0 115 0 115 -375 0 -375 0 0 -640z"/>
<path d="M6630 11840 l0 -640 135 0 135 0 0 640 0 640 -135 0 -135 0 0 -640z"/>
<path d="M7240 11840 l0 -640 135 0 135 0 0 435 c0 239 3 435 8 435 4 -1 127
-195 273 -433 l267 -432 171 -3 171 -2 0 640 0 640 -135 0 -135 0 -2 -440 -3
-440 -271 437 -271 438 -171 3 -172 2 0 -640z"/>
<path d="M9052 12453 c-26 -63 -472 -1246 -472 -1250 0 -2 66 -2 146 -1 l147
3 59 163 60 162 243 0 243 0 16 -42 c9 -24 36 -97 60 -163 l44 -120 147 -3
147 -3 -8 23 c-4 13 -112 300 -240 638 l-233 615 -174 3 -174 2 -11 -27z m263
-473 c41 -113 75 -208 75 -212 0 -4 -70 -8 -155 -8 -85 0 -155 2 -155 5 0 11
153 425 156 422 2 -2 38 -95 79 -207z"/>
<path d="M10070 11840 l0 -640 135 0 135 0 0 437 c0 302 3 434 10 427 6 -6
129 -202 273 -435 l262 -424 173 -3 172 -2 0 640 0 640 -135 0 -135 0 -2 -442
-3 -442 -273 442 -274 442 -169 0 -169 0 0 -640z"/>
<path d="M12880 11840 l0 -640 380 0 380 0 0 115 0 115 -240 0 -240 0 0 155 0
155 200 0 200 0 0 115 0 115 -200 0 -200 0 0 140 0 140 240 0 240 0 0 115 0
115 -380 0 -380 0 0 -640z"/>
<path d="M36811 12464 c-216 -58 -351 -247 -351 -494 0 -306 216 -520 525
-520 144 0 264 44 360 132 31 28 54 54 53 58 -2 4 -34 33 -71 63 l-68 56 -37
-37 c-58 -58 -123 -84 -218 -90 -176 -10 -292 74 -330 237 -8 31 -14 59 -14
64 0 4 158 7 350 7 l350 0 11 28 c6 16 9 66 6 120 -4 81 -9 102 -41 167 -73
148 -210 226 -396 224 -41 0 -99 -7 -129 -15z m246 -176 c67 -31 123 -110 123
-173 l0 -25 -256 0 -255 0 7 23 c12 39 45 101 68 125 67 74 212 97 313 50z"/>
<path d="M37937 12464 c-232 -56 -381 -251 -381 -499 0 -298 217 -514 516
-515 140 0 265 47 356 136 31 30 54 55 51 57 -2 3 -37 30 -78 61 l-73 56 -45
-41 c-66 -60 -113 -79 -208 -79 -63 0 -91 5 -131 24 -66 31 -120 86 -153 155
-22 47 -26 70 -26 146 0 78 4 97 27 146 60 122 151 179 283 179 95 0 142 -19
208 -79 l45 -41 73 56 c41 31 76 58 78 61 11 9 -110 112 -160 136 -115 56
-258 71 -382 41z"/>
<path d="M40295 12461 c-118 -34 -216 -102 -278 -192 -122 -178 -122 -430 0
-608 140 -203 432 -270 673 -154 71 34 179 142 213 213 37 77 57 162 57 245 0
144 -50 266 -149 366 -103 102 -223 150 -376 148 -44 0 -107 -8 -140 -18z
m297 -203 c56 -33 104 -87 132 -147 31 -68 30 -227 -2 -292 -58 -118 -139
-172 -268 -177 -67 -3 -90 0 -133 18 -67 29 -143 112 -167 182 -24 69 -24 177
-1 245 24 67 97 149 162 180 44 21 61 24 140 21 77 -3 98 -8 137 -30z"/>
<path d="M41567 12460 c-63 -20 -98 -39 -139 -78 l-28 -26 0 42 0 42 -100 0
-100 0 0 -475 0 -475 100 0 100 0 0 328 0 327 41 48 c60 69 120 97 212 97 63
0 79 -4 119 -29 31 -20 53 -44 69 -77 24 -48 24 -55 27 -371 l3 -323 100 0 99
0 0 318 c0 342 -6 396 -54 491 -37 72 -114 137 -193 161 -81 25 -179 25 -256
0z"/>
<path d="M43059 12457 c-37 -12 -83 -35 -103 -51 -149 -113 -168 -335 -41
-483 l34 -40 -31 -29 c-78 -73 -91 -218 -24 -273 15 -13 12 -19 -38 -71 -71
-75 -94 -144 -77 -235 20 -108 96 -183 229 -226 93 -30 300 -37 395 -15 201
47 324 169 335 331 8 135 -57 235 -184 286 -53 21 -80 24 -272 29 -196 5 -215
7 -228 24 -19 26 -18 45 4 80 l18 30 119 1 c100 0 130 4 176 23 73 29 137 85
174 153 27 49 30 63 30 144 0 50 -4 100 -8 112 -8 22 -6 22 85 25 l93 3 3 83
3 82 -173 0 c-144 0 -183 4 -236 20 -88 28 -197 26 -283 -3z m213 -137 c147
-41 172 -250 40 -332 -52 -32 -150 -32 -208 1 -69 39 -101 117 -82 204 22 105
131 160 250 127z m195 -832 c51 -28 73 -64 73 -121 0 -72 -27 -109 -108 -149
-64 -32 -71 -33 -187 -33 -104 1 -127 4 -173 24 -90 41 -125 105 -103 189 7
23 27 58 46 78 l34 36 193 -4 c158 -3 199 -6 225 -20z"/>
<path d="M44161 12464 c-216 -58 -351 -247 -351 -494 0 -306 216 -520 525
-520 144 0 264 44 360 132 31 28 54 54 53 58 -2 4 -34 33 -71 63 l-68 56 -37
-37 c-58 -58 -123 -84 -218 -90 -176 -10 -292 74 -330 237 -8 31 -14 59 -14
64 0 4 158 7 350 7 l350 0 11 28 c6 16 9 66 6 120 -4 81 -9 102 -41 167 -73
148 -210 226 -396 224 -41 0 -99 -7 -129 -15z m246 -176 c67 -31 123 -110 123
-173 l0 -25 -256 0 -255 0 7 23 c12 39 45 101 68 125 67 74 212 97 313 50z"/>
<path d="M45357 12460 c-63 -20 -98 -39 -139 -78 l-28 -26 0 42 0 42 -100 0
-100 0 0 -475 0 -475 100 0 100 0 0 328 0 327 41 48 c60 69 120 97 212 97 63
0 79 -4 119 -29 31 -20 53 -44 69 -77 24 -48 24 -55 27 -371 l3 -323 100 0 99
0 0 318 c0 342 -6 396 -54 491 -37 72 -114 137 -193 161 -81 25 -179 25 -256
0z"/>
<path d="M46431 12464 c-216 -58 -351 -247 -351 -494 0 -306 216 -520 525
-520 144 0 264 44 360 132 31 28 54 54 53 58 -2 4 -34 33 -71 63 l-68 56 -37
-37 c-58 -58 -123 -84 -218 -90 -176 -10 -292 74 -330 237 -8 31 -14 59 -14
64 0 4 158 7 350 7 l350 0 11 28 c6 16 9 66 6 120 -4 81 -9 102 -41 167 -73
148 -210 226 -396 224 -41 0 -99 -7 -129 -15z m246 -176 c67 -31 123 -110 123
-173 l0 -25 -256 0 -255 0 7 23 c12 39 45 101 68 125 67 74 212 97 313 50z"/>
<path d="M48193 12465 c-29 -8 -74 -25 -101 -39 -47 -24 -152 -111 -152 -126
0 -4 32 -32 71 -63 l72 -54 39 39 c55 55 117 81 199 82 128 1 208 -69 209
-181 0 -29 -3 -53 -7 -53 -5 0 -85 -13 -179 -30 -247 -42 -300 -63 -373 -146
-83 -95 -79 -242 10 -339 63 -68 123 -90 249 -90 117 0 173 18 257 82 l43 33
0 -45 0 -45 100 0 101 0 -3 368 -3 367 -28 57 c-35 72 -110 140 -185 169 -74
28 -242 36 -319 14z m337 -623 l0 -88 -42 -41 c-81 -79 -205 -112 -294 -78
-110 42 -112 171 -2 223 33 16 207 53 331 71 4 1 7 -39 7 -87z"/>
<path d="M49821 12464 c-216 -58 -351 -247 -351 -494 0 -306 216 -520 525
-520 144 0 264 44 360 132 31 28 54 54 53 58 -2 4 -34 33 -71 63 l-68 56 -37
-37 c-58 -58 -123 -84 -218 -90 -176 -10 -292 74 -330 237 -8 31 -14 59 -14
64 0 4 158 7 350 7 l350 0 11 28 c6 16 9 66 6 120 -4 81 -9 102 -41 167 -73
148 -210 226 -396 224 -41 0 -99 -7 -129 -15z m246 -176 c67 -31 123 -110 123
-173 l0 -25 -256 0 -255 0 7 23 c12 39 45 101 68 125 67 74 212 97 313 50z"/>
<path d="M36168 12436 c-31 -13 -75 -38 -97 -55 l-41 -33 0 46 0 46 -100 0
-100 0 0 -475 0 -475 100 0 100 0 0 324 0 324 41 42 c63 65 117 85 222 84 l87
-1 0 92 c0 107 2 105 -93 105 -42 0 -81 -8 -119 -24z"/>
<path d="M47588 12436 c-31 -13 -75 -38 -97 -55 l-41 -33 0 46 0 46 -100 0
-100 0 0 -475 0 -475 100 0 100 0 0 324 0 324 41 42 c63 65 117 85 222 84 l87
-1 0 92 c0 107 2 105 -93 105 -42 0 -81 -8 -119 -24z"/>
<path d="M35320 11965 l0 -475 100 0 100 0 0 475 0 475 -100 0 -100 0 0 -475z"/>
<path d="M39490 11965 l0 -475 100 0 100 0 0 475 0 475 -100 0 -100 0 0 -475z"/>
<path d="M23497 10863 l-106 -128 126 -3 126 -3 35 33 c18 18 74 77 124 131
l90 97 -144 0 -145 0 -106 -127z"/>
<path d="M10306 10650 c-84 -27 -159 -82 -205 -151 -48 -72 -65 -139 -59 -233
11 -165 85 -248 325 -362 207 -99 243 -129 243 -204 0 -155 -217 -175 -369
-34 -32 30 -63 54 -67 54 -5 -1 -52 -41 -104 -90 l-95 -90 59 -55 c70 -67 160
-118 241 -139 214 -53 402 -13 515 111 67 73 93 144 94 253 1 124 -20 178
-103 261 -67 67 -64 65 -329 191 -89 42 -132 87 -132 139 0 87 60 136 155 126
70 -7 109 -29 178 -99 l58 -59 101 93 100 93 -65 61 c-75 70 -156 116 -243
138 -85 22 -223 20 -298 -4z"/>
<path d="M11514 10650 c-241 -63 -417 -243 -480 -490 -25 -99 -16 -291 19
-388 58 -166 173 -300 318 -371 117 -57 192 -75 324 -75 278 0 494 134 611
379 89 185 85 411 -9 605 -54 111 -167 228 -274 283 -147 77 -349 99 -509 57z
m302 -255 c287 -81 369 -503 138 -714 -76 -70 -144 -95 -259 -95 -126 0 -189
26 -276 113 -93 93 -114 148 -114 301 0 109 2 119 32 182 41 87 101 151 178
189 102 50 185 56 301 24z"/>
<path d="M1710 10000 l0 -640 375 0 375 0 0 115 0 115 -240 0 -241 0 3 153 3
152 203 3 202 2 0 115 0 115 -205 0 -206 0 3 138 3 137 238 3 237 2 0 115 0
115 -375 0 -375 0 0 -640z"/>
<path d="M2640 10515 l0 -125 193 -2 192 -3 3 -512 2 -513 135 0 135 0 2 513
3 512 193 3 192 2 0 125 0 125 -525 0 -525 0 0 -125z"/>
<path d="M4370 10000 l0 -642 328 4 327 4 80 28 c116 40 180 80 266 165 84 84
136 176 165 291 24 95 16 261 -18 357 -69 193 -224 338 -433 402 -76 23 -96
24 -397 29 l-318 4 0 -642z m653 361 c268 -104 334 -456 122 -650 -88 -80
-138 -94 -337 -99 l-168 -4 0 384 c0 212 3 388 8 392 4 5 77 6 162 4 129 -4
165 -9 213 -27z"/>
<path d="M5780 10000 l0 -640 380 0 380 0 0 115 0 115 -240 0 -240 0 0 155 0
155 200 0 200 0 0 115 0 115 -200 0 -200 0 0 140 0 140 240 0 240 0 0 115 0
115 -380 0 -380 0 0 -640z"/>
<path d="M7290 10000 l0 -640 375 0 375 0 0 125 0 125 -240 0 -240 0 0 515 0
515 -135 0 -135 0 0 -640z"/>
<path d="M8612 10613 c-8 -22 -441 -1168 -467 -1236 -7 -16 2 -17 141 -15
l148 3 59 163 60 162 244 -2 245 -3 44 -120 c24 -66 51 -139 60 -162 l16 -43
144 0 c79 0 144 3 144 8 0 4 -108 291 -239 637 l-239 630 -175 3 -175 2 -10
-27z m267 -483 c39 -107 71 -198 71 -202 0 -5 -70 -8 -156 -8 -121 0 -155 3
-152 13 3 6 38 103 78 215 45 123 77 198 81 190 4 -7 39 -101 78 -208z"/>
<path d="M12580 10202 c0 -406 1 -445 20 -517 43 -169 144 -278 310 -336 86
-29 265 -32 355 -5 174 52 279 159 332 337 13 45 17 130 20 507 l5 452 -141 0
-141 0 0 -426 c0 -273 -4 -441 -11 -468 -31 -125 -172 -193 -313 -152 -78 23
-127 73 -149 152 -15 52 -17 117 -17 477 l0 417 -135 0 -135 0 0 -438z"/>
<path d="M13761 10628 c0 -7 107 -294 237 -638 l237 -625 178 -3 c97 -1 177
-1 177 1 0 2 108 289 240 637 132 349 240 635 240 637 0 2 -66 2 -147 1 l-146
-3 -181 -477 c-99 -263 -183 -474 -187 -470 -3 4 -87 220 -184 480 l-179 472
-143 0 c-108 0 -143 -3 -142 -12z"/>
<path d="M15240 10000 l0 -640 380 0 380 0 0 115 0 115 -240 0 -240 0 0 155 0
155 200 0 200 0 0 115 0 115 -200 0 -200 0 0 140 0 140 240 0 240 0 0 115 0
115 -380 0 -380 0 0 -640z"/>
<path d="M16280 10000 l0 -640 135 0 135 0 0 255 0 255 58 0 59 0 167 -255
168 -255 163 0 164 0 -195 275 c-106 151 -194 279 -194 285 0 5 4 10 9 10 5 0
34 22 64 50 160 146 153 428 -13 559 -103 81 -199 101 -507 101 l-213 0 0
-640z m456 399 c112 -28 149 -180 63 -259 -34 -33 -66 -40 -170 -40 l-79 0 0
148 c0 82 3 152 7 155 10 11 130 8 179 -4z"/>
<path d="M17835 10628 c-3 -7 -108 -285 -233 -618 -126 -333 -232 -615 -236
-627 l-7 -23 144 0 c129 0 146 2 152 18 4 9 29 76 55 147 26 72 51 138 55 148
7 15 28 17 250 17 l242 0 60 -162 60 -163 146 -3 c81 -1 147 -1 147 1 0 2
-104 278 -231 613 -127 335 -236 621 -241 637 l-10 27 -174 0 c-131 0 -176 -3
-179 -12z m260 -491 c41 -114 75 -210 75 -212 0 -3 -70 -5 -155 -5 -85 0 -155
4 -155 8 0 5 34 101 75 213 41 112 75 205 75 208 0 16 18 -30 85 -212z"/>
<path d="M18850 10000 l0 -640 135 0 135 0 0 640 0 640 -135 0 -135 0 0 -640z"/>
<path d="M19460 10000 l0 -640 135 0 135 0 2 438 3 439 270 -438 270 -438 173
-1 172 0 0 640 0 640 -135 0 -135 0 0 -442 c-1 -393 -2 -441 -15 -423 -9 10
-133 209 -276 442 l-262 423 -168 0 -169 0 0 -640z"/>
<path d="M20960 10000 l0 -640 375 0 375 0 0 115 0 115 -240 0 -241 0 3 153 3
152 203 3 202 2 0 115 0 115 -205 0 -206 0 3 138 3 137 238 3 237 2 0 115 0
115 -375 0 -375 0 0 -640z"/>
<path d="M21890 10515 l0 -125 193 -2 192 -3 3 -512 2 -513 135 0 135 0 0 515
0 515 195 0 195 0 0 125 0 125 -525 0 -525 0 0 -125z"/>
<path d="M23150 10000 l0 -640 375 0 375 0 0 115 0 115 -240 0 -241 0 3 153 3
152 203 3 202 2 0 115 0 115 -205 0 -206 0 3 138 3 137 238 3 237 2 0 115 0
115 -375 0 -375 0 0 -640z"/>
<path d="M34540 10359 l0 -281 -46 41 c-62 54 -139 82 -244 88 -264 16 -462
-149 -508 -423 -15 -83 -15 -100 0 -182 48 -272 246 -435 508 -419 105 6 182
34 244 88 l46 41 0 -46 0 -46 100 0 100 0 0 710 0 710 -100 0 -100 0 0 -281z
m-132 -374 c29 -16 71 -48 92 -72 l40 -43 0 -175 0 -175 -40 -43 c-21 -24 -63
-56 -92 -72 -45 -25 -67 -30 -145 -33 -85 -4 -98 -2 -147 22 -65 32 -110 80
-145 156 -21 46 -25 70 -25 145 0 75 4 99 25 145 35 75 79 123 142 155 47 24
60 26 147 23 82 -3 102 -8 148 -33z"/>
<path d="M38900 10488 c-52 -83 -97 -155 -98 -160 -2 -5 39 -7 93 -6 l97 3
114 158 114 157 -113 0 -112 -1 -95 -151z"/>
<path d="M36610 10440 l0 -100 215 0 215 0 0 -560 0 -560 110 0 110 0 0 560 0
560 215 0 215 0 0 100 0 100 -540 0 -540 0 0 -100z"/>
<path d="M38751 10194 c-216 -58 -351 -247 -351 -494 0 -306 216 -520 525
-520 144 0 264 44 360 132 31 28 54 54 53 58 -2 4 -34 33 -71 63 l-68 56 -37
-37 c-58 -58 -123 -84 -218 -90 -176 -10 -292 74 -330 237 -8 31 -14 59 -14
64 0 4 158 7 350 7 l350 0 11 28 c6 16 9 66 6 120 -4 81 -9 102 -41 167 -73
148 -210 226 -396 224 -41 0 -99 -7 -129 -15z m246 -176 c67 -31 123 -110 123
-173 l0 -25 -256 0 -255 0 7 23 c12 39 45 101 68 125 67 74 212 97 313 50z"/>
<path d="M39706 10191 c-129 -52 -196 -142 -196 -264 0 -74 19 -123 68 -178
43 -48 81 -70 260 -150 96 -43 136 -87 129 -141 -19 -143 -197 -158 -328 -27
l-40 40 -64 -57 c-36 -31 -65 -60 -65 -64 0 -13 102 -100 140 -120 117 -60
277 -66 382 -16 115 55 176 163 165 292 -10 132 -70 189 -301 284 -133 56
-176 113 -143 192 38 92 180 87 279 -9 l37 -36 66 58 66 58 -38 39 c-21 22
-71 56 -112 76 -66 32 -83 36 -165 39 -72 3 -101 -1 -140 -16z"/>
<path d="M40695 10191 c-118 -34 -216 -102 -278 -192 -122 -178 -122 -430 0
-608 140 -203 432 -270 673 -154 71 34 179 142 213 213 76 158 76 332 0 490
-34 71 -142 179 -213 213 -121 58 -275 73 -395 38z m297 -203 c56 -33 104 -87
132 -147 31 -68 30 -227 -2 -292 -58 -118 -139 -172 -268 -177 -67 -3 -90 0
-133 18 -67 29 -143 112 -167 182 -24 69 -24 177 -1 245 24 67 97 149 162 180
44 21 61 24 140 21 77 -3 98 -8 137 -30z"/>
<path d="M38108 10166 c-31 -13 -75 -38 -97 -55 l-41 -33 0 46 0 46 -100 0
-100 0 0 -475 0 -475 100 0 100 0 0 324 0 324 41 42 c63 65 117 85 222 84 l87
-1 0 92 c0 107 2 105 -93 105 -42 0 -81 -8 -119 -24z"/>
<path d="M41948 10166 c-31 -13 -75 -38 -97 -55 l-41 -33 0 46 0 46 -100 0
-100 0 0 -475 0 -475 100 0 100 0 0 324 0 324 41 42 c63 65 117 85 222 84 l87
-1 0 92 c0 107 2 105 -93 105 -42 0 -81 -8 -119 -24z"/>
<path d="M35040 9865 c0 -183 4 -325 11 -357 43 -206 198 -328 419 -328 222 0
376 121 419 328 7 32 11 174 11 357 l0 305 -99 0 -100 0 -3 -322 c-3 -308 -4
-325 -25 -363 -44 -82 -102 -115 -203 -115 -101 0 -159 33 -203 115 -21 38
-22 55 -25 363 l-3 322 -100 0 -99 0 0 -305z"/>
<path d="M15819 9023 l-106 -128 125 -3 126 -3 74 73 c40 40 96 99 124 131
l50 57 -144 0 -144 0 -105 -127z"/>
<path d="M21977 9023 l-107 -128 126 -3 c85 -2 131 1 140 9 8 6 64 65 125 130
l111 119 -144 0 -145 0 -106 -127z"/>
<path d="M6765 8812 c-116 -40 -197 -110 -243 -211 -22 -47 -26 -70 -26 -147
-1 -82 2 -96 32 -157 49 -98 107 -145 297 -237 88 -42 175 -89 192 -104 77
-65 52 -185 -45 -217 -86 -28 -200 10 -289 96 l-53 51 -97 -92 -98 -92 54 -56
c157 -160 442 -211 640 -114 78 38 140 99 178 176 25 52 28 67 28 167 0 102
-2 114 -29 165 -49 94 -111 143 -301 235 -186 90 -224 120 -231 181 -6 48 11
81 55 111 74 50 186 17 281 -83 l52 -55 75 68 c41 37 87 78 102 90 l26 23 -67
65 c-73 70 -155 117 -245 140 -78 21 -225 19 -288 -3z"/>
<path d="M20605 8811 c-238 -59 -415 -237 -481 -482 -22 -85 -23 -252 0 -339
85 -334 411 -547 769 -501 169 22 292 79 404 187 l63 62 0 276 0 276 -300 0
-300 0 0 -120 0 -120 165 0 165 0 0 -98 c0 -89 -2 -100 -22 -120 -70 -65 -222
-104 -332 -85 -212 36 -350 200 -348 414 1 213 136 376 339 409 119 20 247
-25 334 -117 34 -36 55 -51 62 -45 7 5 56 44 111 86 l98 76 -74 73 c-133 130
-281 188 -477 186 -64 0 -133 -7 -176 -18z"/>
<path d="M24812 8810 c-277 -73 -473 -317 -489 -610 -25 -435 332 -768 761
-711 l86 12 99 -88 c172 -153 279 -202 437 -203 50 0 105 5 123 11 l31 11 0
118 0 118 -37 -10 c-95 -26 -220 18 -328 115 l-60 54 60 65 c120 131 175 279
175 467 0 126 -18 207 -66 305 -114 234 -336 367 -613 365 -71 0 -130 -6 -179
-19z m313 -257 c105 -36 178 -105 228 -212 62 -133 45 -324 -39 -437 -84 -111
-178 -159 -314 -159 -102 0 -164 19 -235 73 -160 121 -210 346 -118 540 81
171 296 259 478 195z"/>
<path d="M1710 8160 l0 -640 135 0 135 0 0 640 0 640 -135 0 -135 0 0 -640z"/>
<path d="M2320 8160 l0 -640 135 0 135 0 0 435 c0 239 3 435 8 435 4 0 127
-195 274 -433 l266 -432 171 -3 171 -2 0 640 0 640 -135 0 -135 0 -2 -440 -3
-439 -270 437 -271 437 -172 3 -172 2 0 -640z"/>
<path d="M3820 8160 l0 -641 328 3 c324 4 328 4 407 31 112 37 196 90 276 174
75 79 139 196 158 291 16 76 14 228 -4 297 -55 217 -226 388 -455 456 -69 20
-102 22 -392 26 l-318 5 0 -642z m581 380 c127 -24 234 -105 287 -218 24 -50
27 -69 27 -162 0 -99 -2 -110 -33 -172 -41 -83 -119 -158 -200 -189 -49 -20
-79 -24 -224 -27 l-168 -4 0 384 c0 212 3 388 7 391 10 11 244 8 304 -3z"/>
<path d="M5213 8348 c4 -491 5 -496 63 -617 52 -105 172 -199 294 -229 137
-33 302 -20 416 34 77 36 172 131 208 207 52 110 56 154 56 625 l0 432 -135 0
-135 0 0 -410 c0 -251 -4 -428 -11 -459 -15 -73 -58 -134 -112 -160 -100 -48
-215 -37 -291 30 -76 67 -76 69 -76 566 l0 433 -141 0 -140 0 4 -452z"/>
<path d="M7460 8675 l0 -125 190 0 190 0 0 -515 0 -515 140 0 140 0 0 515 0
515 195 0 195 0 0 125 0 125 -525 0 -525 0 0 -125z"/>
<path d="M8720 8161 l0 -641 135 0 135 0 0 255 0 255 58 0 57 0 168 -255 169
-255 159 0 c87 0 159 2 159 5 0 3 -88 130 -196 282 -110 156 -191 279 -185
281 58 19 151 130 173 205 17 59 14 203 -5 255 -40 107 -125 184 -247 224 -58
19 -95 22 -322 26 l-258 4 0 -641z m452 399 c81 -23 127 -99 109 -181 -20 -88
-73 -119 -206 -119 l-85 0 0 155 0 155 73 0 c39 0 89 -5 109 -10z"/>
<path d="M9900 8160 l0 -640 140 0 140 0 0 640 0 640 -140 0 -140 0 0 -640z"/>
<path d="M10510 8160 l0 -640 380 0 380 0 0 115 0 115 -240 0 -240 0 0 155 0
155 200 0 200 0 0 115 0 115 -200 0 -200 0 0 140 0 140 240 0 240 0 0 115 0
115 -380 0 -380 0 0 -640z"/>
<path d="M11550 8160 l0 -640 375 0 375 0 0 125 0 125 -240 0 -240 0 0 515 0
515 -135 0 -135 0 0 -640z"/>
<path d="M12510 8160 l0 -640 375 0 375 0 0 125 0 125 -240 0 -240 0 0 515 0
515 -135 0 -135 0 0 -640z"/>
<path d="M13470 8160 l0 -640 375 0 375 0 0 115 0 115 -240 0 -241 0 3 153 3
152 203 3 202 2 0 115 0 115 -205 0 -206 0 3 138 3 137 238 3 237 2 0 115 0
115 -375 0 -375 0 0 -640z"/>
<path d="M15470 8160 l0 -640 375 0 375 0 0 115 0 115 -240 0 -241 0 3 153 3
152 203 3 202 2 0 115 0 115 -205 0 -206 0 3 138 3 137 238 3 237 2 0 115 0
115 -375 0 -375 0 0 -640z"/>
<path d="M16500 8160 l0 -640 140 0 140 0 2 435 3 435 269 -435 269 -435 174
0 173 0 0 640 0 640 -140 0 -140 0 -2 -438 -3 -438 -270 438 -270 437 -172 1
-173 0 0 -640z"/>
<path d="M18000 8160 l0 -640 380 0 380 0 0 115 0 115 -240 0 -240 0 0 155 0
155 200 0 200 0 0 115 0 115 -200 0 -200 0 0 140 0 140 240 0 240 0 0 115 0
115 -380 0 -380 0 0 -640z"/>
<path d="M19040 8161 l0 -641 135 0 135 0 0 255 0 255 58 0 57 0 169 -255 168
-255 159 0 c88 0 159 2 159 6 0 3 -85 126 -190 274 -104 148 -190 274 -190
279 0 6 12 17 28 25 45 24 99 87 128 151 24 51 28 74 28 150 2 189 -85 308
-267 368 -54 17 -95 21 -319 25 l-258 4 0 -641z m455 398 c101 -27 140 -131
88 -232 -23 -45 -83 -67 -185 -67 l-88 0 0 155 0 155 73 0 c39 0 90 -5 112
-11z"/>
<path d="M21630 8160 l0 -640 375 0 375 0 0 115 0 115 -240 0 -241 0 3 153 3
152 203 3 202 2 0 115 0 115 -205 0 -206 0 3 138 3 137 238 3 237 2 0 115 0
115 -375 0 -375 0 0 -640z"/>
<path d="M22560 8675 l0 -125 193 -2 192 -3 3 -512 2 -513 135 0 135 0 0 515
0 515 195 0 195 0 0 125 0 125 -525 0 -525 0 0 -125z"/>
<path d="M23820 8160 l0 -640 135 0 135 0 0 640 0 640 -135 0 -135 0 0 -640z"/>
<path d="M25880 8383 c1 -467 7 -532 61 -642 93 -188 303 -284 549 -251 165
22 295 107 364 240 62 117 66 153 66 638 l0 432 -135 0 -135 0 0 -410 c0 -251
-4 -428 -11 -459 -15 -73 -58 -134 -112 -160 -103 -50 -231 -34 -299 36 -67
69 -68 74 -68 559 l0 434 -140 0 -140 0 0 -417z"/>
<path d="M27220 8160 l0 -640 375 0 375 0 0 115 0 115 -240 0 -241 0 3 153 3
152 203 3 202 2 0 115 0 115 -205 0 -206 0 3 138 3 137 238 3 237 2 0 115 0
115 -375 0 -375 0 0 -640z"/>
<path d="M14536 7773 c-19 -65 -149 -493 -156 -515 l-9 -28 117 0 117 0 105
271 c58 149 107 275 108 280 2 5 -55 9 -136 9 -125 0 -141 -2 -146 -17z"/>
<path d="M9127 7180 l-107 -130 127 0 128 0 111 113 c161 163 162 147 -7 147
l-144 -1 -108 -129z"/>
<path d="M12050 6983 c-62 -10 -161 -48 -224 -85 -310 -182 -412 -585 -234
-921 49 -92 164 -204 264 -255 129 -66 279 -92 418 -73 l79 11 54 -47 c169
-149 266 -209 374 -233 58 -13 224 -10 247 4 8 5 12 43 12 126 l0 120 -26 -10
c-62 -24 -176 -2 -250 47 -23 16 -65 50 -93 76 l-52 49 59 61 c248 260 240
692 -17 947 -135 133 -283 191 -480 189 -58 -1 -117 -4 -131 -6z m256 -269
c55 -15 134 -69 178 -121 37 -44 74 -129 87 -199 29 -153 -40 -334 -157 -417
-204 -144 -482 -73 -585 148 -101 216 -16 481 182 569 103 47 181 52 295 20z"/>
<path d="M1710 6320 l0 -640 375 0 375 0 0 115 0 115 -240 0 -241 0 3 153 3
152 203 3 202 2 0 115 0 115 -205 0 -206 0 3 138 3 137 238 3 237 2 0 115 0
115 -375 0 -375 0 0 -640z"/>
<path d="M2640 6835 l0 -125 193 -2 192 -3 3 -512 2 -513 135 0 135 0 2 513 3
512 193 3 192 2 0 125 0 125 -525 0 -525 0 0 -125z"/>
<path d="M4370 6320 l0 -640 135 0 135 0 0 435 c0 239 3 435 8 435 4 -1 128
-196 275 -435 l269 -435 169 0 169 0 0 640 0 640 -135 0 -135 0 -2 -439 -3
-440 -270 437 -271 437 -172 3 -172 2 0 -640z"/>
<path d="M5840 6518 c0 -356 3 -455 15 -506 40 -171 154 -293 319 -344 99 -31
262 -31 361 0 123 38 216 113 274 222 58 108 61 140 61 628 l0 442 -135 0
-135 0 0 -423 c0 -459 -2 -484 -55 -553 -43 -56 -97 -79 -190 -79 -91 0 -143
21 -188 75 -54 63 -57 96 -57 557 l0 423 -135 0 -135 0 0 -442z"/>
<path d="M7170 6320 l0 -640 140 0 140 0 0 437 0 437 132 -222 132 -222 96 0
96 0 132 222 132 222 0 -437 0 -437 140 0 140 0 0 640 0 640 -169 0 -168 0
-148 -255 c-81 -140 -151 -255 -155 -255 -4 0 -73 115 -155 255 l-148 255
-168 0 -169 0 0 -640z"/>
<path d="M8780 6320 l0 -640 375 0 375 0 0 115 0 115 -240 0 -241 0 3 153 3
152 203 3 202 2 0 115 0 115 -205 0 -206 0 3 138 3 137 238 3 237 2 0 115 0
115 -375 0 -375 0 0 -640z"/>
<path d="M9810 6320 l0 -640 140 0 140 0 0 255 0 256 58 -3 57 -3 167 -252
167 -253 161 0 c126 0 160 3 154 13 -4 6 -93 133 -198 281 -104 149 -184 272
-178 274 27 9 95 66 121 103 49 68 64 127 59 242 -3 85 -8 110 -30 152 -54
105 -161 176 -298 201 -47 8 -157 13 -297 14 l-223 0 0 -640z m498 386 c53
-28 74 -70 70 -143 -6 -105 -60 -143 -203 -143 l-85 0 0 156 0 156 93 -4 c61
-3 103 -10 125 -22z"/>
<path d="M11000 6320 l0 -640 135 0 135 0 0 640 0 640 -135 0 -135 0 0 -640z"/>
<path d="M13070 6518 c0 -489 3 -520 62 -630 86 -162 236 -242 453 -242 225 0
375 84 464 261 47 93 51 139 51 611 l0 442 -135 0 -135 0 0 -423 c0 -461 -3
-494 -57 -557 -45 -54 -97 -75 -188 -75 -91 0 -143 21 -188 75 -54 63 -57 96
-57 557 l0 423 -135 0 -135 0 0 -442z"/>
<path d="M14410 6320 l0 -640 375 0 375 0 0 115 0 115 -240 0 -240 0 0 155 0
155 205 0 205 0 0 115 0 115 -205 0 -205 0 0 140 0 140 240 0 240 0 0 115 0
115 -375 0 -375 0 0 -640z"/>
<path d="M2960 4814 c-14 -3 -44 -7 -67 -10 -34 -4 -43 -9 -43 -24 0 -11 8
-24 19 -29 10 -6 21 -18 25 -26 3 -9 -43 -142 -104 -300 -61 -156 -110 -294
-110 -306 0 -28 54 -77 94 -84 39 -8 100 7 141 35 82 54 174 168 212 262 25
61 24 169 -1 197 -40 44 -140 19 -193 -47 -23 -29 -14 5 47 163 33 86 58 161
54 166 -5 9 -26 10 -74 3z m69 -393 c8 -13 6 -35 -4 -75 -31 -120 -106 -216
-169 -216 -59 0 -63 18 -26 119 23 65 41 98 68 123 74 70 113 84 131 49z"/>
<path d="M2615 4785 c-30 -29 -32 -68 -5 -95 26 -26 81 -26 103 -2 24 26 21
77 -5 102 -29 27 -64 25 -93 -5z"/>
<path d="M4590 4718 c-24 -40 -51 -88 -62 -105 l-20 -33 25 0 c31 0 207 163
207 191 0 16 -8 19 -54 19 l-54 0 -42 -72z"/>
<path d="M1936 4724 c-8 -21 -9 -20 39 -36 30 -10 41 -19 43 -36 4 -23 -123
-394 -158 -462 -25 -49 -51 -70 -107 -84 -37 -9 -49 -17 -51 -34 l-3 -22 263
0 264 0 57 101 c31 56 57 105 57 110 0 27 -50 2 -111 -55 -92 -85 -193 -120
-242 -83 -17 12 -17 16 4 82 11 38 50 148 85 244 71 193 93 227 157 238 37 6
67 25 67 44 0 5 -75 9 -179 9 -157 0 -180 -2 -185 -16z"/>
<path d="M4147 4601 c-41 -62 -49 -69 -86 -75 -37 -6 -41 -9 -41 -36 0 -25 4
-30 25 -30 14 0 25 -4 25 -10 0 -5 -20 -64 -46 -131 -85 -230 -87 -238 -69
-265 20 -31 55 -31 125 2 73 34 170 130 170 169 0 16 -47 1 -76 -25 -46 -40
-94 -65 -93 -48 0 7 24 78 53 158 l52 145 66 3 66 3 10 39 10 40 -59 0 c-32 0
-59 2 -59 3 0 2 9 30 20 62 11 32 20 60 20 62 0 1 -15 3 -34 3 -30 0 -37 -7
-79 -69z"/>
<path d="M2507 4521 c-41 -27 -107 -108 -107 -133 0 -19 41 -5 71 24 18 18 34
28 36 23 2 -6 -26 -87 -62 -180 -43 -109 -64 -178 -60 -192 15 -61 141 -17
202 71 18 26 33 54 33 62 0 25 -35 15 -70 -21 -18 -19 -36 -33 -38 -30 -2 2
29 85 69 185 82 201 83 213 13 218 -30 2 -51 -5 -87 -27z"/>
<path d="M3347 4521 c-92 -59 -165 -198 -174 -331 -5 -67 -3 -79 19 -110 59
-86 178 -50 260 79 50 80 25 97 -48 32 -24 -21 -53 -41 -63 -44 -50 -13 -89
46 -73 108 7 26 18 32 133 70 124 41 124 42 137 81 16 48 3 105 -31 129 -36
25 -106 19 -160 -14z m64 -61 c12 -7 19 -21 19 -38 0 -26 -4 -29 -65 -44 -36
-8 -65 -13 -65 -11 0 15 34 65 56 82 31 24 30 24 55 11z"/>
<path d="M3683 4532 c-21 -16 -93 -128 -93 -144 0 -18 43 -6 62 17 26 33 48
32 48 -1 0 -15 -27 -87 -60 -161 -33 -75 -60 -148 -60 -164 0 -46 61 -67 92
-31 9 9 37 76 64 147 33 91 59 144 86 177 36 44 43 47 91 50 l52 3 3 48 c4 58
-9 77 -52 77 -36 0 -62 -23 -92 -80 l-18 -35 -6 42 c-3 23 -12 48 -19 57 -18
21 -70 20 -98 -2z"/>
<path d="M4489 4530 c-140 -74 -243 -376 -159 -465 64 -68 170 -27 254 99 50
75 21 90 -52 26 -38 -34 -52 -40 -81 -38 -46 4 -68 43 -55 96 9 35 11 36 132
77 68 22 127 47 132 55 8 15 13 57 11 98 -1 13 -12 34 -26 47 -31 31 -102 33
-156 5z m52 -70 c12 -7 19 -21 19 -38 0 -26 -4 -29 -65 -44 -79 -19 -84 -9
-27 52 43 44 45 45 73 30z"/>
<path d="M2266 3698 c-51 -75 -55 -83 -36 -86 29 -5 220 126 220 150 0 15 -9
18 -63 18 l-64 0 -57 -82z"/>
<path d="M3640 3653 c-88 -9 -101 -26 -53 -67 l27 -23 -117 -309 c-65 -170
-117 -319 -117 -331 0 -34 37 -54 83 -44 53 12 102 53 137 114 28 49 29 52 10
55 -12 2 -37 -11 -62 -32 -23 -20 -43 -34 -45 -32 -2 2 53 151 122 331 68 180
122 331 119 336 -5 9 -34 9 -104 2z"/>
<path d="M3921 3624 c-12 -15 -21 -34 -21 -44 0 -10 9 -29 21 -44 40 -50 119
-21 119 44 0 65 -79 94 -119 44z"/>
<path d="M4636 3536 c-31 -52 -56 -97 -56 -100 0 -3 10 -6 23 -6 29 0 197 154
197 181 0 16 -7 19 -54 19 l-55 0 -55 -94z"/>
<path d="M1941 3568 c-8 -20 -5 -24 23 -33 46 -15 56 -24 56 -50 0 -25 -136
-408 -163 -461 -22 -42 -46 -60 -102 -76 -39 -10 -51 -19 -53 -36 l-3 -22 290
0 291 0 43 68 c73 112 73 112 39 112 -18 0 -45 -12 -68 -31 -81 -66 -202 -101
-288 -85 -46 9 -46 17 -1 141 52 143 45 135 121 135 84 0 104 -11 104 -55 0
-30 3 -35 24 -35 13 0 27 8 31 18 23 58 75 206 75 213 0 5 -11 9 -24 9 -17 0
-31 -11 -47 -36 -12 -20 -37 -43 -55 -50 -38 -16 -154 -19 -154 -4 0 21 72
206 86 220 11 11 38 15 105 15 102 0 119 -10 119 -72 0 -30 3 -33 29 -33 27 0
28 2 40 69 6 39 11 77 11 85 0 14 -31 16 -260 16 l-261 0 -8 -22z"/>
<path d="M4206 3450 c-41 -65 -60 -80 -100 -80 -40 0 -56 -11 -56 -36 0 -21 4
-24 41 -24 48 0 51 22 -32 -204 -33 -88 -59 -170 -59 -182 0 -32 36 -54 74
-47 72 14 160 72 200 133 48 73 24 81 -63 19 -33 -23 -63 -40 -69 -38 -5 2 16
74 47 159 l56 155 63 3 c57 3 64 5 72 28 16 41 13 44 -50 44 l-60 0 24 65 24
65 -37 0 c-33 0 -39 -5 -75 -60z"/>
<path d="M3316 3401 c-10 -10 -37 -21 -64 -25 -176 -23 -350 -211 -360 -388
-5 -77 8 -102 56 -111 42 -8 87 17 129 72 21 27 41 50 46 50 4 1 7 -17 7 -38
0 -51 27 -84 69 -84 40 0 76 33 119 113 33 59 33 60 11 60 -13 0 -35 -12 -50
-26 -32 -31 -54 -24 -44 15 3 14 40 104 81 198 41 95 74 175 74 178 0 14 -59
3 -74 -14z m-106 -125 c0 -8 -14 -52 -31 -98 -26 -69 -41 -92 -87 -136 -67
-64 -87 -65 -87 -2 1 53 31 120 80 177 48 56 125 93 125 59z"/>
<path d="M2641 3385 c-85 -27 -150 -117 -151 -208 0 -40 5 -53 34 -85 l34 -37
-31 -26 c-28 -23 -32 -33 -31 -72 1 -43 0 -45 -36 -56 -60 -18 -118 -65 -129
-107 -20 -73 27 -118 137 -130 170 -18 352 65 369 169 5 32 2 41 -24 64 -18
17 -68 40 -124 59 -51 16 -94 35 -96 41 -6 18 34 53 60 53 13 0 47 15 77 33
66 39 110 113 110 183 l0 44 44 0 c48 0 50 1 60 41 l6 27 -103 5 c-56 3 -115
8 -132 11 -16 3 -50 -1 -74 -9z m87 -88 c5 -59 -23 -141 -59 -171 -17 -14 -34
-26 -37 -26 -53 1 -44 129 15 208 19 25 31 32 51 30 23 -3 27 -8 30 -41z m-90
-441 c105 -38 107 -39 99 -60 -11 -29 -70 -49 -152 -53 -94 -5 -128 8 -133 50
-4 34 10 52 57 77 20 11 36 19 36 19 0 1 42 -15 93 -33z"/>
<path d="M3861 3386 c-47 -17 -108 -71 -131 -116 -24 -48 -24 -50 -3 -50 9 0
32 14 50 32 18 17 35 29 39 26 3 -4 -24 -84 -60 -178 -36 -94 -66 -177 -66
-185 0 -8 10 -21 23 -30 45 -29 127 13 188 99 16 21 29 45 29 53 0 23 -33 14
-67 -19 -18 -17 -35 -29 -38 -26 -3 2 26 82 65 176 38 94 70 178 70 186 0 20
-28 46 -48 45 -9 0 -32 -6 -51 -13z"/>
<path d="M4584 3389 c-47 -14 -127 -90 -161 -156 -61 -114 -80 -241 -47 -304
33 -65 116 -71 190 -14 36 27 104 121 104 142 0 18 -49 16 -56 -1 -10 -27 -81
-68 -111 -64 -36 4 -57 45 -48 96 l6 38 130 43 c142 47 144 49 142 133 -1 44
-16 66 -60 85 -36 15 -45 15 -89 2z m26 -93 c6 -8 10 -25 8 -37 -2 -18 -14
-26 -53 -36 -89 -23 -95 -15 -39 47 38 42 63 50 84 26z"/>
<path d="M5174 2482 c-15 -10 -34 -47 -34 -67 0 -25 46 -65 75 -65 56 0 89 86
47 123 -19 17 -68 22 -88 9z"/>
<path d="M5871 2370 c-59 -98 -60 -100 -35 -100 32 0 204 153 204 181 0 16 -8
19 -54 19 l-55 0 -60 -100z"/>
<path d="M1940 2421 c0 -5 -2 -16 -5 -23 -4 -9 8 -17 40 -26 40 -11 45 -15 45
-41 0 -36 -153 -456 -178 -491 -11 -15 -43 -33 -78 -45 -37 -13 -60 -27 -62
-38 -3 -16 12 -17 188 -17 166 0 191 2 197 16 7 20 -8 30 -58 38 -61 10 -63
27 -20 152 l38 109 79 3 c89 3 108 -8 97 -59 -5 -27 -3 -29 23 -29 28 0 31 5
68 108 21 59 41 113 43 120 4 8 -5 12 -23 12 -21 0 -33 -8 -46 -29 -28 -50
-57 -62 -140 -59 l-75 3 39 105 c21 58 48 113 59 123 16 13 40 17 98 17 97 0
121 -14 121 -71 0 -36 2 -39 28 -39 27 0 28 3 43 85 l15 85 -268 0 c-156 0
-268 -4 -268 -9z"/>
<path d="M3451 2286 c-43 -65 -61 -76 -127 -76 -20 0 -24 -5 -24 -30 0 -28 2
-30 41 -30 35 0 40 -3 34 -17 -54 -139 -125 -345 -125 -364 0 -35 18 -49 60
-49 43 0 103 27 149 66 35 29 91 100 91 116 0 14 -47 9 -60 -8 -16 -19 -99
-68 -105 -62 -3 2 21 75 52 161 l56 157 62 0 c62 0 63 1 74 31 6 18 11 34 11
35 0 2 -27 4 -61 4 -67 0 -66 -3 -33 79 20 47 18 51 -20 51 -30 0 -38 -6 -75
-64z"/>
<path d="M5446 2290 c-45 -71 -44 -70 -104 -78 -42 -6 -47 -10 -50 -35 -3 -25
-1 -27 37 -27 23 0 41 -2 41 -4 0 -3 -29 -84 -65 -181 -36 -97 -65 -187 -65
-199 0 -76 126 -56 225 35 40 37 75 85 75 104 0 14 -49 3 -66 -16 -19 -21 -93
-64 -99 -57 -2 2 22 74 53 161 l56 157 63 0 c59 0 64 2 73 26 16 41 13 44 -49
44 l-60 0 20 57 c25 73 25 73 -13 73 -29 0 -37 -7 -72 -60z"/>
<path d="M3166 2241 c-10 -11 -37 -21 -66 -24 -167 -20 -345 -213 -358 -387
-6 -84 13 -110 80 -110 39 0 47 5 100 62 l58 61 0 -35 c0 -47 33 -88 70 -88
39 0 81 38 119 109 32 60 32 61 10 61 -13 0 -36 -12 -51 -27 -23 -22 -31 -25
-38 -14 -11 19 6 69 84 245 36 82 66 153 66 158 0 16 -57 8 -74 -11z m-101
-128 c-4 -10 -20 -54 -37 -98 -30 -83 -66 -129 -127 -167 -41 -26 -55 -12 -46
45 15 103 124 237 193 237 19 0 23 -4 17 -17z"/>
<path d="M2514 2221 c-19 -11 -44 -45 -68 -90 -34 -65 -35 -71 -17 -71 11 0
33 14 50 31 17 17 36 27 41 24 17 -11 2 -58 -61 -199 -76 -165 -76 -196 -2
-196 41 0 47 9 107 171 34 90 59 139 88 172 37 44 43 47 88 47 51 0 60 8 60
59 0 39 -26 71 -59 71 -30 0 -68 -35 -93 -84 l-15 -29 -7 41 c-6 41 -35 72
-66 72 -8 0 -29 -8 -46 -19z"/>
<path d="M3791 2208 c-157 -95 -245 -417 -132 -478 28 -14 87 -12 120 4 46 24
141 139 141 171 0 16 -50 1 -71 -21 -29 -31 -71 -54 -98 -54 -38 0 -65 73 -45
124 4 10 55 32 134 57 140 44 140 44 140 126 0 59 -31 93 -90 100 -38 4 -53
-1 -99 -29z m67 -70 c7 -7 12 -22 12 -35 0 -17 -8 -24 -37 -32 -107 -28 -105
-28 -72 25 31 51 71 68 97 42z"/>
<path d="M4117 2210 c-19 -16 -48 -56 -66 -90 l-32 -60 24 0 c13 0 36 13 52
30 15 16 32 27 37 24 18 -11 5 -52 -59 -195 -59 -132 -65 -152 -55 -175 11
-22 17 -25 54 -22 l42 3 56 146 c39 103 66 159 94 192 37 45 40 47 92 47 l54
0 0 49 c0 109 -89 111 -145 3 l-24 -47 -1 36 c0 45 -33 89 -65 89 -14 0 -39
-13 -58 -30z"/>
<path d="M4485 2209 c-41 -36 -44 -50 -12 -64 17 -8 23 -20 25 -52 3 -34 -9
-69 -57 -178 -34 -74 -61 -143 -61 -153 0 -27 20 -42 57 -42 42 0 50 13 108
170 37 102 52 131 83 158 54 49 142 90 142 67 0 -3 -38 -79 -85 -169 -47 -89
-85 -172 -85 -182 0 -29 20 -44 58 -44 66 0 144 56 183 132 l19 38 -23 0 c-13
0 -36 -13 -52 -30 -16 -16 -30 -28 -32 -26 -2 2 26 65 62 141 72 153 82 208
45 245 -41 41 -98 23 -186 -62 l-64 -61 0 45 c0 54 -29 98 -65 98 -14 0 -40
-14 -60 -31z"/>
<path d="M5085 2221 c-54 -25 -135 -114 -135 -148 0 -24 36 -13 70 22 19 19
37 35 41 35 4 0 -18 -64 -48 -142 -83 -215 -89 -234 -73 -252 26 -33 96 -17
154 35 31 27 76 94 76 114 0 15 -37 1 -67 -26 -19 -16 -37 -28 -39 -26 -3 2
27 82 66 176 38 95 70 178 70 186 0 21 -29 45 -53 45 -12 0 -40 -9 -62 -19z"/>
<path d="M5799 2221 c-136 -74 -243 -337 -184 -451 45 -87 172 -59 255 57 22
31 40 62 40 70 0 25 -46 13 -80 -22 -37 -38 -91 -55 -114 -35 -19 15 -29 63
-21 99 6 26 15 31 135 70 143 46 145 48 143 135 -1 78 -94 120 -174 77z m51
-85 c6 -8 10 -25 8 -37 -2 -19 -14 -25 -62 -36 -33 -7 -61 -11 -64 -8 -3 2 3
16 12 30 41 63 80 81 106 51z"/>
</g>
</svg>
