<?xml version="1.0" encoding="utf-8"?>
<!-- Generator: Adobe Illustrator 22.1.0, SVG Export Plug-In . SVG Version: 6.00 Build 0)  -->
<svg version="1.1" id="Calque_1" xmlns="http://www.w3.org/2000/svg" xmlns:xlink="http://www.w3.org/1999/xlink" x="0px" y="0px"
	 viewBox="0 0 141 65" style="enable-background:new 0 0 141 65;" xml:space="preserve">
<style type="text/css">
	.st0{fill:#7C7C7C;}
	.st1{fill:#EA204A;}
	.st2{fill:url(#Path-2_1_);}
</style>
<title>logo</title>
<desc>Created with Sketch.</desc>
<g id="Page-1">
	<g id="slider-4" transform="translate(-60.000000, -22.000000)">
		<g id="menu" transform="translate(60.000000, 22.000000)">
			<g id="logo">
				<path id="Shape" class="st0" d="M141,59.1h-1l-1.3,2.6l-1.3-2.6h-1l1.8,3.5v2.4h0.9v-2.4L141,59.1z M135.7,59.1h-4.3v0.8h1.7
					v5.1h0.9v-5.1h1.7L135.7,59.1z M130.1,59.1h-0.9v5.9h0.9V59.1z M125.5,59.9c0.6,0,1,0.3,1,0.9s-0.4,0.9-1,0.9h-1.4v-1.8H125.5z
					 M123.2,59.1v5.9h0.9v-2.5h1.2l1.3,2.5h1.1l-1.4-2.6c0.7-0.2,1.3-0.8,1.2-1.6c0-1-0.7-1.7-1.9-1.7L123.2,59.1z M119.3,59.8
					c0.3,0,0.7,0.1,0.9,0.4c0.3,0.3,0.4,0.7,0.4,1.8c0,1.2-0.1,1.5-0.4,1.8c-0.2,0.2-0.6,0.4-0.9,0.4c-0.3,0-0.7-0.1-0.9-0.4
					c-0.3-0.3-0.4-0.7-0.4-1.8s0.1-1.5,0.4-1.8C118.7,59.9,119,59.8,119.3,59.8L119.3,59.8z M119.3,59c-0.6,0-1.2,0.2-1.6,0.6
					c-0.6,0.6-0.6,1.2-0.6,2.4c0,1.2,0,1.8,0.6,2.4c0.9,0.8,2.3,0.8,3.2,0c0.6-0.6,0.6-1.2,0.6-2.4c0-1.2,0-1.8-0.6-2.4
					C120.5,59.2,119.9,59,119.3,59L119.3,59z M115.5,59.1h-0.9v2.5H112v-2.5h-0.9v5.9h0.9v-2.6h2.5v2.6h0.9L115.5,59.1z M109.8,59.1
					h-4.3v0.8h1.7v5.1h0.9v-5.1h1.7V59.1z M104.2,59.1h-0.9v3.9c0,0.8-0.5,1.3-1.3,1.3s-1.3-0.5-1.3-1.3v-3.9h-0.9V63
					c0,1.2,0.9,2,2.2,2s2.2-0.8,2.2-2L104.2,59.1z M96.1,60.4l1,2.6h-1.9L96.1,60.4z M96.5,59.1h-0.8l-2.3,5.9h1l0.4-1.2h2.4
					l0.4,1.2h1L96.5,59.1z M90.7,59.1h-4.3v0.8h1.7v5.1H89v-5.1h1.7L90.7,59.1z M85,59.1h-0.9v4.1l-2.8-4.1h-0.9v5.9h0.9v-4.1
					l2.8,4.1H85L85,59.1z M78.9,59.1h-3.9v5.9h3.9v-0.8h-3v-1.8h2.6v-0.8h-2.6v-1.7h3V59.1z M73,59.1h-0.9l-1.8,3.7l-1.8-3.7h-0.9
					v5.9h0.9V61l1.5,2.9h0.7l1.4-2.9v3.9H73L73,59.1z M66.3,59.1H62v0.8h1.7v5.1h0.9v-5.1h1.7L66.3,59.1z M58.9,59
					c-1.3,0-2.1,0.7-2.1,1.7c0,0.4,0.1,0.8,0.5,1.1c0.3,0.3,0.7,0.4,1.2,0.5l0.7,0.1c0.2,0,0.5,0.1,0.7,0.2c0.2,0.2,0.3,0.4,0.2,0.6
					c0,0.6-0.5,0.9-1.3,0.9c-0.6,0-1.2-0.2-1.6-0.6l-0.6,0.6c0.6,0.6,1.3,0.8,2.2,0.8c1.3,0,2.2-0.6,2.2-1.7c0-0.5-0.2-0.9-0.5-1.2
					c-0.3-0.3-0.7-0.4-1.1-0.4l-0.7-0.1c-0.2,0-0.5-0.1-0.7-0.3c-0.2-0.1-0.2-0.3-0.2-0.5c0-0.5,0.4-0.9,1.1-0.9
					c0.5,0,1,0.1,1.4,0.4l0.6-0.6C60.3,59.2,59.6,59,58.9,59L58.9,59z M55.7,59.1h-3.9v5.9h3.9v-0.8h-3v-1.8h2.6v-0.8h-2.6v-1.7h3
					V59.1z M47.9,64.9h0.7l2-5.9h-1l-1.4,4.3l-1.4-4.3h-1L47.9,64.9z M44.7,59.1h-0.9v4.1l-2.8-4.1h-0.9v5.9H41v-4.1l2.8,4.1h0.9
					V59.1z M38.2,59.1h-0.9v5.9h0.9V59.1z M31.1,60.4l1,2.6h-1.9L31.1,60.4z M31.5,59.1h-0.8l-2.3,5.9h1l0.4-1.2h2.4l0.4,1.2h1
					L31.5,59.1z M27.4,59.1h-0.9v5.9h0.9V59.1z M22.8,59c-1.3,0-2.1,0.7-2.1,1.7c0,0.4,0.1,0.8,0.5,1.1c0.3,0.3,0.7,0.4,1.2,0.5
					l0.7,0.1c0.2,0,0.5,0.1,0.7,0.2c0.2,0.2,0.3,0.4,0.2,0.6c0,0.6-0.5,0.9-1.3,0.9c-0.6,0-1.2-0.2-1.6-0.6l-0.6,0.6
					c0.6,0.6,1.3,0.8,2.2,0.8c1.3,0,2.2-0.6,2.2-1.7c0-0.5-0.2-0.9-0.5-1.2c-0.3-0.3-0.7-0.4-1.1-0.4l-0.7-0.1
					c-0.2,0-0.5-0.1-0.7-0.3c-0.2-0.1-0.2-0.3-0.2-0.5c0-0.5,0.4-0.9,1.1-0.9c0.5,0,1,0.1,1.4,0.4l0.6-0.6
					C24.2,59.2,23.5,59,22.8,59L22.8,59z M19.2,59.1h-0.9v5.9h0.9V59.1z M16.4,59.1h-0.9v4.1l-2.8-4.1h-0.9v5.9h0.9v-4.1l2.8,4.1
					h0.9V59.1z M9.9,59.1H9v3.9c0,0.8-0.5,1.3-1.3,1.3s-1.3-0.5-1.3-1.3v-3.8H5.5V63c0,1.2,0.9,2,2.2,2s2.2-0.8,2.2-2L9.9,59.1z
					 M4.3,59.1H0v0.8h1.7v5.1h0.9v-5.1h1.7L4.3,59.1z"/>
				<path id="Shape_1_" class="st0" d="M140,43.5h-0.9v8.4h0.9V43.5z M135.8,43.5V51h-1.4c-0.3,0-0.5,0.2-0.5,0.5s0.2,0.5,0.5,0.5
					h2.3v-8.4H135.8z M131,55c0.5,0,1-0.2,1.4-0.6c0.2-0.2,0.3-0.4,0.3-0.6c0.1-0.2,0.1-0.5,0.1-0.7c0-0.4-0.1-0.8-0.3-1.1h1.9V51
					h-1.9c0-0.1,0.1-0.1,0.1-0.2c0-0.1,0-0.1,0.1-0.2c0.1-0.4,0.2-0.8,0.2-1.2c0-0.4-0.1-0.8-0.3-1.2c-0.3-0.5-0.8-0.8-1.3-0.8
					c-0.4,0-0.7,0.1-1,0.3c-0.4,0.2-0.6,0.5-0.9,0.9c-0.4,0.7-0.7,1.5-0.7,2.3h-1c-0.1,0-0.2,0-0.3,0.1c-0.1,0.1-0.1,0.2-0.1,0.3
					c0,0.3,0.2,0.5,0.5,0.5h1c0,0.4,0.1,0.8,0.2,1.2c0.1,0.4,0.3,0.7,0.5,1c0.2,0.3,0.4,0.5,0.7,0.7C130.3,54.9,130.6,55,131,55
					L131,55z M129.5,51.9h1.3c0.3,0,0.6,0.1,0.9,0.3c0.2,0.2,0.3,0.5,0.3,0.8c0,0.3-0.1,0.5-0.2,0.7c-0.1,0.2-0.4,0.3-0.6,0.3
					c-0.2,0-0.5-0.1-0.7-0.2c-0.2-0.1-0.3-0.3-0.5-0.5c-0.1-0.2-0.2-0.4-0.3-0.7C129.5,52.5,129.5,52.2,129.5,51.9L129.5,51.9z
					 M131.2,48.3c0.2,0,0.5,0.1,0.6,0.3c0.1,0.2,0.2,0.5,0.1,0.7c0,0.3,0,0.6-0.1,1c-0.1,0.2-0.2,0.5-0.3,0.7h-1.9
					c0-0.3,0.1-0.7,0.2-1c0.1-0.3,0.2-0.6,0.4-0.8c0.1-0.2,0.3-0.4,0.5-0.6C130.7,48.4,131,48.3,131.2,48.3L131.2,48.3z M125.6,52.8
					l-0.7,0.7l0.8,0.8l0.7-0.7L125.6,52.8z M123.8,52.8l-0.7,0.7l0.8,0.8l0.7-0.7L123.8,52.8z M122.4,51.4c0,0.3,0.2,0.5,0.5,0.5
					h4.7V51h-1.9v-4.1h-0.9v4h-1.9C122.6,51,122.4,51.2,122.4,51.4L122.4,51.4z M121.1,44.4l0.2-0.4c-0.2-0.1-0.3-0.2-0.5-0.2
					c-0.2-0.1-0.3-0.1-0.5-0.1c-0.2,0-0.4,0.1-0.6,0.2c-0.1,0.1-0.2,0.3-0.2,0.5c0,0.3,0.2,0.6,0.4,0.8h-0.5v0.6h1.9v-0.6h-0.5
					c-0.2-0.1-0.4-0.2-0.5-0.3c-0.1-0.1-0.2-0.2-0.2-0.4c0-0.2,0.1-0.2,0.3-0.2c0.1,0,0.2,0,0.3,0.1C121,44.3,121,44.3,121.1,44.4
					L121.1,44.4z M117.7,51.4c0,0.3,0.2,0.5,0.5,0.5h4.7V51H121v-4h-0.9v4h-1.9C118,51,117.8,51.2,117.7,51.4L117.7,51.4z
					 M114.6,51.4c0,0.3,0.2,0.5,0.5,0.5h3.1V51h-3.1C114.8,51,114.6,51.2,114.6,51.4L114.6,51.4z M113.2,44.3l-0.7,0.7l0.8,0.8
					L114,45L113.2,44.3z M111.3,44.3l-0.7,0.7l0.8,0.8l0.7-0.7L111.3,44.3z M110,50c0-0.3,0.1-0.5,0.2-0.7c0.1-0.3,0.3-0.5,0.5-0.7
					c0.3-0.2,0.6-0.4,0.9-0.5c0.4-0.1,0.8-0.2,1.2-0.2h0.2V51h-1.9c-0.3,0-0.6-0.1-0.8-0.3C110,50.5,110,50.2,110,50L110,50z
					 M109,50c0,0.2,0,0.5,0.1,0.7c0.1,0.2,0.2,0.4,0.4,0.6c0.2,0.2,0.4,0.3,0.6,0.4c0.3,0.1,0.6,0.2,0.9,0.1h4V51h-1.2v-4.1h-1.1
					c-1,0-2,0.4-2.7,1.1c-0.3,0.3-0.5,0.6-0.7,1C109.1,49.3,109,49.6,109,50L109,50z M104.4,43.5h-0.9v8.4h0.9V43.5z M100.1,43.5V51
					h-1.4c-0.3,0-0.5,0.2-0.5,0.5c0,0.3,0.2,0.5,0.5,0.5h2.3v-8.4L100.1,43.5z M96.9,44.2l-0.7,0.7l0.8,0.8l0.7-0.7L96.9,44.2z
					 M95.1,44.2l-0.7,0.7l0.8,0.8l0.7-0.7L95.1,44.2z M93.6,51.4c0,0.3,0.2,0.5,0.5,0.5h4.7V51h-1.9v-4h-0.9v4h-1.9
					C93.8,51,93.6,51.2,93.6,51.4L93.6,51.4z M92.1,51h-2.2c-0.2,0-0.3-0.1-0.4-0.2c-0.1-0.1-0.2-0.3-0.2-0.4v-0.8
					c0-0.6,0.1-1,0.4-1.3c0.3-0.3,0.6-0.4,1-0.4c0.5,0,0.9,0.1,1.3,0.4V51z M92.1,51.9V52c0,0.2,0,0.5-0.1,0.7
					c-0.1,0.2-0.2,0.3-0.3,0.4c-0.1,0.1-0.3,0.2-0.5,0.2c-0.2,0-0.4,0.1-0.6,0.1c-0.3,0-0.6,0-1-0.1c-0.3-0.1-0.6-0.2-0.9-0.2
					c0,0,0,0-0.1,0.1c0,0.1-0.1,0.2-0.1,0.3l-0.1,0.4c0.4,0.1,0.8,0.2,1.2,0.3c0.4,0.1,0.7,0.1,1.1,0.1c0.3,0,0.6,0,0.9-0.1
					c0.3-0.1,0.5-0.2,0.7-0.4c0.2-0.2,0.4-0.4,0.5-0.7c0.1-0.4,0.2-0.7,0.2-1.1v-0.2h1.1v-0.9H93v-3.3c-0.3-0.2-0.7-0.4-1.1-0.6
					c-0.4-0.1-0.8-0.2-1.1-0.2c-0.3,0-0.6,0.1-0.9,0.2c-0.3,0.1-0.5,0.3-0.8,0.5c-0.2,0.2-0.4,0.5-0.5,0.8c-0.1,0.4-0.2,0.8-0.2,1.2
					v0.8c0,0.4,0.2,0.8,0.5,1.1c0.3,0.3,0.7,0.5,1.1,0.5L92.1,51.9z M85.4,44.2l-0.7,0.7l0.8,0.8l0.7-0.7L85.4,44.2z M85.2,46.9v4
					h-2c-0.3,0-0.5,0.2-0.5,0.5c0,0.3,0.2,0.5,0.5,0.5h3v-5L85.2,46.9z M74,50.9h-1.7c-0.3,0-0.5,0.2-0.5,0.5c0,0.3,0.2,0.5,0.5,0.5
					h10.9v-0.9h-1.7v-4h-0.9v4h-2.3v-4h-0.9v4h-2.3v-4H74L74,50.9z M70.4,52.8l-0.7,0.7l0.8,0.8l0.7-0.7L70.4,52.8z M68.5,52.8
					l-0.7,0.7l0.8,0.8l0.7-0.7L68.5,52.8z M67.2,51.4c0,0.1,0,0.2,0.1,0.3s0.2,0.1,0.3,0.1h4.7v-0.9h-1.9v-4h-0.9v4h-1.9
					C67.4,51,67.2,51.2,67.2,51.4L67.2,51.4z M64,51.4c0,0.3,0.2,0.5,0.5,0.5h3.1V51h-3.1C64.2,51,64,51.2,64,51.4L64,51.4z
					 M60.9,51.4c0,0.3,0.2,0.5,0.5,0.5h3.1V51h-3.1C61.1,51,60.9,51.2,60.9,51.4L60.9,51.4z M59.5,44.3l-0.7,0.7l0.8,0.8l0.7-0.7
					L59.5,44.3z M57.6,44.3L57,44.9l0.8,0.8l0.7-0.7L57.6,44.3z M56.3,50c0-0.3,0.1-0.5,0.2-0.7c0.1-0.3,0.3-0.5,0.5-0.7
					c0.3-0.2,0.6-0.4,0.9-0.5c0.4-0.1,0.8-0.2,1.2-0.2h0.2v3.1h-1.9c-0.3,0-0.6-0.1-0.8-0.3C56.3,50.5,56.2,50.2,56.3,50L56.3,50z
					 M55.3,50c0,0.2,0,0.5,0.1,0.7c0.1,0.2,0.2,0.4,0.4,0.6c0.2,0.2,0.4,0.3,0.6,0.4c0.3,0.1,0.6,0.2,0.9,0.1h4V51h-1.2v-4h-1.1
					c-1,0-2,0.4-2.7,1.1c-0.3,0.3-0.5,0.6-0.7,1C55.4,49.3,55.3,49.6,55.3,50L55.3,50z M49.9,43.5V51h-1.4c-0.3,0-0.5,0.2-0.5,0.5
					s0.2,0.5,0.5,0.5h2.3v-8.4H49.9z M43.2,44.3h-0.9L43,51h0.9L43.2,44.3z M46.1,43.5v7.6c0,0.2,0,0.4-0.1,0.6
					c-0.1,0.2-0.2,0.3-0.3,0.4c-0.2,0.1-0.3,0.2-0.5,0.2c-0.2,0-0.4,0.1-0.6,0.1c-0.3,0-0.5,0-0.8-0.1c-0.2,0-0.4-0.1-0.7-0.2
					L42.9,53c0.3,0.1,0.6,0.2,0.9,0.2c0.3,0.1,0.6,0.1,0.9,0.1c0.5,0,1-0.1,1.4-0.3c0.4-0.2,0.7-0.6,0.8-1.1h1.5V51h-1.4v-7.5H46.1z
					 M32.7,51H31c-0.3,0-0.5,0.2-0.5,0.5s0.2,0.5,0.5,0.5h7.9c0.7,0,1.2-0.6,1.2-1.2v-3.7h-0.9v3.7c0,0.2-0.1,0.3-0.3,0.3h-2v-4H36
					v4h-2.4v-4h-0.9V51z M29.2,44.3l-0.7,0.7l0.8,0.8l0.7-0.7L29.2,44.3z M27.3,44.3l-0.7,0.7l0.8,0.8l0.7-0.7L27.3,44.3z
					 M25.9,51.4c0,0.3,0.2,0.5,0.5,0.5H31V51h-1.9v-4h-0.9v4h-1.9C26.1,51,25.9,51.2,25.9,51.4L25.9,51.4z M24.5,44.6l-0.7,0.7
					l0.8,0.8l0.7-0.7L24.5,44.6z M22.6,44.6L22,45.2l0.8,0.8l0.7-0.7L22.6,44.6z M23.5,43l-0.7,0.7l0.8,0.8l0.7-0.7L23.5,43z
					 M21.2,51.4c0,0.3,0.2,0.5,0.5,0.5h4.7V51h-1.9v-4h-0.9v4h-1.9C21.4,51,21.2,51.2,21.2,51.4L21.2,51.4z M16.8,51v-1
					c0-0.4,0.1-0.8,0.4-1c0.6-0.4,1.4-0.4,2,0c0.3,0.3,0.5,0.6,0.4,1v1c0,0.3-0.1,0.7-0.4,0.9c-0.6,0.4-1.4,0.4-2,0
					C17,51.6,16.8,51.3,16.8,51L16.8,51z M14.3,51.4c0,0.3,0.2,0.5,0.5,0.5h1.3c0.2,0.4,0.5,0.7,0.9,0.9c0.4,0.2,0.8,0.3,1.3,0.3
					c0.4,0,0.9-0.1,1.3-0.3c0.4-0.2,0.7-0.5,0.9-0.9h1.3V51h-1.1v-1c0-0.4-0.1-0.7-0.2-1c-0.1-0.3-0.3-0.5-0.5-0.7
					c-0.2-0.2-0.5-0.3-0.7-0.4c-0.6-0.2-1.2-0.2-1.8,0c-0.3,0.1-0.5,0.2-0.7,0.4c-0.2,0.2-0.4,0.4-0.5,0.7c-0.1,0.3-0.2,0.7-0.2,1v1
					h-1.1C14.5,51,14.3,51.2,14.3,51.4L14.3,51.4z M11.2,51.4c0,0.3,0.2,0.5,0.5,0.5h3.1V51h-3.1C11.4,51,11.2,51.2,11.2,51.4
					L11.2,51.4z M8.1,51.4c0,0.3,0.2,0.5,0.5,0.5h3.1V51H8.6C8.3,51,8.1,51.2,8.1,51.4L8.1,51.4z M7.2,43.5H6.3v8.4h2.3V51H7.2
					L7.2,43.5z M3,46.9V52c0,0.5-0.1,0.9-0.3,1.1c-0.3,0.2-0.6,0.3-0.9,0.3c-0.5,0-0.9-0.1-1.4-0.3c0,0,0,0-0.1,0.1
					s-0.1,0.2-0.1,0.3c0,0.1-0.1,0.2-0.2,0.4c0.6,0.2,1.2,0.4,1.8,0.4c0.6,0,1.1-0.2,1.5-0.6c0.4-0.4,0.5-1,0.5-1.8v-5.1H3z"/>
				<path id="Shape_2_" class="st1" d="M94.7,20L94.7,20L94.7,20L94.7,20L84.1,0L67,35c25.9-8.5,42.4-18.3,50-23.5v-1.1
					C109.8,14.2,102.3,17.3,94.7,20L94.7,20z M89.5,21.7c-6.7,2-10.7,2.7-10.7,2.7l5.3-13.5L89.5,21.7L89.5,21.7z"/>
				<polygon id="Shape_3_" class="st1" points="52.9,9 40,35 46.1,35 59,9 				"/>
				<polygon id="Shape_4_" class="st1" points="78,1 71.8,1 69,7 75.2,7 				"/>
				<polygon id="Shape_5_" class="st1" points="54.9,7 60.9,7 60.9,7 66.2,7 69,1 51.8,1 49,7 54.9,7 				"/>
				<path id="Shape_6_" class="st1" d="M94,28.6c0,0,1,3.4,1,3.4h5l-2.1-6C97.9,26,97.3,26.6,94,28.6z"/>
				<polygon id="Shape_7_" class="st1" points="67.8,9 55,35 61.2,35 74,9 				"/>
				
					<linearGradient id="Path-2_1_" gradientUnits="userSpaceOnUse" x1="-208.5823" y1="383.6076" x2="-208.2194" y2="382.6876" gradientTransform="matrix(9 0 0 -8 1967 3083)">
					<stop  offset="0" style="stop-color:#000000;stop-opacity:0"/>
					<stop  offset="1" style="stop-color:#000000;stop-opacity:0.5132"/>
				</linearGradient>
				<path id="Path-2" class="st2" d="M90.3,22c3.2-0.9,5-1.4,5.7-1.7c-1-1.6-2.2-3.7-3.8-6.3L87,15.8L90.3,22z"/>
			</g>
		</g>
	</g>
</g>
</svg>
