<?xml version="1.0" encoding="UTF-8"?>
<svg version="1.1" xmlns="http://www.w3.org/2000/svg" width="1814" height="1300">
<path d="M0 0 C0.33 0.99 0.66 1.98 1 3 C-0.69579847 5.31383633 -2.39732466 7.37977987 -4.3125 9.5 C-5.13584839 10.43549683 -5.13584839 10.43549683 -5.97583008 11.38989258 C-10.1393572 16.10253564 -14.39483116 20.73237945 -18.64453125 25.3671875 C-21.74611321 28.83396401 -24.66424119 32.43221391 -27.5859375 36.05078125 C-30.33861767 39.4136834 -33.1617832 42.70932678 -36 46 C-39.53619203 50.10222621 -43.02863667 54.2280229 -46.4375 58.4375 C-51.59451086 64.78602239 -56.9794436 70.93093216 -62.34912109 77.09912109 C-69.25089085 85.04605682 -76.06687286 93.06677899 -82.8581543 101.1081543 C-87.70405806 106.84191018 -92.5932129 112.53831897 -97.48388672 118.23388672 C-99.99100985 121.15442275 -102.49537328 124.07732311 -105 127 C-105.99998659 128.16667816 -106.9999866 129.33334482 -108 130.5 C-108.495 131.0775 -108.99 131.655 -109.5 132.25 C-111 134 -112.5 135.75 -114 137.5 C-114.49491943 138.07741943 -114.98983887 138.65483887 -115.49975586 139.24975586 C-116.50051606 140.41728228 -117.50132992 141.5847627 -118.50219727 142.75219727 C-120.99100676 145.65533629 -123.47890091 148.55924949 -125.96484375 151.46484375 C-131.66489769 158.12490677 -137.38758284 164.76448934 -143.13549805 171.38330078 C-146.86066608 175.67586374 -150.55990235 179.98978046 -154.25 184.3125 C-157.67440949 188.32347501 -161.13726728 192.28655105 -164.6875 196.1875 C-167.69814479 199.5008308 -170.56565178 202.88941929 -173.375 206.375 C-177.05701535 210.92940923 -180.92900357 215.23747565 -184.91577148 219.52124023 C-187.8868675 222.73263407 -190.69946588 226.02609763 -193.4375 229.4375 C-197.28174639 234.21701922 -201.37089045 238.69320344 -205.56054688 243.16601562 C-208.65765465 246.49137277 -211.59614376 249.88710807 -214.4375 253.4375 C-219.01914402 259.14577779 -223.98802436 264.44296038 -228.9921875 269.77734375 C-231.8422557 272.81794331 -234.60488811 275.92348424 -237.328125 279.078125 C-239.35758073 281.41105074 -241.427647 283.70511245 -243.5 286 C-246.77072923 289.62432158 -250.0016922 293.27883178 -253.20703125 296.9609375 C-255.17841043 299.20289813 -257.18162691 301.41385803 -259.1875 303.625 C-262.88040359 307.71492224 -266.48493808 311.87204228 -270.0625 316.0625 C-276.18922374 323.23640321 -282.32616794 330.32616794 -289 337 C-293.31666383 341.62269597 -297.53980818 346.24592346 -301.25 351.375 C-303.52640033 354.50583004 -305.93779571 356.6099869 -309 359 C-310.67381002 360.80500054 -312.2632739 362.67224432 -313.86328125 364.54296875 C-316.43496283 367.5001675 -319.08594311 370.37615817 -321.75 373.25 C-322.2641748 373.80598877 -322.77834961 374.36197754 -323.30810547 374.93481445 C-325.359986 377.15284819 -327.41309944 379.36969021 -329.47216797 381.58105469 C-334.38755795 386.86060979 -339.1885754 392.16573334 -343.6875 397.8125 C-346.87934746 401.78381823 -350.18984698 405.0812465 -354.1015625 408.328125 C-356.74410114 410.65529895 -358.94446212 413.28072515 -361.21484375 415.96484375 C-363.07477327 418.0852448 -365.03795907 420.03692521 -367.0625 422 C-369.66074045 424.54837019 -371.89193464 427.0974975 -374 430.0625 C-376.6140542 433.68958876 -379.57921655 436.42112873 -382.9921875 439.2890625 C-389.6824599 444.99011174 -395.67852393 451.64056266 -401 458.625 C-403.2110325 461.2506011 -405.64387422 463.27867265 -408.27734375 465.46484375 C-410.23970979 467.13758253 -410.23970979 467.13758253 -412.5 470 C-414.46009567 472.3521148 -416.17704148 474.07755157 -418.5 476 C-420.79926074 477.903689 -422.50354059 479.60683097 -424.4375 481.9375 C-426.9762716 484.97164167 -429.6200189 487.38298666 -432.6171875 489.94140625 C-435.5223471 492.45127364 -438.35761823 495.03090546 -441.1875 497.625 C-441.68644775 498.08028076 -442.18539551 498.53556152 -442.69946289 499.00463867 C-444.98869349 501.10433696 -447.23306283 503.23306283 -449.4296875 505.4296875 C-452.53010563 508.53010563 -455.72592475 511.5155523 -458.9375 514.5 C-459.91178955 515.40770142 -459.91178955 515.40770142 -460.90576172 516.33374023 C-464.23844392 519.43723508 -467.57633639 522.53505193 -470.91796875 525.62890625 C-471.85298218 526.49515625 -471.85298218 526.49515625 -472.80688477 527.37890625 C-473.9848587 528.46972246 -475.16367963 529.559625 -476.34350586 530.6484375 C-478.83404848 532.95393008 -481.27913837 535.27913837 -483.6796875 537.6796875 C-485.5676752 539.5676752 -487.47027916 541.33262428 -489.5 543.0625 C-492.6102358 545.75100891 -495.63847429 548.51132395 -498.64282227 551.31640625 C-504.02719668 556.34255719 -509.51642885 561.11948051 -515.265625 565.73046875 C-518.21418199 568.17777106 -521.01724768 570.75685985 -523.8125 573.375 C-529.64757488 578.81386609 -535.8402827 583.69203637 -542.15283203 588.56005859 C-544.73343452 590.57174158 -547.2746459 592.63072383 -549.81835938 594.6887207 C-567.52451134 609 -567.52451134 609 -571 609 C-571 609.66 -571 610.32 -571 611 C-576.66516464 614.14483549 -582.35927263 617.23052671 -588.125 620.1875 C-589.03507812 620.65542969 -589.94515625 621.12335937 -590.8828125 621.60546875 C-598.05772603 624.81529849 -604.42401898 626.56408123 -612.3125 626.5 C-613.13919189 626.49427979 -613.96588379 626.48855957 -614.81762695 626.48266602 C-624.74173232 626.19513706 -633.08982909 622.96636232 -640.26171875 615.97265625 C-650.84908234 603.95778297 -653.44637238 586.48207984 -655 571 C-655.11085938 569.90558594 -655.22171875 568.81117188 -655.3359375 567.68359375 C-659.11802998 521.94071853 -652.17277128 475.71179767 -643 431 C-642.80108154 430.03006104 -642.60216309 429.06012207 -642.3972168 428.06079102 C-629.11646686 363.45939203 -629.11646686 363.45939203 -621.53045654 333.12225342 C-620.88618133 330.54463365 -620.27101897 327.96067982 -619.65576172 325.37597656 C-581.81477604 166.68612196 -581.81477604 166.68612196 -564 133 C-562.91153102 136.28787856 -563.10694245 138.26716066 -564.08203125 141.56640625 C-564.34935059 142.50331299 -564.61666992 143.44021973 -564.89208984 144.40551758 C-565.1958252 145.44732178 -565.49956055 146.48912598 -565.8125 147.5625 C-585.83821766 219.29649067 -602.19476145 296.71565236 -602.25 371.4375 C-602.25067474 372.26638733 -602.25134949 373.09527466 -602.25204468 373.94927979 C-602.20595015 411.52742704 -602.20595015 411.52742704 -585.8984375 444.34375 C-577.8781423 451.95062792 -569.00041099 454.38607444 -558.0625 454.20703125 C-520.75135206 451.6847215 -484.99166122 430.29511676 -454 411 C-452.69579102 410.19224121 -452.69579102 410.19224121 -451.36523438 409.36816406 C-408.76419091 382.9085602 -368.62178188 352.18311055 -329.80859375 320.4765625 C-328.2076452 319.16952459 -326.60402024 317.86576644 -325 316.5625 C-319.5594239 312.1341241 -314.18544004 307.63414335 -308.84179688 303.08984375 C-305.36719731 300.1399459 -301.85524306 297.2431728 -298.3125 294.375 C-293.85808887 290.74931653 -289.57051399 286.97570347 -285.32421875 283.109375 C-283.27957665 281.25373343 -281.21215851 279.43243624 -279.125 277.625 C-274.1971554 273.32918357 -269.39629105 268.89523649 -264.58984375 264.46484375 C-263.04058621 263.03739515 -261.48924282 261.61224596 -259.9375 260.1875 C-253.63206059 254.39105987 -247.36808934 248.55102903 -241.125 242.6875 C-240.07276245 241.70100464 -240.07276245 241.70100464 -238.99926758 240.69458008 C-235.12617955 237.04983529 -231.3201907 233.35464418 -227.59350586 229.56005859 C-225.93564081 227.93699169 -224.21080914 226.43285702 -222.4375 224.9375 C-217.80263588 220.95314313 -213.54794721 216.60276504 -209.27514648 212.23803711 C-206.31004672 209.22897863 -203.29682316 206.34958974 -200.09375 203.59375 C-195.67227996 199.77714387 -191.59076771 195.66528078 -187.5 191.5 C-183.52286005 187.4504167 -179.57230118 183.43362608 -175.25 179.75 C-169.3480365 174.67210613 -163.96763658 169.0353972 -158.5 163.5 C-156.32597227 161.29902946 -154.14840934 159.10164212 -151.96875 156.90625 C-151.48829224 156.4174939 -151.00783447 155.92873779 -150.51281738 155.4251709 C-147.90317285 152.79734378 -145.22487702 150.31178178 -142.40834045 147.90635681 C-137.52717049 143.64949845 -132.96308676 139.10327053 -128.39038086 134.51977539 C-127.46411392 133.59526077 -126.53784698 132.67074615 -125.58351135 131.71821594 C-123.0647388 129.2039655 -120.54909548 126.68660652 -118.03417659 124.16850209 C-115.38843138 121.5202061 -112.74022548 118.87437244 -110.09242249 116.22813416 C-105.64827668 111.78580215 -101.20623077 107.34137858 -96.76538086 102.89575195 C-91.64808715 97.77301715 -86.52720125 92.65389447 -81.4044351 87.5366326 C-76.98791276 83.12466391 -72.57336171 78.71072989 -68.16042048 74.29517931 C-65.53277558 71.665984 -62.90448029 69.03744841 -60.2743969 66.41069221 C-57.34012331 63.47987222 -54.40999406 60.54494166 -51.48022461 57.60961914 C-50.620289 56.75170776 -49.76035339 55.89379639 -48.87435913 55.0098877 C-44.56443917 50.68488593 -40.40149753 46.2946886 -36.43294621 41.65325069 C-34.55902298 39.49122615 -32.55284056 37.49156174 -30.5 35.5 C-26.45216331 31.49305055 -22.68267224 27.34214473 -19 23 C-18.14277344 21.99710937 -17.28554688 20.99421875 -16.40234375 19.9609375 C-10.81173376 13.40311411 -5.33347098 6.76999324 0 0 Z " fill="#1E386A" transform="translate(1033,243)"/>
<path d="M0 0 C-1.64441413 4.25730572 -4.83516428 7.07026559 -8.03125 10.19140625 C-8.62296997 10.77792465 -9.21468994 11.36444305 -9.82434082 11.96873474 C-11.71153039 13.83814675 -13.60527682 15.70072644 -15.5 17.5625 C-17.39384292 19.42869733 -19.28619832 21.29634278 -21.17565918 23.16697693 C-22.3503945 24.32948626 -23.52779312 25.48931186 -24.70812988 26.64613342 C-27.09426677 29.00308492 -29.13260319 31.19890479 -31 34 C-31.66 34 -32.32 34 -33 34 C-33 34.66 -33 35.32 -33 36 C-33.66 36 -34.32 36 -35 36 C-35.66 37.32 -36.32 38.64 -37 40 C-37.66 40 -38.32 40 -39 40 C-39.66 41.32 -40.32 42.64 -41 44 C-41.66 44 -42.32 44 -43 44 C-43.26857409 44.5936136 -43.53714819 45.18722719 -43.81386089 45.79882908 C-45.00732364 48.01359081 -46.20378398 49.45046547 -47.97822571 51.21873474 C-48.58798248 51.83124084 -49.19773926 52.44374695 -49.82597351 53.07481384 C-50.49353165 53.73518143 -51.16108978 54.39554901 -51.84887695 55.07592773 C-52.55314819 55.78049103 -53.25741943 56.48505432 -53.98303223 57.21096802 C-56.31340613 59.53994828 -58.65078834 61.86176039 -60.98828125 64.18359375 C-62.61055897 65.80213952 -64.23239434 67.42112878 -65.85380554 69.0405426 C-70.12677498 73.30587383 -74.40571135 77.56517015 -78.68591309 81.82324219 C-83.03051678 86.14745247 -87.36953043 90.47726355 -91.70898438 94.80664062 C-98.72469927 101.80477056 -105.74385141 108.79943062 -112.7674408 115.78965759 C-119.22015619 122.19929618 -119.22015619 122.19929618 -125.60546875 128.67578125 C-126.45753906 129.54589844 -127.30960938 130.41601562 -128.1875 131.3125 C-129.04730469 132.19550781 -129.90710938 133.07851563 -130.79296875 133.98828125 C-133 136 -133 136 -135 136 C-135.26989746 136.60038086 -135.53979492 137.20076172 -135.81787109 137.81933594 C-136.99990582 139.99982627 -138.08323758 141.24556907 -139.9140625 142.890625 C-140.50243896 143.42743896 -141.09081543 143.96425293 -141.69702148 144.51733398 C-142.33325439 145.08911377 -142.9694873 145.66089355 -143.625 146.25 C-150.05651504 152.12887418 -156.26616543 158.18491251 -162.36767578 164.40527344 C-166.16425459 168.25218381 -170.08127641 171.86930336 -174.17602539 175.39672852 C-176.56033815 177.49253656 -178.77058019 179.74124572 -181 182 C-183.48519765 184.32859615 -186.01537084 186.60783601 -188.5390625 188.89453125 C-191.78272033 191.84709158 -194.90020875 194.89521714 -198 198 C-201.29530903 201.04265075 -204.65088312 204.01679574 -208 207 C-208.77730469 207.70511719 -209.55460938 208.41023437 -210.35546875 209.13671875 C-211.06316406 209.77222656 -211.77085937 210.40773438 -212.5 211.0625 C-213.44359375 211.91521484 -213.44359375 211.91521484 -214.40625 212.78515625 C-216 214 -216 214 -218 214 C-218 214.66 -218 215.32 -218 216 C-219.67535459 217.51984883 -221.41705622 218.96706453 -223.1875 220.375 C-224.15042969 221.14585937 -225.11335937 221.91671875 -226.10546875 222.7109375 C-227.95988915 224.1774562 -229.81646653 225.641254 -231.67578125 227.1015625 C-233.58312122 228.65949061 -235.27087054 230.25661947 -237 232 C-238.23473085 232.99835219 -239.48680524 233.97541562 -240.75 234.9375 C-245.19187897 238.36451258 -249.60513907 241.82550011 -254 245.3125 C-254.6712793 245.84029053 -255.34255859 246.36808105 -256.03417969 246.91186523 C-256.66227539 247.41145752 -257.29037109 247.9110498 -257.9375 248.42578125 C-258.50339844 248.87348877 -259.06929687 249.32119629 -259.65234375 249.7824707 C-261.14116459 250.97909188 -261.14116459 250.97909188 -262 253 C-263.6511124 254.02547823 -265.32051183 255.02168651 -267 256 C-268.58990684 257.13458141 -270.16382382 258.2918387 -271.72265625 259.46875 C-272.59083984 260.12230469 -273.45902344 260.77585937 -274.35351562 261.44921875 C-275.24748047 262.12597656 -276.14144531 262.80273438 -277.0625 263.5 C-277.96033203 264.17675781 -278.85816406 264.85351562 -279.78320312 265.55078125 C-281.45273444 266.8094465 -283.12152196 268.06909942 -284.78930664 269.33007812 C-285.88359985 270.15668945 -285.88359985 270.15668945 -287 271 C-287.7108374 271.54462891 -288.4216748 272.08925781 -289.15405273 272.65039062 C-291.02621582 274.01916692 -292.93083989 274.96541994 -295 276 C-295.66 276.66 -296.32 277.32 -297 278 C-308.11819134 284.61928804 -317.82603601 289.26041857 -331 288 C-335.39656039 286.49283099 -339.20596383 283.69211923 -342 280 C-346.71043014 269.28046972 -347.30470518 258.65447789 -346.4375 247.125 C-346.34307617 245.816521 -346.24865234 244.50804199 -346.15136719 243.15991211 C-345.45600593 234.21992876 -344.30724331 225.39706496 -342.75 216.5625 C-342.57009521 215.53721191 -342.39019043 214.51192383 -342.20483398 213.45556641 C-338.70250905 194.99189522 -333.24628281 176.86569688 -327.875 158.875 C-327.58708588 157.90863617 -327.29917175 156.94227234 -327.00253296 155.94662476 C-321.73206897 138.31149 -316.15673769 120.77708144 -310.45236969 103.27841949 C-309.82564413 101.3528837 -309.20183227 99.42642725 -308.57879639 97.49969482 C-304.134069 83.7902429 -299.4486768 70.21366556 -294.19921875 56.79296875 C-293.75447708 55.65434891 -293.30973541 54.51572906 -292.85151672 53.34260559 C-290.21493577 46.71739447 -287.31087423 40.31578887 -284 34 C-282.64806114 38.05581659 -283.96582767 40.82822093 -285.24609375 44.734375 C-285.75512959 46.3412006 -286.26407763 47.94805402 -286.77294922 49.55493164 C-287.044599 50.40153351 -287.31624878 51.24813538 -287.59613037 52.12039185 C-296.52503163 80.02668981 -303.82567647 108.14950241 -309 137 C-309.14695312 137.80920898 -309.29390625 138.61841797 -309.4453125 139.45214844 C-310.97186184 148.19326741 -311.21009257 156.89564631 -311.3125 165.75 C-311.33038574 166.78036377 -311.34827148 167.81072754 -311.36669922 168.87231445 C-311.35629615 178.15408484 -310.44719484 188.81598289 -304 196 C-294.87276685 201.51437003 -286.0184917 200.38288045 -276.04101562 197.96459961 C-230.76645342 186.31531291 -188.99947114 154.63996052 -152 127 C-151.42765625 126.57251465 -150.8553125 126.1450293 -150.265625 125.70458984 C-142.24923099 119.68527063 -134.47558088 113.37047041 -126.71484375 107.02734375 C-123.78902204 104.63710118 -120.83988076 102.27922027 -117.875 99.9375 C-113.23093598 96.23785908 -108.73955135 92.37118276 -104.24389648 88.49414062 C-99.81173898 84.67744357 -95.30896307 80.958235 -90.76953125 77.26953125 C-86.01433157 73.37281614 -81.33765538 69.38362557 -76.65283203 65.40283203 C-75.02971933 64.02522412 -73.4040696 62.65068243 -71.77734375 61.27734375 C-65.00826515 55.56217065 -58.26708217 49.81552608 -51.546875 44.04296875 C-49.16616839 41.99832321 -46.78047191 39.95973474 -44.390625 37.92578125 C-37.97838891 32.46244108 -31.65921946 26.92763113 -25.44921875 21.234375 C-22.68387659 18.71160671 -19.87095269 16.24944955 -17.046875 13.79296875 C-9.98825443 7.72497601 -9.98825443 7.72497601 -3.33203125 1.234375 C-2 0 -2 0 0 0 Z " fill="#16A0DA" transform="translate(831,336)"/>
<path d="M0 0 C7.59 0 15.18 0 23 0 C26.86857962 12.11309355 30.35200509 24.29316849 33.6875 36.5625 C34.41734155 39.23632787 35.14799731 41.90993205 35.87886047 44.58348083 C36.3282017 46.22833734 36.77681061 47.87339415 37.22453308 49.51869202 C37.42847183 50.26735031 37.63241058 51.01600861 37.8425293 51.78735352 C38.01842087 52.43414566 38.19431244 53.08093781 38.37553406 53.74732971 C39.23197718 56.836824 40.11891714 59.9174462 41 63 C41.70939536 65.5223228 42.41729549 68.04501878 43.12304688 70.56835938 C43.42590355 71.65030327 43.42590355 71.65030327 43.73487854 72.75410461 C44.16981676 74.30799575 44.60466935 75.86191086 45.03944397 77.41584778 C45.72887647 79.87994292 46.41854652 82.34397147 47.10827637 84.8079834 C48.82059814 90.92532046 50.5325152 97.04277075 52.2444458 103.16021729 C53.69356042 108.338452 55.14282926 113.51664351 56.59230042 118.69477844 C57.2693281 121.11365557 57.94613102 123.53259551 58.6229248 125.95153809 C59.04092317 127.4449087 59.45893206 128.93827636 59.87695312 130.43164062 C60.06298599 131.09678177 60.24901886 131.76192291 60.44068909 132.44721985 C61.61338016 136.63546914 62.80389957 140.81838436 64 145 C64.71930098 147.53836778 65.43773961 150.07696251 66.15478516 152.6159668 C66.46246071 153.70513901 66.46246071 153.70513901 66.77635193 154.8163147 C68.64792539 161.44436787 70.51415078 168.07392352 72.37844276 174.70402813 C73.62870994 179.14992162 74.88096369 183.59523574 76.13769531 188.03930664 C77.35703641 192.3514017 78.57131647 196.6648921 79.7820549 200.97941017 C80.24354717 202.62056942 80.70685614 204.26121893 81.17201614 205.90134239 C81.82085319 208.19030475 82.4631868 210.48099836 83.10400391 212.7722168 C83.29722733 213.44814377 83.49045074 214.12407074 83.68952942 214.82048035 C84.5886572 218.06116432 85 220.59467131 85 224 C76.75 224 68.5 224 60 224 C56.81536972 212.76012843 53.82561315 201.49999502 51.05615234 190.15039062 C50.12109273 186.34457821 49.19875631 182.59109682 47.94921875 178.875 C46.6357379 174.89672056 45.83466852 170.85161327 45 166.75 C44.835 165.95464844 44.67 165.15929687 44.5 164.33984375 C43.30590725 158.56528583 42.15645851 152.78229255 41 147 C21.53 147.33 2.06 147.66 -18 148 C-18.495 151.96 -18.495 151.96 -19 156 C-19.35076963 157.71707889 -19.73213103 159.42845856 -20.15625 161.12890625 C-20.37410156 162.01900391 -20.59195312 162.90910156 -20.81640625 163.82617188 C-21.04199219 164.72916016 -21.26757812 165.63214844 -21.5 166.5625 C-23.2708761 173.64980896 -23.2708761 173.64980896 -24.53125 180.83984375 C-25 184 -25 184 -25.89404297 186.18847656 C-27.30072798 189.76449966 -28.22628978 193.42556349 -29.1640625 197.14453125 C-29.45946426 198.2992115 -29.45946426 198.2992115 -29.76083374 199.47721863 C-30.38538879 201.92151763 -31.00525888 204.36697652 -31.625 206.8125 C-32.04916981 208.47599037 -32.47364567 210.13940273 -32.8984375 211.80273438 C-33.93641254 215.86746084 -34.96803654 219.93372424 -36 224 C-44.25 224 -52.5 224 -61 224 C-59.1875 216.3125 -59.1875 216.3125 -58.58691406 213.77075195 C-57.28079557 208.23228308 -56.02463038 202.68402459 -54.80859375 197.125 C-54.17530585 194.67751055 -53.46018699 192.36277746 -52.63891602 189.97802734 C-50.8929775 184.77700745 -49.41800949 179.51671965 -47.96875 174.2265625 C-47.69156128 173.22217133 -47.41437256 172.21778015 -47.12878418 171.18295288 C-46.25027866 167.99758192 -45.37509921 164.81130823 -44.5 161.625 C-43.91297697 159.49473198 -43.32573923 157.36452312 -42.73828125 155.234375 C-37.90026862 137.73974603 -37.90026862 137.73974603 -33.203125 120.20703125 C-30.11763156 108.51513331 -27.01006113 96.84166824 -23.5625 85.25 C-20.46204886 74.81950305 -17.67705551 64.31823814 -14.92230225 53.79269409 C-12.21280094 43.45055377 -9.36620135 33.16352871 -6.32788086 22.91210938 C-4.07473801 15.30817151 -1.99863859 7.6747722 0 0 Z M11 31 C9.58956848 36.56729192 8.18387752 42.13575177 6.7824707 47.70532227 C6.3055665 49.59789936 5.82739287 51.49015707 5.34790039 53.38208008 C4.65693513 56.10934795 3.9706184 58.83775074 3.28515625 61.56640625 C3.07157974 62.40522842 2.85800323 63.2440506 2.63795471 64.10829163 C1.75133627 67.65376155 0.98754142 71.08937167 0.48217773 74.71459961 C-0.00500856 78.0341267 -0.91077794 80.83095845 -2 84 C-2.92040578 87.39031531 -3.75848671 90.80067949 -4.6015625 94.2109375 C-4.92290161 95.49931519 -4.92290161 95.49931519 -5.25073242 96.8137207 C-6.04474305 100.00017001 -6.83463133 103.18764539 -7.625 106.375 C-9.39875 113.51125 -11.1725 120.6475 -13 128 C3.17 128 19.34 128 36 128 C33.03324005 114.48368812 33.03324005 114.48368812 29.83349609 101.02758789 C29.55946205 99.91896645 29.55946205 99.91896645 29.27989197 98.78794861 C28.69681673 96.43224532 28.11044317 94.07738296 27.5234375 91.72265625 C27.10793271 90.05163769 26.69245684 88.38061195 26.27700806 86.70957947 C25.41652286 83.25135213 24.55405847 79.79362517 23.69042969 76.33618164 C22.58423443 71.90594733 21.48572106 67.47384443 20.38889122 63.04128361 C19.53841369 59.60971068 18.6826806 56.17946453 17.82545853 52.74957085 C17.4176582 51.1141686 17.01179387 49.47828232 16.6079216 47.84190559 C16.04672297 45.57034364 15.47816615 43.30074737 14.90771484 41.03149414 C14.74352554 40.35990265 14.57933624 39.68831116 14.41017151 38.99636841 C13.6101911 35.84624811 12.82870911 33.74306366 11 31 Z " fill="#1E386A" transform="translate(1074,645)"/>
<path d="M0 0 C93.55172414 0 93.55172414 0 111.125 15.92578125 C124.46393443 29.74471522 125.59141974 46.41756739 125.3125 64.57421875 C124.89384665 76.56689276 121.54410164 86.89898665 115 97 C114.64615234 97.55671387 114.29230469 98.11342773 113.92773438 98.68701172 C110.96746384 103.12142021 107.76065529 106.12722566 103.375 109.125 C102.76543457 109.55022949 102.15586914 109.97545898 101.52783203 110.41357422 C95.27234547 114.67148302 88.73100854 119 81 119 C80.67 119.66 80.34 120.32 80 121 C61.15508014 123.51265598 42.01169231 123 23 123 C23 156.33 23 189.66 23 224 C15.41 224 7.82 224 0 224 C0 150.08 0 76.16 0 0 Z M23 20 C23 47.39 23 74.78 23 103 C59.71855338 105.1972173 59.71855338 105.1972173 91.18359375 89.99609375 C99.54005219 80.8129749 102.69620133 69.03164419 102.28515625 56.75390625 C101.19250808 46.20161912 98.10495554 36.51502748 90.1875 29.1875 C80.25878437 21.17029411 69.67244042 19.66581839 57.1796875 19.8046875 C56.30513916 19.80670166 55.43059082 19.80871582 54.52954102 19.81079102 C51.31130612 19.82113185 48.09314691 19.84905276 44.875 19.875 C34.046875 19.936875 34.046875 19.936875 23 20 Z " fill="#1E386A" transform="translate(901,645)"/>
<path d="M0 0 C34.98 0 69.96 0 106 0 C106 6.6 106 13.2 106 20 C78.61 20 51.22 20 23 20 C23 47.39 23 74.78 23 103 C48.74 103 74.48 103 101 103 C101 109.27 101 115.54 101 122 C75.26 122 49.52 122 23 122 C23 155.66 23 189.32 23 224 C15.41 224 7.82 224 0 224 C0 150.08 0 76.16 0 0 Z " fill="#1D386A" transform="translate(703,645)"/>
<path d="M0 0 C7.59 0 15.18 0 23 0 C23 73.92 23 147.84 23 224 C15.41 224 7.82 224 0 224 C0 150.08 0 76.16 0 0 Z " fill="#1D386A" transform="translate(837,645)"/>
<path d="M0 0 C4.29 0 8.58 0 13 0 C20.86350036 14.73786701 28.39429669 29.6330801 35.85308838 44.57922363 C37.05482949 46.98532279 38.2595514 49.38992416 39.46424484 51.79454613 C40.93125064 54.7240293 42.39516858 57.6550544 43.859375 60.5859375 C44.38762878 61.64042084 44.91588257 62.69490417 45.46014404 63.78134155 C49.12369009 71.1311737 52.55472709 78.53524203 56 86 C56 57.62 56 29.24 56 0 C59.96 0 63.92 0 68 0 C68 36.3 68 72.6 68 110 C63.38 110 58.76 110 54 110 C53.34 108.35 52.68 106.7 52 105 C50.42166988 101.53273222 48.76432569 98.1030165 47.1171875 94.66796875 C46.6320871 93.655103 46.14698669 92.64223724 45.64718628 91.59867859 C39.79001252 79.41826615 33.69714261 67.35653177 27.59960938 55.29516602 C26.10707145 52.34050613 24.61967346 49.38330106 23.1328125 46.42578125 C22.46863815 45.11762199 22.46863815 45.11762199 21.79104614 43.78303528 C18.52103409 37.26903259 15.82285925 30.7748622 13 24 C12.67 52.38 12.34 80.76 12 110 C8.04 110 4.08 110 0 110 C0 73.7 0 37.4 0 0 Z " fill="#1E386A" transform="translate(876,944)"/>
<path d="M0 0 C4.29 0 8.58 0 13 0 C16.98454979 7.94621403 20.96723091 15.89335779 24.94691181 23.84201145 C26.79628132 27.53560282 28.6463672 31.22883115 30.49829102 34.92114258 C32.29622819 38.5058911 34.09202201 42.09170672 35.88652611 45.67817497 C36.56052486 47.02437017 37.23520791 48.37022306 37.91069984 49.71566963 C44.11062582 62.06686494 50.03510301 74.52794265 56 87 C56 58.29 56 29.58 56 0 C59.63 0 63.26 0 67 0 C67 36.3 67 72.6 67 110 C62.71 110 58.42 110 54 110 C53.443125 108.8140625 52.88625 107.628125 52.3125 106.40625 C47.65375252 96.51168343 42.89533195 86.67905537 37.96630859 76.91650391 C36.0622411 73.14011941 34.17533285 69.35512571 32.28759766 65.57055664 C30.20558395 61.39998835 28.10913627 57.23702839 26.00390625 53.078125 C25.2135498 51.51094727 25.2135498 51.51094727 24.40722656 49.91210938 C23.37474752 47.86485455 22.33914102 45.81917273 21.29980469 43.77539062 C17.87539495 36.97213881 14.84126482 30.06611563 12 23 C12.00580078 24.19512207 12.01160156 25.39024414 12.01757812 26.62158203 C12.07101477 43.29854224 11.81024942 59.96818529 11.53643799 76.64215088 C11.47482519 80.4176634 11.41524598 84.19320805 11.35546875 87.96875 C11.23891016 95.31253189 11.12019092 102.65627657 11 110 C7.37 110 3.74 110 0 110 C0 73.7 0 37.4 0 0 Z " fill="#1E386A" transform="translate(411,944)"/>
<path d="M0 0 C4.29 0 8.58 0 13 0 C15.94105985 5.8523843 18.8783113 11.70666767 21.8125 17.5625 C22.46517853 18.86494156 22.46517853 18.86494156 23.13104248 20.19369507 C28.66886875 31.2520587 34.12531282 42.33740873 39.40380859 53.5222168 C42.42663051 59.89408597 45.62963092 66.14950916 49.01025391 72.33911133 C51.63071607 77.16174297 53.74823257 81.93352329 56 87 C56 58.29 56 29.58 56 0 C59.63 0 63.26 0 67 0 C67 36.3 67 72.6 67 110 C62.71 110 58.42 110 54 110 C53.23816406 108.39253906 52.47632813 106.78507812 51.69140625 105.12890625 C46.36409144 93.93270672 40.95040266 82.82455341 35.08203125 71.90234375 C31.56453326 65.34737893 28.26201971 58.68503033 25 52 C24.62891113 51.23993652 24.25782227 50.47987305 23.87548828 49.69677734 C22.74208993 47.36421377 21.61911474 45.02694592 20.5 42.6875 C20.14929443 41.96369141 19.79858887 41.23988281 19.43725586 40.49414062 C17 35.34807179 17 35.34807179 17 32 C16.34 31.67 15.68 31.34 15 31 C13.94647157 28.69034152 12.94280904 26.3570226 12 24 C12.00580078 25.04639648 12.01160156 26.09279297 12.01757812 27.17089844 C12.07635011 43.43943477 11.79765594 59.70262712 11.53643799 75.96838379 C11.47496749 79.81744628 11.41530461 83.66653681 11.35546875 87.515625 C11.23870232 95.01044447 11.12000273 102.50523157 11 110 C7.37 110 3.74 110 0 110 C0 73.7 0 37.4 0 0 Z " fill="#DF0A1A" transform="translate(1160,944)"/>
<path d="M0 0 C4.29 0 8.58 0 13 0 C13.00586624 1.01540359 13.01173248 2.03080719 13.01777649 3.07698059 C13.07518676 12.68334847 13.14804283 22.28949395 13.23571491 31.89563465 C13.28029141 36.83331965 13.31957508 41.77092456 13.34643555 46.70874023 C13.37259605 51.481076 13.41308713 56.2531014 13.46318626 61.02524376 C13.47976924 62.83869226 13.49133654 64.65219433 13.49761391 66.46570778 C13.53408494 76.04043282 13.6381145 84.88668543 17 94 C17.66 94 18.32 94 19 94 C19.598125 94.61875 20.19625 95.2375 20.8125 95.875 C24.53521848 99.4913551 27.80334224 100.13576041 32.875 100.3125 C38.83651016 100.17077019 42.96711271 98.52466547 47.75 94.9375 C54.6895859 85.87748507 53.47385772 73.92050673 53.51171875 63.0859375 C53.52858829 61.2617575 53.54674155 59.43758895 53.56611633 57.61343384 C53.61337558 52.84274885 53.64334005 48.07211036 53.66955566 43.30126953 C53.69948342 38.42080508 53.74597144 33.54050045 53.79101562 28.66015625 C53.87677442 19.10685486 53.9442409 9.55352033 54 0 C57.96 0 61.92 0 66 0 C66.09292214 11.30099689 66.16387754 22.60190199 66.20724869 33.90320396 C66.22807091 39.15159024 66.25629017 44.39971399 66.30175781 49.64794922 C66.34540735 54.71839584 66.36917741 59.78859087 66.37950897 64.85921097 C66.38686615 66.7880003 66.40123264 68.71677679 66.42292023 70.64545822 C66.54800059 82.23604365 66.39802188 91.2736136 59.875 101.25 C50.09943156 110.60054372 39.35389509 112.24247009 26.30371094 112.18896484 C21.05325589 111.75828954 17.0721571 109.13817612 13 106 C12.24589844 105.47921875 11.49179688 104.9584375 10.71484375 104.421875 C10.14894531 103.95265625 9.58304688 103.4834375 9 103 C9 102.34 9 101.68 9 101 C8.34 101 7.68 101 7 101 C6.18913171 99.5732432 5.40263346 98.13263964 4.625 96.6875 C4.18414063 95.88699219 3.74328125 95.08648438 3.2890625 94.26171875 C-0.86624006 83.7475441 -0.26439334 72.52960821 -0.1953125 61.42578125 C-0.19157513 59.64788473 -0.18873159 57.86998612 -0.18673706 56.09208679 C-0.17915756 51.4479081 -0.15955892 46.80385759 -0.1373291 42.159729 C-0.1167472 37.40663384 -0.10770913 32.65351765 -0.09765625 27.90039062 C-0.07630682 18.60020457 -0.0422408 9.30011301 0 0 Z " fill="#DF0A1A" transform="translate(1075,944)"/>
<path d="M0 0 C4.29 0 8.58 0 13 0 C16.85210949 11.45641786 20.65980089 22.91761754 24.21777344 34.46923828 C25.1837696 37.59455544 26.15837259 40.71714905 27.1328125 43.83984375 C30.65421643 55.13596671 34.16861669 66.43122787 37.46875 77.79443359 C38.61842019 81.74237673 39.84570121 85.64877059 41.17578125 89.5390625 C42.38809365 93.15876303 43.53934976 96.79701386 44.6875 100.4375 C44.914375 101.14914307 45.14125 101.86078613 45.375 102.59399414 C47 107.76745081 47 107.76745081 47 110 C42.05 110 37.1 110 32 110 C29.106035 99.43073652 29.106035 99.43073652 28.52514648 97.07104492 C28.01309902 95.05165924 27.44245206 93.06167351 26.84375 91.06640625 C26.51697266 89.9690918 26.51697266 89.9690918 26.18359375 88.84960938 C25.72893626 87.32845532 25.27321193 85.80761971 24.81640625 84.28710938 C24.59855469 83.55427734 24.38070313 82.82144531 24.15625 82.06640625 C23.95837891 81.40584229 23.76050781 80.74527832 23.55664062 80.06469727 C22.92894434 77.7364396 22.47291186 75.36455932 22 73 C11.77 72.67 1.54 72.34 -9 72 C-9.33 74.97 -9.66 77.94 -10 81 C-10.71875 83.70703125 -10.71875 83.70703125 -11.5 85.8125 C-12.23602797 87.83289677 -12.94952362 89.79780635 -13.47045898 91.88452148 C-13.97843143 93.91383511 -14.5638746 95.89539618 -15.19140625 97.890625 C-15.52495117 98.95410156 -15.52495117 98.95410156 -15.86523438 100.0390625 C-16.09533203 100.76867188 -16.32542969 101.49828125 -16.5625 102.25 C-16.79646484 102.99507812 -17.03042969 103.74015625 -17.27148438 104.5078125 C-17.84662313 106.33886649 -18.4231725 108.1694773 -19 110 C-23.62 110 -28.24 110 -33 110 C-32.52376003 105.42809627 -31.54111796 101.74627627 -29.88061523 97.43603516 C-28.07180998 92.4323593 -26.67101768 87.29492149 -25.1875 82.1875 C-22.7979923 74.03987764 -20.38724139 65.90369489 -17.8125 57.8125 C-17.56894775 57.04703857 -17.32539551 56.28157715 -17.07446289 55.49291992 C-16.60412829 54.01803365 -16.13320483 52.543335 -15.66162109 51.06884766 C-11.86521284 39.19771719 -8.28027163 27.27210252 -4.76611328 15.31445312 C-4.43724121 14.19748047 -4.10836914 13.08050781 -3.76953125 11.9296875 C-3.47667236 10.93179199 -3.18381348 9.93389648 -2.88208008 8.90576172 C-1.97575358 5.92012708 -0.98668343 2.96005029 0 0 Z M6 17 C4.87836641 21.05663197 3.7573723 25.11343995 2.63696289 29.17041016 C2.25595258 30.54969017 1.87476948 31.92892246 1.4934082 33.30810547 C0.94436626 35.29381911 0.39595181 37.27970515 -0.15234375 39.265625 C-0.48226318 40.45961914 -0.81218262 41.65361328 -1.15209961 42.88378906 C-1.79619614 45.25097828 -2.41810225 47.61711554 -3 50 C-4 54 -5 58 -6 62 C1.92 62 9.84 62 18 62 C19.15666049 58.53001852 18.78653952 57.5783755 17.6875 54.1875 C17.40261719 53.29160156 17.11773438 52.39570312 16.82421875 51.47265625 C16.22863126 49.68589378 15.61874002 47.90387756 15 46.125 C13.69056847 42.03302648 12.69689996 37.88101279 11.68359375 33.70703125 C11.01811019 30.93045058 11.01811019 30.93045058 10 28 C9.47110717 26.10639926 8.95102908 24.21032488 8.4375 22.3125 C8.16808594 21.31863281 7.89867187 20.32476563 7.62109375 19.30078125 C7.41613281 18.54152344 7.21117187 17.78226563 7 17 C6.67 17 6.34 17 6 17 Z " fill="#DC0B1C" transform="translate(1413,944)"/>
<path d="M0 0 C19.47 0 38.94 0 59 0 C59 3.63 59 7.26 59 11 C43.49 11 27.98 11 12 11 C12 23.21 12 35.42 12 48 C26.52 48 41.04 48 56 48 C56 51.3 56 54.6 56 58 C41.48 58 26.96 58 12 58 C12 71.86 12 85.72 12 100 C27.51 100 43.02 100 59 100 C59 103.3 59 106.6 59 110 C39.53 110 20.06 110 0 110 C0 73.7 0 37.4 0 0 Z " fill="#1D386A" transform="translate(579,944)"/>
<path d="M0 0 C1.86189384 2.98933821 1.17084864 6.14063895 0.81640625 9.5 C0.75517578 10.20189453 0.69394531 10.90378906 0.63085938 11.62695312 C0.47788001 13.3567967 0.30528023 15.08488497 0.12890625 16.8125 C-0.36609375 15.8225 -0.36609375 15.8225 -0.87109375 14.8125 C-2.8957263 14.16036708 -2.8957263 14.16036708 -4.87109375 13.8125 C-4.87109375 13.1525 -4.87109375 12.4925 -4.87109375 11.8125 C-6.85109375 11.1525 -8.83109375 10.4925 -10.87109375 9.8125 C-10.87109375 9.1525 -10.87109375 8.4925 -10.87109375 7.8125 C-16.15109375 6.8225 -21.43109375 5.8325 -26.87109375 4.8125 C-27.20109375 5.4725 -27.53109375 6.1325 -27.87109375 6.8125 C-28.92296875 6.93625 -28.92296875 6.93625 -29.99609375 7.0625 C-34.29698759 8.18447231 -37.00803448 10.44998813 -39.87109375 13.8125 C-42.24680081 18.0621146 -43.3196615 22.16038277 -42.49609375 27 C-40.48562797 32.64820346 -36.24652556 35.63223501 -30.99121094 38.2434082 C-27.66007878 39.68120673 -24.30863191 41.04359778 -20.93359375 42.375 C-0.67806662 50.46119858 -0.67806662 50.46119858 3.56640625 57.375 C4.03949219 58.11878906 4.51257812 58.86257813 5 59.62890625 C6.80742697 63.12493281 7.25448371 66.23165609 7.2265625 70.140625 C7.22172852 71.33945312 7.22172852 71.33945312 7.21679688 72.5625 C7.20422852 73.8 7.20422852 73.8 7.19140625 75.0625 C7.18689453 75.90296875 7.18238281 76.7434375 7.17773438 77.609375 C7.16598586 79.67711401 7.14805147 81.74481624 7.12890625 83.8125 C6.46890625 83.8125 5.80890625 83.8125 5.12890625 83.8125 C4.98453125 84.59625 4.84015625 85.38 4.69140625 86.1875 C4.12890625 88.8125 4.12890625 88.8125 3.12890625 90.8125 C2.46890625 90.8125 1.80890625 90.8125 1.12890625 90.8125 C0.88140625 91.56273437 0.63390625 92.31296875 0.37890625 93.0859375 C-2.05521004 98.39535367 -7.17367198 101.69632547 -12.4765625 103.890625 C-25.36106674 107.86708319 -38.28904432 107.72825277 -50.421875 101.50390625 C-52.59317113 100.31188831 -54.73522828 99.06689718 -56.87109375 97.8125 C-56.87109375 92.8625 -56.87109375 87.9125 -56.87109375 82.8125 C-52.84849111 84.42154106 -49.70024627 86.05973461 -46.05859375 88.3125 C-37.91859293 93.08319645 -31.25380598 94.85611141 -21.87109375 92.8125 C-15.22250289 90.5730968 -11.3232772 86.95970149 -7.7578125 80.9296875 C-5.7139497 76.04962743 -6.34926537 70.50844223 -7.87109375 65.5625 C-14.5971091 56.31422889 -27.02178879 52.18928073 -37.87109375 49.8125 C-37.87109375 49.1525 -37.87109375 48.4925 -37.87109375 47.8125 C-39.10859375 47.5340625 -39.10859375 47.5340625 -40.37109375 47.25 C-47.37274606 44.37432137 -52.06751885 39.55938465 -55.1796875 32.70703125 C-58.36793609 23.97086987 -56.50061739 16.06935759 -52.99609375 7.73046875 C-49.07029167 1.03752145 -41.32555207 -3.37343296 -34.1328125 -5.765625 C-22.2110003 -7.98938272 -10.32343682 -6.55182629 0 0 Z " fill="#DC0B1C" transform="translate(1333.87109375,949.1875)"/>
<path d="M0 0 C0.99 0.66 1.98 1.32 3 2 C3.22137393 4.62697064 3.28162025 7.00893964 3.1875 9.625 C3.16719727 10.68460938 3.16719727 10.68460938 3.14648438 11.765625 C3.1111104 13.51074128 3.05730221 15.25546608 3 17 C2.401875 16.690625 1.80375 16.38125 1.1875 16.0625 C-1.08956772 14.89790296 -1.08956772 14.89790296 -4 14 C-4 13.34 -4 12.68 -4 12 C-5.6630584 11.32438252 -7.33094605 10.66066719 -9 10 C-9.61617187 9.73574219 -10.23234375 9.47148438 -10.8671875 9.19921875 C-17.44077119 6.50072428 -22.41842469 6.24944359 -29.1875 8.6875 C-34.33285185 10.90492022 -36.65215776 13.43909975 -39.25 18.375 C-40.53470988 22.87148458 -40.40621345 26.57825294 -39.125 31.0625 C-33.30951527 39.10155242 -21.98815158 42.20441488 -13.03515625 45.56640625 C-4.19924729 49.01426443 3.34510517 53.46288519 8 62 C11.53879604 70.76273305 10.84413548 79.80088639 7.31640625 88.4296875 C2.76483696 97.31672783 -4.96419336 102.9142538 -14.30078125 106.140625 C-18.305018 107.07085951 -22.09743784 107.38434871 -26.1875 107.375 C-26.9285498 107.37338867 -27.66959961 107.37177734 -28.43310547 107.37011719 C-37.92711704 107.16073574 -46.03950971 104.06576655 -54 99 C-54 94.05 -54 89.1 -54 84 C-50.16731702 85.53307319 -47.9794617 86.60238565 -44.8125 88.9375 C-37.86503629 93.63048873 -30.91517171 95.88494695 -22.51953125 94.62890625 C-16.23669104 93.06063141 -10.7156808 90.68927753 -6.9375 85.25 C-3.91527432 79.53896143 -3.27122143 74.4292619 -5.125 68.25 C-8.59539941 62.23464102 -12.55621871 59.39688428 -18.9375 56.8125 C-20.12214844 56.32394531 -21.30679688 55.83539062 -22.52734375 55.33203125 C-24.7006744 54.49839148 -26.89223138 53.70932336 -29.10546875 52.98828125 C-39.11610199 49.57034575 -47.35475509 43.80960908 -53 34.8125 C-54.93793944 27.42410589 -55.30752298 18.93699016 -52.1015625 11.8359375 C-41.02303761 -6.62827066 -18.12871014 -10.22645187 0 0 Z " fill="#1E386A" transform="translate(704,948)"/>
<path d="M0 0 C4.29 0 8.58 0 13 0 C15.18901523 5.62678142 17.01732489 11.25031915 18.62890625 17.06640625 C18.86407455 17.90413071 19.09924286 18.74185516 19.34153748 19.60496521 C20.08513533 22.25657231 20.82392842 24.90948903 21.5625 27.5625 C22.06152412 29.34579406 22.56087033 31.12899802 23.06054688 32.91210938 C23.97931079 36.19158002 24.89594763 39.47163103 25.81079102 42.75219727 C26.85912888 46.50573047 27.92740509 50.25331866 29 54 C29.57631256 56.03426335 30.15097732 58.0689883 30.7256012 60.10372925 C31.60411558 63.21209315 32.48620331 66.3194396 33.3684082 69.42675781 C33.83408829 71.06933251 34.2985921 72.71224111 34.76196289 74.35546875 C35.43328857 76.73525799 36.10879207 79.1138261 36.78515625 81.4921875 C36.99245865 82.23064911 37.19976105 82.96911072 37.41334534 83.72994995 C38.17803119 87.14212236 38.17803119 87.14212236 40 90 C40.23137161 89.13493332 40.46274323 88.26986664 40.7011261 87.37858582 C42.89262974 79.18504637 45.08439307 70.99157644 47.27644062 62.79818249 C48.40310327 58.58692821 49.52966912 54.3756481 50.65600586 50.16430664 C51.74507238 46.09233228 52.83440347 42.02042877 53.92391014 37.94857216 C54.33739635 36.40305359 54.75079077 34.85751045 55.1640873 33.31194115 C56.4400263 28.54056638 57.71921401 23.77007596 59 19 C59.29160004 17.90748932 59.58320007 16.81497864 59.88363647 15.68936157 C60.14399689 14.72106415 60.4043573 13.75276672 60.67260742 12.75512695 C60.89132004 11.93841019 61.11003265 11.12169342 61.33537292 10.28022766 C62.35873961 6.76922259 63.65328425 3.39885404 65 0 C69.29 0 73.58 0 78 0 C77.39433731 7.38318149 75.33605187 14.1286464 73.16796875 21.19140625 C72.77513682 22.48745382 72.38286661 23.78367176 71.99111938 25.08004761 C70.94622607 28.53189357 69.89331587 31.98124391 68.8386879 35.43012619 C67.75140859 38.99052087 66.67148857 42.55314689 65.59057617 46.11547852 C63.0708228 54.41351513 60.53749544 62.70737406 58 71 C57.64635376 72.15608765 57.29270752 73.31217529 56.92834473 74.5032959 C53.30567668 86.34176006 49.66642864 98.17501242 46 110 C41.71 110 37.42 110 33 110 C28.9673261 98.06849211 25.12396452 86.09427687 21.453125 74.046875 C20.95104361 72.40538997 20.44873979 70.76397296 19.94622803 69.12261963 C18.64311543 64.86453899 17.34252822 60.60569176 16.04266357 56.34661865 C13.94984899 49.49094675 11.85312854 42.63646854 9.75630951 35.78202057 C9.02985956 33.40593369 8.30454112 31.02950378 7.57940674 28.65301514 C7.13401691 27.19542712 6.68860393 25.73784617 6.24316406 24.28027344 C6.0447139 23.62881851 5.84626373 22.97736359 5.64179993 22.3061676 C4.48295743 18.51779121 3.26038097 14.75566898 2 11 C0.77741728 7.0605668 0 4.14456755 0 0 Z " fill="#1E386A" transform="translate(489,944)"/>
<path d="M0 0 C22.77 0 45.54 0 69 0 C69 3.63 69 7.26 69 11 C59.76 11 50.52 11 41 11 C41 43.67 41 76.34 41 110 C36.71 110 32.42 110 28 110 C28 77.33 28 44.66 28 11 C18.76 11 9.52 11 0 11 C0 7.37 0 3.74 0 0 Z " fill="#1D386A" transform="translate(720,944)"/>
<path d="M0 0 C22.77 0 45.54 0 69 0 C69 3.63 69 7.26 69 11 C59.76 11 50.52 11 41 11 C41 43.67 41 76.34 41 110 C36.71 110 32.42 110 28 110 C28 77.33 28 44.66 28 11 C18.76 11 9.52 11 0 11 C0 7.37 0 3.74 0 0 Z " fill="#E00A1A" transform="translate(996,944)"/>
<path d="M0 0 C4.29 0 8.58 0 13 0 C13 36.3 13 72.6 13 110 C8.71 110 4.42 110 0 110 C0 73.7 0 37.4 0 0 Z " fill="#1E386A" transform="translate(842,944)"/>
<path d="M0 0 C4.29 0 8.58 0 13 0 C13 36.3 13 72.6 13 110 C8.71 110 4.42 110 0 110 C0 73.7 0 37.4 0 0 Z " fill="#E00A1A" transform="translate(1357,944)"/>
<path d="M0 0 C3.96 0 7.92 0 12 0 C12 36.3 12 72.6 12 110 C8.04 110 4.08 110 0 110 C0 73.7 0 37.4 0 0 Z " fill="#1D386A" transform="translate(377,944)"/>
<path d="M0 0 C3.96 0 7.92 0 12 0 C12 36.3 12 72.6 12 110 C8.04 110 4.08 110 0 110 C0 73.7 0 37.4 0 0 Z " fill="#E10A1A" transform="translate(1249,944)"/>
<path d="M0 0 C0.33 0.99 0.66 1.98 1 3 C-0.69570566 5.3137097 -2.39739728 7.37990117 -4.3125 9.5 C-4.85559814 10.11713867 -5.39869629 10.73427734 -5.95825195 11.37011719 C-10.28558734 16.26841606 -14.69213595 21.09869841 -19.13671875 25.890625 C-21.03694704 27.85975474 -21.03694704 27.85975474 -22 30 C-22.99 29.67 -23.98 29.34 -25 29 C-24.59910156 28.62230469 -24.19820312 28.24460937 -23.78515625 27.85546875 C-18.37225231 22.61440303 -13.71189729 16.86838286 -9 11 C-7.3168919 8.93387074 -5.62704885 6.87337827 -3.9375 4.8125 C-3.18339844 3.89082031 -2.42929688 2.96914062 -1.65234375 2.01953125 C-1.10707031 1.35308594 -0.56179688 0.68664062 0 0 Z " fill="#233F70" transform="translate(1033,243)"/>
<path d="M0 0 C0.66 0.33 1.32 0.66 2 1 C0.38405168 3.04119788 -1.2856382 5.04072937 -3 7 C-3.66 7 -4.32 7 -5 7 C-5.2475 7.5775 -5.495 8.155 -5.75 8.75 C-7.16683317 11.3002997 -8.87627537 13.01785701 -11 15 C-11.66 14.67 -12.32 14.34 -13 14 C-11.02108364 11.85393535 -9.04187901 9.70813786 -7.0625 7.5625 C-6.49853516 6.95083984 -5.93457031 6.33917969 -5.35351562 5.70898438 C-4.81533203 5.12568359 -4.27714844 4.54238281 -3.72265625 3.94140625 C-3.22515869 3.40201416 -2.72766113 2.86262207 -2.21508789 2.30688477 C-1.48918929 1.52614632 -0.75381738 0.75381738 0 0 Z " fill="#256EA2" transform="translate(844,321)"/>
<path d="M0 0 C-1.39332574 3.36720387 -2.9789286 4.9859524 -6 7 C-6 4 -6 4 -4.125 1.8125 C-2 0 -2 0 0 0 Z " fill="#236B9F" transform="translate(831,336)"/>
<path d="" fill="#314C7C" transform="translate(0,0)"/>
<path d="" fill="#314C7C" transform="translate(0,0)"/>
</svg>
