<svg width="143" height="44" viewBox="0 0 143 44" fill="none" xmlns="http://www.w3.org/2000/svg">
<g clip-path="url(#clip0_2093_39)">
<path d="M14.4699 27.9586C13.7082 27.9586 13.3514 27.6287 13.3514 26.833V10.8427H9.10885C8.32783 10.8427 8 10.4837 8 9.72691V9.39702C8 8.60138 8.32783 8.27148 9.11849 8.27148H20.9398C21.7015 8.27148 22.0294 8.60138 22.0294 9.39702V9.72691C22.0294 10.4934 21.7015 10.8524 20.9398 10.8524H16.7744V26.8427C16.7744 27.6384 16.4176 27.9683 15.6559 27.9683H14.4699V27.9586Z" fill="#27348B"/>
<path d="M34.5931 25.2515C35.3548 25.2515 35.7116 25.5814 35.7116 26.377V26.8427C35.7116 27.6384 35.3548 27.9683 34.5931 27.9683H30.3023C25.8476 27.9683 23.7842 25.921 23.7842 21.545V9.39702C23.7842 8.60138 24.1409 8.27148 24.9027 8.27148H26.0983C26.86 8.27148 27.2168 8.60138 27.2168 9.39702V20.7396C27.2168 23.8834 28.5185 25.2515 31.7583 25.2515H34.5931Z" fill="#27348B"/>
<path d="M49.423 9.9114C49.3169 10.7555 49.047 10.9787 48.3913 10.8914C47.4946 10.7555 45.9422 10.5324 44.1294 10.5324C41.931 10.5324 40.3786 10.969 40.3786 13.0163C40.3786 17.305 49.9437 14.5785 49.9437 22.4766C49.9437 26.6003 47.1475 28.2207 42.5288 28.2207C40.6293 28.2207 39.1059 28.0266 37.7463 27.8423C36.9846 27.7646 36.7725 27.4056 36.7725 26.7167V26.2801C36.7725 25.5136 37.2064 25.271 37.9102 25.3195C38.672 25.4263 40.7933 25.6785 42.4999 25.6785C46.0579 25.6785 46.6268 24.0388 46.6268 22.6998C46.6268 17.5087 37.0907 19.915 37.0907 13.2977C37.0907 8.97992 40.3497 7.99023 44.1294 7.99023C45.624 7.99023 47.4464 8.15518 48.6709 8.42686C49.1916 8.53359 49.6255 8.69854 49.4905 9.46507L49.423 9.9114Z" fill="#27348B"/>
<path d="M62.112 14.365C62.0542 14.7434 61.977 14.8598 61.6492 14.8307C60.4536 14.6949 60.1257 14.6366 58.9301 14.6366C55.6421 14.6366 54.2536 16.7131 54.2536 20.4875V20.9532C54.2536 24.8052 55.7192 26.7749 59.0651 26.7749C60.2029 26.7749 61.0224 26.6682 61.7263 26.5517C62.0831 26.4935 62.1313 26.8525 62.1602 27.0466L62.2181 27.3765C62.2759 27.7549 62.1409 27.8713 61.7553 27.9198C60.5885 28.1139 59.5568 28.2206 58.7083 28.2206C54.1958 28.2206 52.3252 25.7076 52.3252 20.895V20.4875C52.3252 15.8107 54.2536 13.1909 58.5733 13.1909C59.904 13.1909 60.6078 13.2685 61.7263 13.4626C62.0542 13.5208 62.247 13.6275 62.1891 14.0351L62.112 14.365Z" fill="#EA5B0C"/>
<path d="M64.667 20.4681C64.667 15.8787 66.7883 13.2007 70.973 13.2007C75.1577 13.2007 77.279 15.8787 77.279 20.4681V20.9339C77.279 25.5039 75.1577 28.2304 70.973 28.2304C66.7883 28.2304 64.667 25.4942 64.667 20.9339V20.4681ZM75.3409 20.4681C75.3409 16.781 73.9042 14.6464 70.9633 14.6464C68.0032 14.6464 66.5858 16.781 66.5858 20.4681V20.9339C66.5858 24.5433 68.0032 26.7847 70.9633 26.7847C73.8946 26.7847 75.3409 24.5433 75.3409 20.9339V20.4681Z" fill="#EA5B0C"/>
<path d="M91.723 27.3571C91.723 27.7646 91.5302 27.9587 91.1541 27.9587H90.5274C90.1224 27.9587 89.9296 27.7646 89.9296 27.3571V18.4693C89.9296 16.2279 88.9268 14.724 86.4487 14.724C84.9831 14.724 83.0258 15.2479 82.3219 15.5972V27.3474C82.3219 27.7549 82.129 27.949 81.7241 27.949H81.0973C80.6924 27.949 80.4995 27.7549 80.4995 27.3474V15.1897C80.4995 14.7822 80.6924 14.5105 81.0684 14.3164C82.1869 13.7925 84.4624 13.1909 86.5837 13.1909C90.2285 13.1909 91.7134 15.1897 91.7134 18.2461V27.3571H91.723Z" fill="#EA5B0C"/>
<path d="M95.744 14.9182H94.7702C94.3652 14.9182 94.1724 14.7241 94.1724 14.3166V14.074C94.1724 13.6665 94.3652 13.4725 94.7702 13.4725H95.744V10.9497C95.744 10.5422 95.9369 10.3481 96.3419 10.3481H96.9686C97.3736 10.3481 97.5664 10.5422 97.5664 10.9497V13.4628H100.151C100.584 13.4628 100.748 13.6568 100.748 14.0643V14.3069C100.748 14.7144 100.584 14.9085 100.151 14.9085H97.5664V24.2329C97.5664 25.5719 98.0003 26.5034 99.437 26.5034C99.7938 26.5034 100.305 26.4452 100.825 26.3093C101.067 26.2802 101.23 26.5034 101.23 26.8818V27.1535C101.23 27.561 101.202 27.6774 100.768 27.726C100.247 27.8909 99.7648 27.9491 99.2442 27.9491C96.7468 27.9491 95.744 26.6877 95.744 24.2329V14.9182Z" fill="#EA5B0C"/>
<path d="M112.039 20.3322V17.4311C112.039 15.7622 111.219 14.6463 108.558 14.6463C107.141 14.6463 105.299 14.918 104.431 15.083C103.968 15.1606 103.911 15.0539 103.805 14.6172L103.747 14.3941C103.641 13.8992 103.824 13.7634 104.238 13.6858C105.405 13.4141 107.555 13.1909 108.963 13.1909C112.608 13.1909 113.852 14.6366 113.852 17.4311V26.7555C113.852 27.1921 113.775 27.328 113.254 27.4638C112.434 27.7937 110.728 28.2303 108.558 28.2303C105.193 28.2303 102.609 27.2698 102.609 24.0775V23.6991C102.609 21.0987 104.537 19.653 107.989 19.653C109.464 19.6433 110.737 19.8956 112.039 20.3322ZM104.547 23.9902C104.547 26.1248 106.042 26.9107 108.674 26.9107C110.332 26.9107 111.557 26.5809 112.039 26.3868V21.6324C111.499 21.3316 110.082 20.9241 108.423 20.9241C105.82 20.9241 104.537 21.9332 104.537 23.7961V23.9902H104.547Z" fill="#EA5B0C"/>
<path d="M126.879 14.365C126.821 14.7434 126.744 14.8598 126.416 14.8307C125.22 14.6949 124.892 14.6366 123.697 14.6366C120.409 14.6366 119.02 16.7131 119.02 20.4875V20.9532C119.02 24.8052 120.486 26.7749 123.832 26.7749C124.969 26.7749 125.789 26.6682 126.493 26.5517C126.85 26.4935 126.898 26.8525 126.927 27.0466L126.985 27.3765C127.043 27.7549 126.908 27.8713 126.522 27.9198C125.355 28.1139 124.323 28.2206 123.475 28.2206C118.962 28.2206 117.092 25.7076 117.092 20.895V20.4875C117.092 15.8107 119.02 13.1909 123.34 13.1909C124.671 13.1909 125.374 13.2685 126.493 13.4626C126.821 13.5208 127.014 13.6275 126.956 14.0351L126.879 14.365Z" fill="#EA5B0C"/>
<path d="M130.215 14.9182H129.241C128.836 14.9182 128.643 14.7241 128.643 14.3166V14.074C128.643 13.6665 128.836 13.4725 129.241 13.4725H130.215V10.9497C130.215 10.5422 130.408 10.3481 130.813 10.3481H131.439C131.844 10.3481 132.037 10.5422 132.037 10.9497V13.4628H134.621C135.055 13.4628 135.219 13.6568 135.219 14.0643V14.3069C135.219 14.7144 135.055 14.9085 134.621 14.9085H132.037V24.2329C132.037 25.5719 132.471 26.5034 133.908 26.5034C134.264 26.5034 134.775 26.4452 135.296 26.3093C135.537 26.2802 135.701 26.5034 135.701 26.8818V27.1535C135.701 27.561 135.672 27.6774 135.238 27.726C134.718 27.8909 134.236 27.9491 133.715 27.9491C131.218 27.9491 130.215 26.6877 130.215 24.2329V14.9182Z" fill="#EA5B0C"/>
<path d="M55.3819 38.6029L55.083 37.6132H53.5788L53.2799 38.6029H52.335L53.7909 34.4307H54.8612L56.3268 38.6029H55.3819ZM54.8709 36.8661L54.5719 35.8958C54.5527 35.8279 54.5237 35.7503 54.4948 35.6435C54.4659 35.5465 54.437 35.4398 54.3984 35.333C54.3695 35.2263 54.3405 35.139 54.3213 35.0613C54.302 35.139 54.273 35.236 54.2441 35.3524C54.2152 35.4689 54.1766 35.5756 54.1477 35.6823C54.1188 35.7891 54.0995 35.857 54.0802 35.8958L53.7813 36.8661H54.8709Z" fill="#27348B"/>
<path d="M59.9427 38.603H59.0653V35.1778H57.9468V34.4404H61.0612V35.1778H59.9427V38.603Z" fill="#27348B"/>
<path d="M62.9316 35.3623C63.3654 35.3623 63.7126 35.4884 63.9633 35.7407C64.214 35.993 64.349 36.352 64.349 36.808V37.2253H62.3144C62.3241 37.4678 62.3916 37.6619 62.5266 37.7977C62.6616 37.9336 62.8544 38.0112 63.0955 38.0112C63.298 38.0112 63.4812 37.9918 63.6451 37.953C63.809 37.9142 63.9825 37.8462 64.1657 37.7686V38.4381C64.0115 38.5157 63.8476 38.5739 63.674 38.6128C63.5004 38.6516 63.298 38.671 63.0569 38.671C62.7387 38.671 62.4591 38.6128 62.218 38.4963C61.977 38.3799 61.7841 38.1955 61.6491 37.9627C61.5142 37.7201 61.437 37.4193 61.437 37.0506C61.437 36.6819 61.4949 36.3714 61.6202 36.1288C61.7456 35.8766 61.9191 35.6922 62.1409 35.5661C62.3723 35.4205 62.6326 35.3623 62.9316 35.3623ZM62.9316 35.9833C62.758 35.9833 62.623 36.0415 62.5169 36.1482C62.4109 36.255 62.3434 36.4296 62.3241 36.6528H63.539C63.539 36.4587 63.4812 36.3035 63.3847 36.1773C63.2883 36.0415 63.134 35.9833 62.9316 35.9833Z" fill="#27348B"/>
<path d="M65.9114 38.6027H65.0532V34.1782H65.9114V38.6027Z" fill="#27348B"/>
<path d="M68.1098 35.3623C68.5437 35.3623 68.8908 35.4884 69.1415 35.7407C69.3922 35.993 69.5272 36.352 69.5272 36.808V37.2253H67.4927C67.5023 37.4678 67.5698 37.6619 67.7048 37.7977C67.8398 37.9336 68.0326 38.0112 68.2737 38.0112C68.4762 38.0112 68.6594 37.9918 68.8233 37.953C68.9872 37.9142 69.1608 37.8462 69.344 37.7686V38.4381C69.1897 38.5157 69.0258 38.5739 68.8522 38.6128C68.6787 38.6516 68.4762 38.671 68.2351 38.671C67.9169 38.671 67.6373 38.6128 67.3962 38.4963C67.1552 38.3799 66.9623 38.1955 66.8274 37.9627C66.6924 37.7201 66.6152 37.4193 66.6152 37.0506C66.6152 36.6819 66.6731 36.3714 66.7984 36.1288C66.9238 35.8766 67.0973 35.6922 67.3191 35.5661C67.5602 35.4205 67.8205 35.3623 68.1098 35.3623ZM68.1194 35.9833C67.9459 35.9833 67.8109 36.0415 67.7048 36.1482C67.5987 36.255 67.5312 36.4296 67.512 36.6528H68.7172C68.7172 36.4587 68.6594 36.3035 68.563 36.1773C68.4665 36.0415 68.3219 35.9833 68.1194 35.9833Z" fill="#27348B"/>
<path d="M71.9858 35.3623C72.3426 35.3623 72.6319 35.4981 72.844 35.7795C73.0658 36.0609 73.1718 36.4684 73.1718 37.0021C73.1718 37.5454 73.0561 37.953 72.8343 38.2343C72.6029 38.5157 72.3137 38.6516 71.9569 38.6516C71.7255 38.6516 71.5519 38.6128 71.4169 38.5254C71.282 38.4381 71.1759 38.3508 71.0891 38.2441H71.0409C71.0698 38.409 71.0891 38.5642 71.0891 38.7098V39.9906H70.231V35.4108H70.9348L71.0602 35.828H71.0988C71.1855 35.7019 71.3012 35.5855 71.4362 35.4981C71.5809 35.4108 71.7641 35.3623 71.9858 35.3623ZM71.7159 36.0512C71.4941 36.0512 71.3302 36.1191 71.2434 36.2647C71.147 36.4102 71.0988 36.6237 71.0988 36.9051V37.0021C71.0988 37.3126 71.147 37.5454 71.2337 37.7104C71.3205 37.8753 71.4844 37.953 71.7255 37.953C71.9183 37.953 72.063 37.8753 72.1594 37.7104C72.2558 37.5454 72.304 37.3126 72.304 37.0021C72.304 36.3714 72.1015 36.0512 71.7159 36.0512Z" fill="#27348B"/>
<path d="M75.1967 35.3623C75.6306 35.3623 75.9777 35.4884 76.2284 35.7407C76.4791 35.993 76.6141 36.352 76.6141 36.808V37.2253H74.5796C74.5892 37.4678 74.6567 37.6619 74.7917 37.7977C74.9267 37.9336 75.1195 38.0112 75.3606 38.0112C75.5631 38.0112 75.7463 37.9918 75.9102 37.953C76.0741 37.9142 76.2477 37.8462 76.4309 37.7686V38.4381C76.2766 38.5157 76.1127 38.5739 75.9391 38.6128C75.7656 38.6516 75.5631 38.671 75.322 38.671C75.0038 38.671 74.7242 38.6128 74.4832 38.4963C74.2421 38.3799 74.0493 38.1955 73.9143 37.9627C73.7793 37.7201 73.7021 37.4193 73.7021 37.0506C73.7021 36.6819 73.76 36.3714 73.8853 36.1288C74.0107 35.8766 74.1843 35.6922 74.406 35.5661C74.6374 35.4205 74.8978 35.3623 75.1967 35.3623ZM75.1967 35.9833C75.0231 35.9833 74.8881 36.0415 74.7821 36.1482C74.676 36.255 74.6085 36.4296 74.5892 36.6528H75.7945C75.7945 36.4587 75.7366 36.3035 75.6402 36.1773C75.5534 36.0415 75.3992 35.9833 75.1967 35.9833Z" fill="#27348B"/>
<path d="M79.0725 35.3623C79.1111 35.3623 79.1689 35.3623 79.2268 35.372C79.2846 35.372 79.3328 35.3817 79.3618 35.3914L79.2943 36.2065C79.2653 36.1968 79.2268 36.187 79.1689 36.187C79.1207 36.1773 79.0725 36.1773 79.0339 36.1773C78.8893 36.1773 78.7447 36.2065 78.6097 36.255C78.4747 36.3035 78.3686 36.3908 78.2818 36.5072C78.1951 36.6237 78.1565 36.7789 78.1565 36.9827V38.6031H77.2983V35.4205H77.954L78.0794 35.9542H78.1179C78.2143 35.7892 78.3397 35.6534 78.5036 35.537C78.6772 35.4205 78.8604 35.3623 79.0725 35.3623Z" fill="#27348B"/>
<path d="M81.6859 36.0705H80.9434V38.5933H80.0853V36.0705H79.6128V35.6533L80.0853 35.4204V35.1876C80.0853 34.9159 80.1335 34.7024 80.2202 34.5569C80.307 34.4113 80.442 34.3046 80.6059 34.2367C80.7699 34.1785 80.9723 34.1396 81.2038 34.1396C81.3677 34.1396 81.5219 34.1494 81.6569 34.1785C81.7919 34.2076 81.9076 34.2367 81.9944 34.2755L81.7726 34.9062C81.7051 34.8868 81.6377 34.8674 81.5605 34.848C81.4834 34.8286 81.3966 34.8188 81.3002 34.8188C81.1845 34.8188 81.088 34.8577 81.0398 34.9256C80.982 35.0032 80.9531 35.0905 80.9531 35.207V35.401H81.6955V36.0705H81.6859Z" fill="#27348B"/>
<path d="M85.0507 37.002C85.0507 37.526 84.9157 37.9335 84.6361 38.2246C84.3565 38.5157 83.9804 38.6515 83.508 38.6515C83.2187 38.6515 82.9487 38.5836 82.7269 38.4575C82.4955 38.3313 82.3123 38.147 82.187 37.8947C82.052 37.6521 81.9941 37.3513 81.9941 36.9923C81.9941 36.4684 82.1291 36.0608 82.4088 35.7795C82.6787 35.4981 83.0548 35.3525 83.5369 35.3525C83.8358 35.3525 84.0961 35.4205 84.3275 35.5466C84.559 35.6727 84.7325 35.8571 84.8675 36.1094C84.9832 36.3616 85.0507 36.6527 85.0507 37.002ZM82.8619 37.002C82.8619 37.3125 82.9101 37.5551 83.0162 37.72C83.1223 37.885 83.2862 37.9626 83.5176 37.9626C83.749 37.9626 83.9129 37.885 84.0094 37.72C84.1154 37.5551 84.1636 37.3222 84.1636 37.002C84.1636 36.6915 84.1154 36.449 84.0094 36.2937C83.9033 36.1385 83.7394 36.0608 83.508 36.0608C83.2765 36.0608 83.1126 36.1385 83.0162 36.2937C82.9198 36.4587 82.8619 36.6915 82.8619 37.002Z" fill="#27348B"/>
<path d="M87.5193 35.3623C87.5579 35.3623 87.6157 35.3623 87.6736 35.372C87.7314 35.372 87.7796 35.3817 87.8085 35.3914L87.7411 36.2065C87.7121 36.1968 87.6736 36.187 87.6157 36.187C87.5675 36.1773 87.5193 36.1773 87.4807 36.1773C87.3361 36.1773 87.1914 36.2065 87.0565 36.255C86.9215 36.3035 86.8154 36.3908 86.7286 36.5072C86.6418 36.6237 86.6033 36.7789 86.6033 36.9827V38.6031H85.7451V35.4205H86.4008L86.5261 35.9542H86.5647C86.6611 35.7892 86.7865 35.6534 86.9504 35.537C87.1239 35.4205 87.3072 35.3623 87.5193 35.3623Z" fill="#27348B"/>
<path d="M92.0896 35.3623C92.4463 35.3623 92.7163 35.4593 92.8995 35.6437C93.0827 35.828 93.1791 36.1288 93.1791 36.5266V38.6031H92.321V36.7498C92.321 36.2938 92.1667 36.0609 91.8485 36.0609C91.6171 36.0609 91.4628 36.1385 91.3664 36.3035C91.27 36.4684 91.2218 36.7013 91.2218 37.0118V38.6031H90.3636V36.7498C90.3636 36.2938 90.2093 36.0609 89.8911 36.0609C89.6501 36.0609 89.4862 36.1482 89.3994 36.3326C89.3126 36.5169 89.2644 36.7692 89.2644 37.1088V38.6031H88.4062V35.4205H89.0619L89.1776 35.828H89.2258C89.3223 35.6631 89.4572 35.5467 89.6212 35.469C89.7851 35.3914 89.9586 35.3623 90.1418 35.3623C90.3733 35.3623 90.5661 35.4011 90.73 35.4787C90.8939 35.5564 91.0096 35.6728 91.1061 35.828H91.1832C91.2796 35.6631 91.4146 35.5467 91.5882 35.469C91.7328 35.4011 91.916 35.3623 92.0896 35.3623Z" fill="#27348B"/>
<path d="M95.3583 35.3525C95.7826 35.3525 96.1104 35.4496 96.3322 35.6242C96.5539 35.8086 96.6696 36.09 96.6696 36.4684V38.5836H96.0718L95.9079 38.1567H95.8886C95.7536 38.3313 95.609 38.4477 95.4644 38.5254C95.3101 38.603 95.1076 38.6418 94.8473 38.6418C94.5677 38.6418 94.3362 38.5642 94.1434 38.3992C93.9602 38.2343 93.8638 37.982 93.8638 37.6327C93.8638 37.2931 93.9795 37.0505 94.2205 36.8856C94.4519 36.7303 94.8087 36.6333 95.2812 36.6139L95.8308 36.5945V36.4587C95.8308 36.2937 95.7922 36.1676 95.6958 36.09C95.609 36.0123 95.4837 35.9735 95.3294 35.9735C95.1751 35.9735 95.0208 35.9929 94.8762 36.0414C94.7316 36.09 94.5869 36.1385 94.4327 36.2064L94.153 35.6145C94.317 35.5272 94.5098 35.4593 94.7123 35.4108C94.9244 35.3816 95.1365 35.3525 95.3583 35.3525ZM95.8211 37.1282L95.4837 37.1379C95.204 37.1476 95.0112 37.1961 94.9051 37.2931C94.7991 37.3901 94.7412 37.5066 94.7412 37.6618C94.7412 37.7977 94.7798 37.885 94.8569 37.9432C94.9341 38.0014 95.0305 38.0305 95.1558 38.0305C95.339 38.0305 95.4933 37.9723 95.6283 37.8656C95.7536 37.7588 95.8211 37.6036 95.8211 37.3998V37.1282Z" fill="#27348B"/>
<path d="M99.3502 35.3623C99.6877 35.3623 99.9577 35.4593 100.17 35.6437C100.372 35.828 100.478 36.1288 100.478 36.5266V38.6031H99.6202V36.7498C99.6202 36.5169 99.5816 36.352 99.4948 36.2356C99.4177 36.1191 99.2827 36.0609 99.1092 36.0609C98.8488 36.0609 98.6656 36.1482 98.5692 36.3326C98.4728 36.5169 98.4246 36.7692 98.4246 37.1088V38.6031H97.5664V35.4205H98.2221L98.3378 35.828H98.386C98.4824 35.6631 98.627 35.5467 98.8006 35.469C98.9742 35.4011 99.1574 35.3623 99.3502 35.3623Z" fill="#27348B"/>
<path d="M102.648 38.6613C102.176 38.6613 101.809 38.5351 101.559 38.2732C101.298 38.0112 101.173 37.6037 101.173 37.0312C101.173 36.6431 101.24 36.3229 101.366 36.0803C101.501 35.8377 101.674 35.6534 101.915 35.537C102.147 35.4205 102.417 35.3623 102.725 35.3623C102.937 35.3623 103.13 35.3817 103.294 35.4302C103.458 35.469 103.593 35.5273 103.718 35.5855L103.468 36.255C103.333 36.1968 103.207 36.1579 103.092 36.1191C102.976 36.0803 102.86 36.0706 102.745 36.0706C102.301 36.0706 102.07 36.3908 102.07 37.0312C102.07 37.3514 102.127 37.5843 102.243 37.7395C102.359 37.8947 102.523 37.9627 102.735 37.9627C102.918 37.9627 103.072 37.9433 103.217 37.885C103.352 37.8365 103.487 37.7686 103.622 37.6813V38.4187C103.487 38.506 103.352 38.5642 103.207 38.6031C103.063 38.6419 102.87 38.6613 102.648 38.6613Z" fill="#27348B"/>
<path d="M105.637 35.3623C106.071 35.3623 106.418 35.4884 106.669 35.7407C106.92 35.993 107.055 36.352 107.055 36.808V37.2253H105.02C105.03 37.4678 105.097 37.6619 105.232 37.7977C105.367 37.9336 105.56 38.0112 105.801 38.0112C106.004 38.0112 106.187 37.9918 106.351 37.953C106.515 37.9142 106.688 37.8462 106.871 37.7686V38.4381C106.717 38.5157 106.553 38.5739 106.38 38.6128C106.206 38.6516 106.004 38.671 105.762 38.671C105.444 38.671 105.165 38.6128 104.924 38.4963C104.683 38.3799 104.49 38.1955 104.355 37.9627C104.22 37.7201 104.143 37.4193 104.143 37.0506C104.143 36.6819 104.2 36.3714 104.326 36.1288C104.451 35.8766 104.625 35.6922 104.846 35.5661C105.078 35.4205 105.338 35.3623 105.637 35.3623ZM105.647 35.9833C105.473 35.9833 105.338 36.0415 105.232 36.1482C105.126 36.255 105.059 36.4296 105.039 36.6528H106.245C106.245 36.4587 106.187 36.3035 106.09 36.1773C105.994 36.0415 105.84 35.9833 105.647 35.9833Z" fill="#27348B"/>
<path d="M111.085 35.1197C110.747 35.1197 110.496 35.2459 110.313 35.4982C110.14 35.7504 110.043 36.0997 110.043 36.5364C110.043 36.9827 110.12 37.3223 110.294 37.5649C110.458 37.8074 110.718 37.9336 111.085 37.9336C111.248 37.9336 111.422 37.9142 111.586 37.8754C111.76 37.8365 111.943 37.7783 112.136 37.7104V38.4478C111.952 38.5254 111.779 38.574 111.596 38.6128C111.422 38.6516 111.22 38.6613 110.998 38.6613C110.574 38.6613 110.217 38.574 109.947 38.3993C109.677 38.2247 109.474 37.9724 109.339 37.6522C109.204 37.332 109.146 36.9633 109.146 36.5267C109.146 36.1094 109.224 35.7407 109.368 35.4108C109.523 35.0906 109.735 34.8384 110.024 34.654C110.313 34.4697 110.66 34.3823 111.085 34.3823C111.287 34.3823 111.49 34.4114 111.702 34.4599C111.904 34.5085 112.107 34.5861 112.29 34.6734L112.01 35.3914C111.856 35.3138 111.702 35.2556 111.547 35.1974C111.383 35.1488 111.229 35.1197 111.085 35.1197Z" fill="#27348B"/>
<path d="M115.809 37.002C115.809 37.526 115.675 37.9335 115.395 38.2246C115.115 38.5157 114.739 38.6515 114.267 38.6515C113.977 38.6515 113.708 38.5836 113.486 38.4575C113.254 38.3313 113.071 38.147 112.946 37.8947C112.811 37.6521 112.753 37.3513 112.753 36.9923C112.753 36.4684 112.888 36.0608 113.168 35.7795C113.438 35.4981 113.814 35.3525 114.296 35.3525C114.595 35.3525 114.855 35.4205 115.086 35.5466C115.318 35.6727 115.491 35.8571 115.626 36.1094C115.752 36.3616 115.809 36.6527 115.809 37.002ZM113.63 37.002C113.63 37.3125 113.679 37.5551 113.785 37.72C113.891 37.885 114.055 37.9626 114.286 37.9626C114.517 37.9626 114.681 37.885 114.778 37.72C114.884 37.5551 114.932 37.3222 114.932 37.002C114.932 36.6915 114.884 36.449 114.778 36.2937C114.672 36.1385 114.508 36.0608 114.276 36.0608C114.045 36.0608 113.881 36.1385 113.785 36.2937C113.679 36.4587 113.63 36.6915 113.63 37.002Z" fill="#27348B"/>
<path d="M120.235 35.3623C120.592 35.3623 120.862 35.4593 121.045 35.6437C121.228 35.828 121.325 36.1288 121.325 36.5266V38.6031H120.466V36.7498C120.466 36.2938 120.312 36.0609 119.994 36.0609C119.763 36.0609 119.608 36.1385 119.512 36.3035C119.415 36.4684 119.367 36.7013 119.367 37.0118V38.6031H118.509V36.7498C118.509 36.2938 118.355 36.0609 118.037 36.0609C117.796 36.0609 117.632 36.1482 117.545 36.3326C117.458 36.5169 117.41 36.7692 117.41 37.1088V38.6031H116.552V35.4205H117.207L117.323 35.828H117.371C117.468 35.6631 117.603 35.5467 117.767 35.469C117.931 35.3914 118.104 35.3623 118.287 35.3623C118.519 35.3623 118.712 35.4011 118.876 35.4787C119.039 35.5564 119.155 35.6728 119.252 35.828H119.329C119.425 35.6631 119.56 35.5467 119.734 35.469C119.878 35.4011 120.052 35.3623 120.235 35.3623Z" fill="#27348B"/>
<path d="M123.967 35.3623C124.324 35.3623 124.613 35.4981 124.825 35.7795C125.047 36.0609 125.153 36.4684 125.153 37.0021C125.153 37.5454 125.037 37.953 124.815 38.2343C124.584 38.5157 124.295 38.6516 123.938 38.6516C123.706 38.6516 123.533 38.6128 123.398 38.5254C123.263 38.4381 123.157 38.3508 123.07 38.2441H123.022C123.051 38.409 123.07 38.5642 123.07 38.7098V39.9906H122.212V35.4108H122.916L123.041 35.828H123.08C123.166 35.7019 123.282 35.5855 123.417 35.4981C123.552 35.4108 123.735 35.3623 123.967 35.3623ZM123.687 36.0512C123.465 36.0512 123.301 36.1191 123.215 36.2647C123.118 36.4102 123.07 36.6237 123.07 36.9051V37.0021C123.07 37.3126 123.118 37.5454 123.205 37.7104C123.292 37.8753 123.456 37.953 123.697 37.953C123.89 37.953 124.034 37.8753 124.131 37.7104C124.227 37.5454 124.275 37.3126 124.275 37.0021C124.275 36.3714 124.083 36.0512 123.687 36.0512Z" fill="#27348B"/>
<path d="M127.168 35.3525C127.592 35.3525 127.92 35.4496 128.142 35.6242C128.364 35.8086 128.479 36.09 128.479 36.4684V38.5836H127.881L127.717 38.1567H127.698C127.563 38.3313 127.419 38.4477 127.274 38.5254C127.12 38.603 126.917 38.6418 126.657 38.6418C126.377 38.6418 126.146 38.5642 125.953 38.3992C125.77 38.2343 125.673 37.982 125.673 37.6327C125.673 37.2931 125.789 37.0505 126.03 36.8856C126.262 36.7303 126.618 36.6333 127.091 36.6139L127.64 36.5945V36.4587C127.64 36.2937 127.602 36.1676 127.505 36.09C127.419 36.0123 127.293 35.9735 127.139 35.9735C126.985 35.9735 126.83 35.9929 126.686 36.0414C126.541 36.09 126.397 36.1385 126.242 36.2064L125.963 35.6145C126.127 35.5272 126.319 35.4593 126.522 35.4108C126.724 35.3816 126.936 35.3525 127.168 35.3525ZM127.621 37.1282L127.284 37.1379C127.004 37.1476 126.811 37.1961 126.705 37.2931C126.599 37.3901 126.541 37.5066 126.541 37.6618C126.541 37.7977 126.58 37.885 126.657 37.9432C126.734 38.0014 126.83 38.0305 126.956 38.0305C127.139 38.0305 127.293 37.9723 127.428 37.8656C127.554 37.7588 127.621 37.6036 127.621 37.3998V37.1282Z" fill="#27348B"/>
<path d="M131.16 35.3623C131.497 35.3623 131.767 35.4593 131.979 35.6437C132.182 35.828 132.288 36.1288 132.288 36.5266V38.6031H131.43V36.7498C131.43 36.5169 131.391 36.352 131.304 36.2356C131.227 36.1191 131.092 36.0609 130.919 36.0609C130.658 36.0609 130.475 36.1482 130.379 36.3326C130.282 36.5169 130.234 36.7692 130.234 37.1088V38.6031H129.376V35.4205H130.032L130.147 35.828H130.196C130.292 35.6631 130.437 35.5467 130.61 35.469C130.774 35.4011 130.957 35.3623 131.16 35.3623Z" fill="#27348B"/>
<path d="M132.712 35.4204H133.657L134.255 37.2057C134.284 37.2931 134.313 37.3804 134.323 37.4774C134.342 37.5647 134.352 37.6618 134.361 37.7588H134.38C134.39 37.6618 134.409 37.5647 134.429 37.4774C134.448 37.3901 134.477 37.3028 134.506 37.2057L135.094 35.4204H136.02L134.679 39.0105C134.554 39.3404 134.381 39.5829 134.149 39.7479C133.918 39.9128 133.657 40.0002 133.358 40.0002C133.262 40.0002 133.175 39.9905 133.108 39.9808C133.04 39.971 132.973 39.9613 132.925 39.9516V39.2627C132.963 39.2724 133.011 39.2821 133.079 39.2821C133.137 39.2918 133.204 39.2918 133.272 39.2918C133.455 39.2918 133.599 39.2336 133.696 39.1269C133.802 39.0202 133.879 38.8843 133.937 38.7291L133.985 38.5738L132.712 35.4204Z" fill="#27348B"/>
</g>
<defs>
<clipPath id="clip0_2093_39">
<rect width="128" height="32" fill="white" transform="translate(8 8)"/>
</clipPath>
</defs>
</svg>
