<?xml version="1.0" encoding="utf-8"?>
<!-- Generator: Adobe Illustrator 23.0.3, SVG Export Plug-In . SVG Version: 6.00 Build 0)  -->
<svg version="1.1" id="Calque_1" xmlns="http://www.w3.org/2000/svg" xmlns:xlink="http://www.w3.org/1999/xlink" x="0px" y="0px"
	 viewBox="0 0 280.5 280.5" style="enable-background:new 0 0 280.5 280.5;" xml:space="preserve">
<style type="text/css">
	.st0{fill:#E30613;}
	.st1{fill:#FFFFFF;}
</style>
<g>
	<g>
		<g>
			<g>
				<path class="st0" d="M280.5,140.2c0,77.5-62.8,140.2-140.2,140.2C62.8,280.5,0,217.7,0,140.2S62.8,0,140.2,0
					C217.7,0,280.5,62.8,280.5,140.2"/>
				<path class="st1" d="M68.5,92.7c31.3,0,52.1,17.7,52.1,47.5c0,29.8-20.8,47.5-52.1,47.5H26.8v-95H68.5z"/>
				<path class="st1" d="M193.9,141c0,29.2-23.7,52.9-52.9,52.9c-29.2,0-52.9-23.7-52.9-52.9c0-29.2,23.7-52.9,52.9-52.9
					C170.2,88.1,193.9,111.8,193.9,141"/>
				<path class="st0" d="M149.4,140.6c0,5-4,9-9,9c-5,0-9-4-9-9s4-9,9-9C145.4,131.7,149.4,135.7,149.4,140.6"/>
				<path class="st0" d="M67.4,149.3h-4.1V132h4.1c5.2,0,8.6,3.4,8.6,8.7S72.5,149.3,67.4,149.3"/>
				<rect x="182.3" y="116.4" class="st1" width="10.1" height="32.9"/>
			</g>
		</g>
		<g>
			<g>
				<path class="st1" d="M251.7,186.2c-12,3.8-21,4.6-29.6,4.6c-18.7,0-31.3-15.2-31.3-38.1v-11.1h-12.3v-29.9h12.3v-23h34.5v23
					h22.3v29.9h-22.3v8.9c0,5.2,2.1,8.6,8.3,8.6c2.3,0,5.8-0.5,15.2-1.4L251.7,186.2z"/>
			</g>
			<g>
				<path d="M177.2,149.9c-2.7,0.8-4.2,1-6.2,1c-4.9,0-8.2-3.6-8.2-9.2v-6.1h-4v-5.9h4v-7h6.8v7h7v5.9h-7v5.9c0,2.1,1.2,3.1,3.2,3.1
					c1,0,2.1-0.2,3.6-0.5L177.2,149.9z"/>
				<path d="M201.8,138.6v11.7H195v-10.6c0-2.9-1.5-4.3-3.8-4.3c-1.2,0-2.5,0.7-3.7,2v12.9h-6.9v-20.5h6.9v1.4c1.6-1.3,3.4-2,5.6-2
					C198.3,129.2,201.8,132.7,201.8,138.6z"/>
			</g>
		</g>
	</g>
</g>
</svg>
