<svg width="149" height="78" viewBox="0 0 149 78" fill="none" xmlns="http://www.w3.org/2000/svg">
<g clip-path="url(#clip0_2235_45176)">
<path d="M24.7112 63.5451H25.8778V54.3509H24.8667V53.8828H32.9001L32.9334 56.5575H32.4445C31.789 54.8189 31.2556 54.3509 29.9667 54.3509H28.3223V58.53C28.4223 58.5412 28.5445 58.5412 28.6445 58.5412C29.6778 58.5412 30.2001 57.9951 30.3667 56.6801H30.8556V61.0153H30.3667C30.2667 59.6111 29.7445 59.0316 28.589 59.0316C28.5001 59.0316 28.4112 59.0427 28.3223 59.0427V63.5451H29.9223C31.5334 63.5451 32.3334 62.6981 32.8445 60.6475H33.3001L33.2001 64.0354H24.7112V63.5339V63.5451Z" fill="white"/>
<path d="M41.1112 63.5596H42.0557V64.0277C41.0668 64.0277 40.089 64.0722 39.0779 64.1502V62.6012C38.5001 63.6933 37.789 64.1948 36.7223 64.1948C36.0557 64.1948 35.5557 63.9942 35.2557 63.6042C35.0446 63.3033 35.0223 62.9355 35.0223 62.4117V58.3774H34.0557V57.9094C35.1334 57.8982 36.1334 57.8425 37.0223 57.7533V62.6792C37.0223 63.2364 37.2001 63.5039 37.6334 63.5039C38.3334 63.5039 39.0668 62.4674 39.0668 61.2638V58.3663H38.0112V57.8982C39.0334 57.8982 40.0557 57.8313 41.1112 57.7422V63.5484V63.5596Z" fill="white"/>
<path d="M42.6444 63.5752H43.4333V58.4153H42.6333V57.9473C43.5666 57.9138 44.5 57.8581 45.4333 57.7578V59.4295C45.8333 58.3708 46.5111 57.7912 47.2444 57.7912C47.9777 57.7912 48.5333 58.3373 48.5333 59.0617C48.5333 59.7081 48.1 60.1873 47.4777 60.1873C46.9555 60.1873 46.5333 59.7304 46.5333 59.1397C46.5333 58.8388 46.7111 58.7162 46.7111 58.5602C46.7111 58.5156 46.6666 58.4711 46.5889 58.4711C46.2444 58.4711 45.4777 59.5521 45.4777 60.8114V63.5752H46.5444V64.0433H42.6444V63.5752Z" fill="white"/>
<path d="M52.5222 57.7578C54.6 57.7578 55.9889 59.1174 55.9889 60.9786C55.9889 62.8397 54.6 64.2104 52.5222 64.2104C50.4444 64.2104 49.0667 62.8508 49.0667 60.9897C49.0667 59.1286 50.4444 57.7578 52.5222 57.7578ZM51.3667 60.9786V61.6026C51.3667 63.1852 51.4444 63.8427 52.5333 63.8427C53.6222 63.8427 53.6889 63.1406 53.6889 61.2126V60.3099C53.6889 58.7942 53.6 58.1367 52.5333 58.1367C51.4111 58.1367 51.3667 58.9168 51.3667 60.9786Z" fill="white"/>
<path d="M56.5555 66.9966H57.3888V58.4153H56.4221V57.9473C57.4888 57.9138 58.4999 57.8581 59.4332 57.7578V58.928C59.8777 58.1479 60.4999 57.7578 61.3332 57.7578C62.8888 57.7578 64.0555 59.1174 64.0555 61.012C64.0555 62.9065 62.8666 64.2327 61.3332 64.2327C60.4999 64.2327 59.8777 63.8538 59.4332 63.0737V66.9966H60.4999V67.4646H56.5555V66.9966ZM61.7999 59.396C61.7999 58.5825 61.7221 58.2036 61.0555 58.2036C60.111 58.2036 59.4221 59.0283 59.4221 60.4102V61.5804C59.4221 62.9623 60.0888 63.787 61.0555 63.787C61.6888 63.787 61.7999 63.3969 61.7999 62.6168V59.396Z" fill="white"/>
<path d="M71.4001 62.1041C70.9112 63.5418 69.9779 64.2104 68.4779 64.2104C66.4001 64.2104 65.1001 62.94 65.1001 61.0566C65.1001 59.1732 66.489 57.7578 68.4445 57.7578C70.2223 57.7578 71.3223 58.8723 71.3223 60.6554V60.7334H67.4445V62.2713C67.4445 63.3635 67.6779 63.8315 68.6334 63.8315C69.8223 63.8315 70.6334 63.2074 71.0668 61.9816L71.4112 62.1041H71.4001ZM69.4001 60.2542V59.0617C69.4001 58.4042 69.1001 58.1256 68.4223 58.1256C67.7445 58.1256 67.4445 58.4265 67.4445 59.0617V60.2542H69.4001Z" fill="white"/>
<path d="M73.8222 64.1993C72.811 64.1993 72.2666 63.6421 72.2666 62.6725C72.2666 61.402 73.5999 60.4993 75.9999 60.4993V59.0171C75.9999 58.3708 75.8222 58.1702 75.011 58.1702C74.511 58.1702 74.2555 58.2927 74.2555 58.5268C74.2555 58.6828 74.5222 58.9057 74.5222 59.3403C74.5222 59.931 74.1666 60.2653 73.5333 60.2653C72.9666 60.2653 72.6555 59.9198 72.6555 59.3069C72.6555 58.3373 73.6222 57.7578 75.3999 57.7578C76.2333 57.7578 76.8555 57.9027 77.2222 58.1033C77.7999 58.4153 77.8333 58.8054 77.8333 59.5298V62.6837C77.8333 63.0403 77.9666 63.2186 78.2888 63.2186C78.4777 63.2186 78.5555 63.0737 78.6555 63.0737C78.7444 63.0737 78.7999 63.1517 78.7999 63.2297C78.7999 63.4972 78.2777 64.1993 77.4111 64.1993C76.7777 64.1993 76.2555 63.8092 76.0444 63.1406C75.4555 63.8873 74.7888 64.1993 73.8222 64.1993ZM75.8222 60.9117C74.6666 60.9117 74.211 61.2126 74.211 62.1041C74.211 62.9957 74.4333 63.3412 75.0222 63.3412C75.611 63.3412 75.9999 62.9177 75.9999 62.2267V60.9117H75.8222Z" fill="white"/>
<path d="M79.9665 63.5797V58.3864H78.9888V57.896C79.9554 57.896 80.9443 57.8626 81.9999 57.7846V59.3337C82.5665 58.2527 83.2777 57.7734 84.3554 57.7734C85.8999 57.7734 86.0554 58.5201 86.0554 59.9912V63.5686H86.911V64.0366H83.2999V63.5686H84.0554V59.2556C84.0554 58.6984 83.8777 58.431 83.4443 58.431C82.7665 58.431 82.011 59.4451 82.011 60.6487V63.5686H82.7554V64.0366H79.0777V63.5686H79.9665V63.5797Z" fill="white"/>
<path d="M93.0778 63.5451V54.3509H92.0444V53.8828H97.4222C99.5 53.8828 100.667 54.8635 100.667 56.3012C100.667 57.5382 99.7333 58.3072 97.9111 58.5858V58.7084C100 58.8978 101.056 59.7559 101.056 61.2382C101.056 62.9433 99.6333 64.0354 97.3222 64.0354H92.0444V63.5339H93.0778V63.5451ZM96.4 58.4632C97.8667 58.4632 98.1222 58.0508 98.1222 56.4015C98.1222 54.5515 97.9778 54.3509 96.3111 54.3509H95.4778V58.4632H96.4ZM96.7667 63.5451C98.1778 63.5451 98.3778 63.1104 98.3778 61.2159C98.3778 59.3213 98.0333 58.8978 96.5555 58.8978H95.4778V63.5451H96.7667Z" fill="white"/>
<path d="M103.311 64.1993C102.3 64.1993 101.756 63.6421 101.756 62.6725C101.756 61.402 103.089 60.4993 105.489 60.4993V59.0171C105.489 58.3708 105.311 58.1702 104.5 58.1702C104 58.1702 103.745 58.2927 103.745 58.5268C103.745 58.6828 104.011 58.9057 104.011 59.3403C104.011 59.931 103.656 60.2653 103.022 60.2653C102.456 60.2653 102.145 59.9198 102.145 59.3069C102.145 58.3373 103.111 57.7578 104.889 57.7578C105.722 57.7578 106.345 57.9027 106.711 58.1033C107.289 58.4153 107.322 58.8054 107.322 59.5298V62.6837C107.322 63.0403 107.456 63.2186 107.778 63.2186C107.967 63.2186 108.045 63.0737 108.145 63.0737C108.233 63.0737 108.289 63.1517 108.289 63.2297C108.289 63.4972 107.767 64.1993 106.9 64.1993C106.267 64.1993 105.745 63.8092 105.533 63.1406C104.945 63.8873 104.278 64.1993 103.311 64.1993ZM105.311 60.9117C104.156 60.9117 103.7 61.2126 103.7 62.1041C103.7 62.9957 103.922 63.3412 104.511 63.3412C105.1 63.3412 105.489 62.9177 105.489 62.2267V60.9117H105.311Z" fill="white"/>
<path d="M109.533 63.5797V58.3864H108.556V57.896C109.522 57.896 110.511 57.8626 111.567 57.7846V59.3337C112.133 58.2527 112.845 57.7734 113.922 57.7734C115.467 57.7734 115.622 58.5201 115.622 59.9912V63.5686H116.478V64.0366H112.867V63.5686H113.622V59.2556C113.622 58.6984 113.445 58.431 113.011 58.431C112.333 58.431 111.578 59.4451 111.578 60.6487V63.5686H112.322V64.0366H108.645V63.5686H109.533V63.5797Z" fill="white"/>
<path d="M117.689 63.5804V54.3528H116.967V53.8848C117.767 53.8513 118.667 53.7956 119.711 53.6953V63.5804H120.644V64.0485H116.967V63.5804H117.689ZM122.355 58.4094H120.967V57.9413H124.067V58.4094H122.967L121.444 59.7356L124.289 63.5804H124.9V64.0485H121.155V63.5804H121.9L119.8 60.6829L122.378 58.3983L122.355 58.4094Z" fill="white"/>
<path d="M1.07778 72.4277H0.5V72.1379H1.07778V71.9373C1.07778 70.5108 1.92222 69.5078 2.97778 69.5078C3.63333 69.5078 4.04444 69.8533 4.04444 70.3325C4.04444 70.7226 3.83333 70.9454 3.46667 70.9454C3.14444 70.9454 2.92222 70.7226 2.92222 70.4105C2.92222 70.1208 3.15556 70.0205 3.15556 69.909C3.15556 69.8421 3.05556 69.7753 2.88889 69.7753C2.52222 69.7753 2.3 70.0873 2.3 70.678C2.3 71.1126 2.32222 71.4804 2.32222 71.7701V72.1379H3.11111V72.4277H2.32222V75.6038H2.95556V75.8936H0.544444V75.6038H1.07778V72.4277Z" fill="white"/>
<path d="M5.86661 72.0156C7.14438 72.0156 7.99994 72.8515 7.99994 73.9993C7.99994 75.1472 7.14438 75.9942 5.86661 75.9942C4.58883 75.9942 3.74438 75.1584 3.74438 74.0105C3.74438 72.8626 4.58883 72.0156 5.86661 72.0156ZM5.1555 73.9993V74.3894C5.1555 75.359 5.19994 75.7713 5.87772 75.7713C6.5555 75.7713 6.58883 75.3367 6.58883 74.1554V73.5981C6.58883 72.662 6.53327 72.2608 5.87772 72.2608C5.18883 72.2608 5.1555 72.74 5.1555 74.0105V73.9993Z" fill="white"/>
<path d="M8.62219 75.6008H9.11108V72.4246H8.62219V72.1349C9.19997 72.1126 9.76664 72.0792 10.3444 72.0234V73.0487C10.5889 72.3912 11.0111 72.0346 11.4555 72.0346C11.9 72.0346 12.2444 72.3689 12.2444 72.8147C12.2444 73.2047 11.9778 73.5057 11.6 73.5057C11.2778 73.5057 11.0111 73.227 11.0111 72.8593C11.0111 72.681 11.1222 72.6029 11.1222 72.5026C11.1222 72.4692 11.1 72.4469 11.0444 72.4469C10.8333 72.4469 10.3555 73.1156 10.3555 73.8957V75.6008H11.0111V75.8906H8.61108V75.6008H8.62219Z" fill="white"/>
<path d="M16.1111 75.5839V69.9226H15.4222V69.6328H18.7334C20.1222 69.6328 20.8445 70.1343 20.8445 71.0036C20.8445 71.8728 20.1556 72.4524 18.8778 72.5192V72.5972C20.2111 72.7867 20.6445 73.4219 20.6445 74.8373C20.6445 75.3388 20.6889 75.5839 21.0222 75.5839C21.1334 75.5839 21.2667 75.5505 21.4222 75.4948L21.5111 75.7511C21.0778 75.9517 20.7222 76.0409 20.4778 76.0409C19.9667 76.0409 19.5556 75.8626 19.3334 75.5951C18.9445 75.1382 18.9667 74.5364 18.9445 73.8454C18.9111 72.9984 18.6111 72.6864 17.7667 72.6864H17.6111V75.5951H18.3889V75.9071H15.4111V75.5951H16.1L16.1111 75.5839ZM18.3667 72.3632C19.1111 72.3632 19.2334 72.0623 19.2334 71.1819C19.2334 70.0786 19.2111 69.9114 18.3667 69.9114H17.6222V72.3632H18.3667Z" fill="white"/>
<path d="M25.6666 74.6981C25.3666 75.5785 24.7888 76.002 23.8666 76.002C22.5888 76.002 21.7888 75.2219 21.7888 74.0517C21.7888 72.8816 22.6444 72.0234 23.8444 72.0234C24.9444 72.0234 25.611 72.7033 25.611 73.8066V73.8511H23.2222V74.7984C23.2222 75.4782 23.3666 75.768 23.9555 75.768C24.6888 75.768 25.1888 75.3779 25.4555 74.6312L25.6666 74.7093V74.6981ZM24.4333 73.5614V72.8258C24.4333 72.4246 24.2555 72.2463 23.8333 72.2463C23.411 72.2463 23.2333 72.4358 23.2333 72.8258V73.5614H24.4333Z" fill="white"/>
<path d="M29.9888 74.6981C29.711 75.5562 29.1555 75.9909 28.3666 75.9909C27.1999 75.9909 26.3555 75.1105 26.3555 73.996C26.3555 72.8816 27.2555 72.0234 28.4555 72.0234C29.2999 72.0234 29.8444 72.4804 29.8444 73.0822C29.8444 73.4388 29.5999 73.6951 29.2555 73.6951C28.8666 73.6951 28.6332 73.4388 28.6332 73.0487C28.6332 72.681 28.911 72.5695 28.911 72.4581C28.911 72.302 28.7555 72.2352 28.4444 72.2352C27.7666 72.2352 27.7444 72.603 27.7444 73.4054V74.5644C27.7444 75.3668 27.8221 75.7123 28.4666 75.7123C29.111 75.7123 29.5444 75.3333 29.7777 74.6089L29.9888 74.687V74.6981Z" fill="white"/>
<path d="M32.7668 72.0156C34.0445 72.0156 34.9001 72.8515 34.9001 73.9993C34.9001 75.1472 34.0445 75.9942 32.7668 75.9942C31.489 75.9942 30.6445 75.1584 30.6445 74.0105C30.6445 72.8626 31.489 72.0156 32.7668 72.0156ZM32.0556 73.9993V74.3894C32.0556 75.359 32.1001 75.7713 32.7779 75.7713C33.4556 75.7713 33.489 75.3367 33.489 74.1554V73.5981C33.489 72.662 33.4334 72.2608 32.7779 72.2608C32.089 72.2608 32.0556 72.74 32.0556 74.0105V73.9993Z" fill="white"/>
<path d="M35.9667 75.6053V72.4068H35.3667V72.1059C35.9556 72.1059 36.5667 72.0836 37.2223 72.0391V72.9975C37.5667 72.3288 38.0111 72.0391 38.6778 72.0391C39.6223 72.0391 39.7223 72.496 39.7223 73.4098V75.6164H40.2556V75.9062H38.0334V75.6164H38.5V72.9529C38.5 72.6074 38.3889 72.4403 38.1223 72.4403C37.7 72.4403 37.2334 73.0644 37.2334 73.811V75.6164H37.6889V75.9062H35.4223V75.6164H35.9667V75.6053Z" fill="white"/>
<path d="M40.7889 74.4975H41.0223C41.2334 75.3222 41.6778 75.7457 42.3223 75.7457C42.8556 75.7457 43.1889 75.4225 43.1889 75.0659C43.1889 74.6201 42.7778 74.6647 42.0445 74.5421C41.1889 74.4084 40.7778 74.1297 40.7778 73.3719C40.7778 72.5361 41.2889 72.0234 42.0667 72.0234C42.3889 72.0234 42.6889 72.1126 42.9334 72.2463L43.1223 72.068H43.3001L43.3223 73.1379H43.0889C42.9112 72.5472 42.5556 72.2463 42.0667 72.2463C41.5778 72.2463 41.2334 72.5027 41.2334 72.7701C41.2334 73.1156 41.6112 73.1267 42.3778 73.227C43.3001 73.3496 43.6778 73.684 43.6778 74.5421C43.6778 75.4002 43.1667 75.9909 42.2889 75.9909C41.8556 75.9909 41.5112 75.8794 41.2556 75.6677L41.0001 75.8794H40.7778V74.4864L40.7889 74.4975Z" fill="white"/>
<path d="M44.6668 72.4164H44.1445V72.1266H44.6668V70.9565C44.8445 70.9787 45.0112 70.9899 45.2001 70.9899C45.4334 70.9899 45.6556 70.9676 45.889 70.9453V72.1266H46.6223V72.4164H45.889V75.0353C45.889 75.3585 45.9556 75.4588 46.1779 75.4588C46.4001 75.4588 46.5556 75.2471 46.589 74.9127H46.8334C46.8001 75.5703 46.3001 75.9938 45.5668 75.9938C44.7779 75.9938 44.6668 75.7151 44.6668 75.0353V72.4164Z" fill="white"/>
<path d="M47.2223 75.6008H47.7112V72.4246H47.2223V72.1349C47.8001 72.1126 48.3667 72.0792 48.9445 72.0234V73.0487C49.189 72.3912 49.6112 72.0346 50.0556 72.0346C50.5001 72.0346 50.8445 72.3689 50.8445 72.8147C50.8445 73.2047 50.5778 73.5057 50.2001 73.5057C49.8778 73.5057 49.6112 73.227 49.6112 72.8593C49.6112 72.681 49.7223 72.6029 49.7223 72.5026C49.7223 72.4692 49.7001 72.4469 49.6445 72.4469C49.4334 72.4469 48.9556 73.1156 48.9556 73.8957V75.6008H49.6112V75.8906H47.2112V75.6008H47.2223Z" fill="white"/>
<path d="M55.4444 75.5918H56.0333V75.8816C55.4222 75.8816 54.8222 75.915 54.2 75.9596V75.0012C53.8444 75.681 53.4111 75.9819 52.7444 75.9819C52.3333 75.9819 52.0222 75.8593 51.8444 75.6141C51.7111 75.4358 51.7 75.2018 51.7 74.8786V72.3934H51.1111V72.1036C51.7778 72.1036 52.3889 72.0702 52.9333 72.0033V75.0346C52.9333 75.3801 53.0444 75.5473 53.3111 75.5473C53.7444 75.5473 54.2 74.912 54.2 74.1654V72.3822H53.5555V72.0925C54.1889 72.0925 54.8111 72.0591 55.4666 71.9922V75.5696L55.4444 75.5918Z" fill="white"/>
<path d="M60.1221 74.6981C59.8443 75.5562 59.2888 75.9909 58.4999 75.9909C57.3332 75.9909 56.4888 75.1105 56.4888 73.996C56.4888 72.8816 57.3888 72.0234 58.5888 72.0234C59.4332 72.0234 59.9777 72.4804 59.9777 73.0822C59.9777 73.4388 59.7332 73.6951 59.3888 73.6951C58.9999 73.6951 58.7665 73.4388 58.7665 73.0487C58.7665 72.681 59.0443 72.5695 59.0443 72.4581C59.0443 72.302 58.8888 72.2352 58.5777 72.2352C57.8999 72.2352 57.8777 72.603 57.8777 73.4054V74.5644C57.8777 75.3668 57.9554 75.7123 58.5999 75.7123C59.2443 75.7123 59.6777 75.3333 59.911 74.6089L60.1221 74.687V74.6981Z" fill="white"/>
<path d="M61.189 72.4164H60.6667V72.1266H61.189V70.9565C61.3667 70.9787 61.5334 70.9899 61.7223 70.9899C61.9556 70.9899 62.1779 70.9676 62.4112 70.9453V72.1266H63.1445V72.4164H62.4112V75.0353C62.4112 75.3585 62.4779 75.4588 62.7001 75.4588C62.9223 75.4588 63.0779 75.2471 63.1112 74.9127H63.3556C63.3223 75.5703 62.8223 75.9938 62.089 75.9938C61.3001 75.9938 61.189 75.7151 61.189 75.0353V72.4164Z" fill="white"/>
<path d="M63.6889 75.6009H64.2222V72.4248H63.6333V72.135C64.2889 72.1127 64.9111 72.0793 65.4889 72.0236V75.6121H66.0555V75.9019H63.6889V75.6121V75.6009ZM64.8333 69.8281C65.1777 69.8281 65.4666 70.129 65.4666 70.5079C65.4666 70.8868 65.1889 71.1877 64.8333 71.1877C64.4777 71.1877 64.2 70.8757 64.2 70.5079C64.2 70.1402 64.4889 69.8281 64.8333 69.8281Z" fill="white"/>
<path d="M68.5556 72.0156C69.8333 72.0156 70.6889 72.8515 70.6889 73.9993C70.6889 75.1472 69.8333 75.9942 68.5556 75.9942C67.2778 75.9942 66.4333 75.1584 66.4333 74.0105C66.4333 72.8626 67.2778 72.0156 68.5556 72.0156ZM67.8445 73.9993V74.3894C67.8445 75.359 67.8889 75.7713 68.5667 75.7713C69.2445 75.7713 69.2778 75.3367 69.2778 74.1554V73.5981C69.2778 72.662 69.2222 72.2608 68.5667 72.2608C67.8778 72.2608 67.8445 72.74 67.8445 74.0105V73.9993Z" fill="white"/>
<path d="M71.6779 75.6053V72.4068H71.0779V72.1059C71.6668 72.1059 72.2779 72.0836 72.9334 72.0391V72.9975C73.2779 72.3288 73.7223 72.0391 74.389 72.0391C75.3334 72.0391 75.4334 72.496 75.4334 73.4098V75.6164H75.9668V75.9062H73.7445V75.6164H74.2112V72.9529C74.2112 72.6074 74.1001 72.4403 73.8334 72.4403C73.4112 72.4403 72.9445 73.0644 72.9445 73.811V75.6164H73.4001V75.9062H71.1334V75.6164H71.6779V75.6053Z" fill="white"/>
<path d="M80.1001 75.9942C79.4779 75.9942 79.1445 75.6487 79.1445 75.0469C79.1445 74.2668 79.9668 73.7096 81.4445 73.7096V72.7957C81.4445 72.4057 81.3334 72.2719 80.8334 72.2719C80.5223 72.2719 80.3668 72.35 80.3668 72.4948C80.3668 72.5951 80.5334 72.7289 80.5334 72.9963C80.5334 73.3641 80.3112 73.5647 79.9223 73.5647C79.5779 73.5647 79.389 73.353 79.389 72.974C79.389 72.3722 79.9779 72.0156 81.0779 72.0156C81.589 72.0156 81.9668 72.1048 82.2001 72.2274C82.5556 72.4168 82.5779 72.662 82.5779 73.1078V75.0581C82.5779 75.2809 82.6556 75.3812 82.8556 75.3812C82.9779 75.3812 83.0223 75.2921 83.089 75.2921C83.1445 75.2921 83.1779 75.3367 83.1779 75.3924C83.1779 75.5596 82.8556 75.9942 82.3223 75.9942C81.9334 75.9942 81.6112 75.749 81.489 75.3367C81.1223 75.7936 80.7112 75.9942 80.1223 75.9942H80.1001ZM81.3334 73.9659C80.6223 73.9659 80.3334 74.1442 80.3334 74.7014C80.3334 75.2587 80.4668 75.4593 80.8334 75.4593C81.1779 75.4593 81.4334 75.2029 81.4334 74.7794V73.9659H81.3223H81.3334Z" fill="white"/>
<path d="M83.9332 75.6053V72.4068H83.3333V72.1059C83.9221 72.1059 84.5332 72.0836 85.1888 72.0391V72.9975C85.5333 72.3288 85.9777 72.0391 86.6444 72.0391C87.5888 72.0391 87.6888 72.496 87.6888 73.4098V75.6164H88.2221V75.9062H85.9999V75.6164H86.4666V72.9529C86.4666 72.6074 86.3555 72.4403 86.0888 72.4403C85.6666 72.4403 85.1999 73.0644 85.1999 73.811V75.6164H85.6555V75.9062H83.3888V75.6164H83.9332V75.6053Z" fill="white"/>
<path d="M91.4779 75.2884C91.2001 75.7677 90.8112 76.0017 90.3001 76.0017C89.3557 76.0017 88.6223 75.1436 88.6223 74.018C88.6223 72.8924 89.3445 72.012 90.3001 72.012C90.8112 72.012 91.2001 72.2572 91.4779 72.7364V69.9168H90.7779V69.6271C91.5334 69.6048 92.1779 69.5713 92.7112 69.5156V75.6005H93.2001V75.8902H91.4779V75.2884ZM91.4779 73.6502C91.4779 72.8032 91.0557 72.2906 90.4668 72.2906C90.089 72.2906 90.0223 72.5023 90.0223 72.9927V74.9987C90.0223 75.5002 90.1001 75.7342 90.4668 75.7342C91.0557 75.7342 91.4779 75.2216 91.4779 74.3746V73.6502Z" fill="white"/>
<path d="M97.1222 75.5839V69.9226H96.4V69.6328H99.4334C100.222 69.6328 100.833 69.7665 101.389 70.19C102.111 70.7361 102.556 71.6945 102.556 72.7644C102.556 73.8343 102.1 74.7927 101.356 75.3611C100.856 75.74 100.211 75.896 99.3889 75.896H96.3889V75.5839H97.1111H97.1222ZM99.3778 75.5839C99.9111 75.5839 100.256 75.5505 100.511 75.2162C100.822 74.815 100.878 74.124 100.878 73.121V72.6752C100.878 71.65 100.856 70.9256 100.633 70.4798C100.378 69.9783 100.011 69.9114 99.3889 69.9114H98.6445V75.5728H99.3889L99.3778 75.5839Z" fill="white"/>
<path d="M107.067 74.6981C106.767 75.5785 106.189 76.002 105.267 76.002C103.989 76.002 103.189 75.2219 103.189 74.0517C103.189 72.8816 104.045 72.0234 105.256 72.0234C106.345 72.0234 107.022 72.7033 107.022 73.8066V73.8511H104.633V74.7984C104.633 75.4782 104.778 75.768 105.367 75.768C106.1 75.768 106.6 75.3779 106.867 74.6312L107.078 74.7093L107.067 74.6981ZM105.833 73.5614V72.8258C105.833 72.4246 105.656 72.2463 105.233 72.2463C104.811 72.2463 104.633 72.4358 104.633 72.8258V73.5614H105.833Z" fill="white"/>
<path d="M107.7 72.4259H107.311V72.1361H109.5V72.4259H109.044L109.933 74.5322L110.655 72.7825C110.689 72.7268 110.711 72.6711 110.711 72.5708C110.711 72.4705 110.633 72.4148 110.467 72.4148H110.078V72.125H111.544V72.4148H111.3C111.155 72.4148 111.067 72.4705 110.978 72.6822L109.6 76.0144H109.355L107.7 72.4148V72.4259Z" fill="white"/>
<path d="M115.622 74.6981C115.322 75.5785 114.744 76.002 113.822 76.002C112.544 76.002 111.744 75.2219 111.744 74.0517C111.744 72.8816 112.6 72.0234 113.811 72.0234C114.911 72.0234 115.578 72.7033 115.578 73.8066V73.8511H113.189V74.7984C113.189 75.4782 113.333 75.768 113.922 75.768C114.655 75.768 115.155 75.3779 115.422 74.6312L115.633 74.7093L115.622 74.6981ZM114.389 73.5614V72.8258C114.389 72.4246 114.211 72.2463 113.789 72.2463C113.367 72.2463 113.189 72.4358 113.189 72.8258V73.5614H114.389Z" fill="white"/>
<path d="M116.5 75.6005V69.9168H115.911V69.6271C116.567 69.6048 117.189 69.5713 117.767 69.5156V75.6005H118.344V75.8902H115.978V75.6005H116.511H116.5Z" fill="white"/>
<path d="M120.889 72.0156C122.167 72.0156 123.022 72.8515 123.022 73.9993C123.022 75.1472 122.167 75.9942 120.889 75.9942C119.611 75.9942 118.767 75.1584 118.767 74.0105C118.767 72.8626 119.611 72.0156 120.889 72.0156ZM120.178 73.9993V74.3894C120.178 75.359 120.222 75.7713 120.9 75.7713C121.578 75.7713 121.611 75.3367 121.611 74.1554V73.5981C121.611 72.662 121.555 72.2608 120.9 72.2608C120.211 72.2608 120.178 72.74 120.178 74.0105V73.9993Z" fill="white"/>
<path d="M123.511 77.7104H124.022V72.4168H123.433V72.1271C124.089 72.1048 124.711 72.0713 125.289 72.0156V72.74C125.567 72.2608 125.944 72.0156 126.456 72.0156C127.411 72.0156 128.133 72.8515 128.133 74.0216C128.133 75.1918 127.4 76.0053 126.456 76.0053C125.944 76.0053 125.567 75.7713 125.289 75.2921V77.7104H125.944V78.0002H123.522V77.7104H123.511ZM126.744 73.0298C126.744 72.5283 126.7 72.2942 126.289 72.2942C125.7 72.2942 125.289 72.8069 125.289 73.6539V74.3782C125.289 75.2252 125.7 75.7379 126.289 75.7379C126.678 75.7379 126.744 75.4927 126.744 75.0135V73.0298Z" fill="white"/>
<path d="M129.167 75.6019V72.4146H128.6V72.1249C129.156 72.1249 129.745 72.0915 130.389 72.0469V73.0053C130.722 72.3366 131.167 72.0469 131.811 72.0469C132.456 72.0469 132.833 72.3701 132.856 72.983C133.189 72.3366 133.633 72.0469 134.289 72.0469C134.7 72.0469 134.989 72.1583 135.178 72.4035C135.311 72.5818 135.333 72.8047 135.333 73.0833V75.6131H135.889V75.9029H133.622V75.6131H134.1V72.9607C134.1 72.6152 133.989 72.4592 133.722 72.4592C133.3 72.4592 132.833 73.061 132.833 73.8188V75.6131H133.278V75.9029H131.167V75.6131H131.633V72.9607C131.633 72.6152 131.522 72.4592 131.256 72.4592C130.833 72.4592 130.389 73.0722 130.389 73.8188V75.6131H130.833V75.9029H128.667V75.6131H129.156L129.167 75.6019Z" fill="white"/>
<path d="M140.156 74.6981C139.856 75.5785 139.278 76.002 138.356 76.002C137.078 76.002 136.278 75.2219 136.278 74.0517C136.278 72.8816 137.133 72.0234 138.344 72.0234C139.444 72.0234 140.111 72.7033 140.111 73.8066V73.8511H137.722V74.7984C137.722 75.4782 137.867 75.768 138.456 75.768C139.189 75.768 139.689 75.3779 139.956 74.6312L140.167 74.7093L140.156 74.6981ZM138.922 73.5614V72.8258C138.922 72.4246 138.745 72.2463 138.322 72.2463C137.9 72.2463 137.722 72.4358 137.722 72.8258V73.5614H138.922Z" fill="white"/>
<path d="M141.233 75.6053V72.4068H140.633V72.1059C141.222 72.1059 141.833 72.0836 142.489 72.0391V72.9975C142.833 72.3288 143.278 72.0391 143.944 72.0391C144.889 72.0391 144.989 72.496 144.989 73.4098V75.6164H145.522V75.9062H143.3V75.6164H143.767V72.9529C143.767 72.6074 143.656 72.4403 143.389 72.4403C142.967 72.4403 142.5 73.0644 142.5 73.811V75.6164H142.956V75.9062H140.689V75.6164H141.233V75.6053Z" fill="white"/>
<path d="M146.333 72.4164H145.811V72.1266H146.333V70.9565C146.511 70.9787 146.678 70.9899 146.867 70.9899C147.1 70.9899 147.322 70.9676 147.555 70.9453V72.1266H148.289V72.4164H147.555V75.0353C147.555 75.3585 147.622 75.4588 147.844 75.4588C148.067 75.4588 148.222 75.2471 148.255 74.9127H148.5C148.467 75.5703 147.967 75.9938 147.233 75.9938C146.444 75.9938 146.333 75.7151 146.333 75.0353V72.4164Z" fill="white"/>
<path d="M85.7889 4.27935C82.3223 2.52967 77.5556 1.861 73.7667 3.4658C65.9112 6.89829 63.1334 15.4572 63.0556 23.4255C63.2 27.939 64.4 32.029 66.6667 35.6175C68.1334 34.4697 68.8 32.8091 69.5111 31.2712C70.5778 28.5742 71.1556 25.699 71.1 22.5785C71.3445 16.6831 73.5667 10.1859 79.3889 7.65612C83.8667 5.98445 88.3778 7.93473 91.4334 11.4675C95.1334 15.9364 96.6445 22.3445 95.0223 28.1173C94.0223 32.5082 90.7334 37.5901 86.0667 38.7937C83.8 39.4401 81.1445 39.0723 79.1556 37.969C77.9778 39.8413 76.4445 41.6467 74.6445 42.9617V43.0063C78.0445 44.5554 82.5778 44.2768 85.8223 42.4714C79.8223 46.9737 70.4334 48.1885 63.3223 45.2018C61.5556 44.4774 59.8334 43.5635 58.2445 42.4157C61.9667 44.522 67.7889 45.1015 71.7 42.7054C78.0667 38.8829 80.6445 31.8953 81.0334 24.9523C81.2889 19.7924 79.9445 15.1229 77.4556 11.0886C75.9334 12.3034 75.2223 14.0307 74.5223 15.6578C73.3667 18.5554 72.9445 21.7204 72.9889 25.0637C72.5445 30.5357 70.2667 36.498 64.9556 38.9609C61.0778 40.6325 56.7223 39.1503 53.7556 36.2416C48.8778 31.4718 47.3667 23.5481 49.6445 17.0843C50.7778 13.2172 54 8.88201 58.1223 7.9013C60.3111 7.24377 62.9778 7.64497 64.9445 8.71484C66.0889 6.88715 67.6889 5.08175 69.4778 3.83357V3.78899C66.2445 2.30678 61.6223 2.51853 58.4667 4.20134C64 0.200481 72.3778 -1.18143 79.1889 1.04746C81.5 1.81643 83.7334 2.80828 85.7778 4.25706L85.7889 4.27935Z" fill="white"/>
</g>
<defs>
<clipPath id="clip0_2235_45176">
<rect width="148" height="78" fill="white" transform="translate(0.5)"/>
</clipPath>
</defs>
</svg>
