<?xml version="1.0" encoding="UTF-8"?>
<svg version="1.1" xmlns="http://www.w3.org/2000/svg" width="1613" height="811">
<path d="M0 0 C1.07059158 0.63781403 1.07059158 0.63781403 2.16281128 1.28851318 C2.95565018 1.75847717 3.74848907 2.22844116 4.56535339 2.71264648 C8.33826446 5.07701649 12.04303798 7.52241189 15.7170105 10.03753662 C16.94909492 10.87351379 16.94909492 10.87351379 18.20606995 11.72637939 C19.97691219 12.92799023 21.74672385 14.131121 23.51559448 15.33563232 C28.32631099 18.61033855 33.14613734 21.87155724 37.9670105 25.13128662 C39.46096848 26.14152893 39.46096848 26.14152893 40.98510742 27.17218018 C51.26006734 34.10892675 61.61421384 40.9231529 71.97872925 47.72503662 C87.449508 57.88223546 102.83068231 68.16228808 118.15597534 78.53753662 C131.6976468 87.70192759 145.31082529 96.75011012 158.97872925 105.72503662 C174.4467677 115.88200791 189.82679498 126.15936057 205.14993286 136.5335083 C219.7246043 146.39738003 234.38875797 156.11752096 249.09896851 165.77786255 C267.84152548 178.08976333 286.43510118 190.61597356 304.97872925 203.22503662 C303.8552224 206.59555717 303.36199172 206.91837604 300.5085144 208.76751709 C299.76473541 209.25545746 299.02095642 209.74339783 298.25463867 210.24612427 C297.43397919 210.77283722 296.6133197 211.29955017 295.76779175 211.84222412 C294.91015228 212.40237213 294.05251282 212.96252014 293.16888428 213.53964233 C291.30184287 214.75813668 289.43244078 215.97301959 287.56100464 217.18475342 C282.5042215 220.45978551 277.46511498 223.76183308 272.42404175 227.06097412 C271.38407043 227.74065247 270.34409912 228.42033081 269.27261353 229.12060547 C258.9371596 235.88474461 248.70262151 242.79393345 238.47872925 249.72503662 C223.13611309 260.11586074 207.7076579 270.36668121 192.21847534 280.53753662 C178.57120587 289.50208525 164.99975137 298.57128245 151.47872925 307.72503662 C137.04599045 317.49602448 122.54751831 327.15809644 107.97872925 336.72503662 C94.27283351 345.7264779 80.61649175 354.79479431 67.03155518 363.97790527 C64.37689291 365.771883 61.72063746 367.56347745 59.06393433 369.35443115 C50.73626652 374.97082672 42.41959898 380.60208046 34.12997437 386.27452087 C30.24968754 388.92515476 26.36006869 391.56186521 22.46853638 394.19595337 C20.61426767 395.45587308 18.76420526 396.72200778 16.91860962 397.99459839 C14.36964128 399.75140022 11.80712233 401.48643492 9.240448 403.21722412 C8.48935257 403.7427034 7.73825714 404.26818268 6.96440125 404.80958557 C3.69310666 406.98725583 1.82417998 408.22313614 -2.17092896 408.2321167 C-5.30881157 407.12344297 -8.01095237 405.79557321 -10.88845825 404.11956787 C-12.00865356 403.47310303 -13.12884888 402.82663818 -14.2829895 402.1605835 C-15.48751877 401.45307514 -16.69194319 400.74538826 -17.89627075 400.03753662 C-19.15491436 399.30690696 -20.41403612 398.57710044 -21.6736145 397.8480835 C-24.86361539 395.99880983 -28.04728446 394.13895388 -31.22866821 392.27490234 C-33.88911919 390.71676761 -36.55295538 389.16445128 -39.21658325 387.61175537 C-42.12509046 385.91549064 -45.03296329 384.21819233 -47.93875122 382.51727295 C-55.60348744 378.03447155 -63.30656921 373.62098323 -71.02127075 369.22503662 C-80.74251581 363.68517729 -90.43021944 358.0912873 -100.08816528 352.44158936 C-110.612117 346.28736921 -121.17507213 340.20133666 -131.73904419 334.1161499 C-137.16787018 330.98823514 -142.59446356 327.85645214 -148.02127075 324.72503662 C-150.18792658 323.47501783 -152.35459325 322.22501784 -154.52127075 320.97503662 C-202.18793742 293.47503662 -249.85460409 265.97503662 -297.52127075 238.47503662 C-298.59489868 237.85564209 -299.66852661 237.23624756 -300.77468872 236.5980835 C-302.92998386 235.35463153 -305.08525748 234.11114226 -307.24050903 232.86761475 C-312.24464749 229.98040788 -317.24897596 227.09353232 -322.25411987 224.20806885 C-324.00468316 223.19884558 -325.75517486 222.18949826 -327.50564575 221.18011475 C-329.6851924 219.92336003 -331.86486908 218.66683076 -334.04470825 217.4105835 C-336.03536746 216.26261958 -338.02467151 215.11230186 -340.01248169 213.95941162 C-342.14901884 212.72783422 -344.29380993 211.51052675 -346.44412231 210.30316162 C-348.09492798 209.36730225 -348.09492798 209.36730225 -349.77908325 208.41253662 C-350.78342407 207.84921631 -351.78776489 207.285896 -352.82254028 206.70550537 C-353.54812134 206.21695068 -354.27370239 205.728396 -355.02127075 205.22503662 C-355.02127075 204.56503662 -355.02127075 203.90503662 -355.02127075 203.22503662 C-192.52127075 109.47503662 -192.52127075 109.47503662 -189.27078247 107.59979248 C-187.10570005 106.35068144 -184.94066093 105.10149533 -182.77566528 103.85223389 C-177.33511369 100.71301353 -171.89379859 97.57513099 -166.45095825 94.43988037 C-155.99920876 88.41756333 -145.55827527 82.37834325 -135.14627075 76.28753662 C-125.87627298 70.86582485 -116.56295323 65.52298747 -107.2328186 60.20581055 C-98.10844235 55.00458533 -89.01994301 49.74475784 -79.95437622 44.44158936 C-72.69915349 40.19886389 -65.42773756 35.98505608 -58.14627075 31.78753662 C-57.07240112 31.16846436 -55.99853149 30.54939209 -54.89212036 29.91156006 C-50.46776579 27.36180866 -46.04274488 24.81321582 -41.61746216 22.26507568 C-39.34639668 20.95722727 -37.07580331 19.6485587 -34.80569458 18.33905029 C-32.5987072 17.06869232 -30.38896036 15.80311469 -28.17630005 14.54266357 C-23.33711858 11.77619871 -18.56824637 8.9750072 -13.92752075 5.88519287 C-13.16254272 5.38930664 -12.3975647 4.89342041 -11.60940552 4.38250732 C-10.22918784 3.47923171 -8.86777145 2.54615197 -7.53274536 1.57733154 C-4.93509515 -0.10019467 -2.99865878 -1.1496979 0 0 Z " fill="#000091" transform="translate(355.0212707519531,201.77496337890625)"/>
<path d="M0 0 C0 124.41 0 248.82 0 377 C-3.50424302 375.59830279 -5.83817606 374.60418992 -8.81665039 372.57104492 C-9.5369191 372.08302902 -10.25718781 371.59501312 -10.99928284 371.09220886 C-11.77424606 370.56033463 -12.54920929 370.02846039 -13.34765625 369.48046875 C-14.17470566 368.91890579 -15.00175507 368.35734283 -15.85386658 367.77876282 C-17.64891374 366.55966172 -19.44260943 365.33856883 -21.23510742 364.11572266 C-26.09839436 360.79906259 -30.97281729 357.49886725 -35.84765625 354.19921875 C-36.85599518 353.51644867 -37.86433411 352.83367859 -38.90322876 352.13021851 C-49.209354 345.16267841 -59.59883999 338.32448898 -70 331.5 C-85.47104089 321.34320679 -100.85195935 311.06274428 -116.17724609 300.6875 C-129.71891755 291.52310903 -143.33209604 282.4749265 -157 273.5 C-172.46803845 263.34302871 -187.84806573 253.06567605 -203.17120361 242.69152832 C-216.83911132 233.44133774 -230.58102343 224.31099718 -244.375 215.25 C-257.8614163 206.38669286 -271.32517808 197.49194676 -284.7119751 188.4786377 C-286.35085925 187.37559621 -287.99077925 186.27409209 -289.6317749 185.17419434 C-291.87618394 183.66895846 -294.11645413 182.15777551 -296.35546875 180.64453125 C-297.01980423 180.20017227 -297.68413971 179.75581329 -298.36860657 179.29798889 C-302.88527878 176.22944244 -302.88527878 176.22944244 -304 174 C-303.36835938 173.64921387 -302.73671875 173.29842773 -302.0859375 172.93701172 C-288.33297865 165.29014861 -274.66630949 157.51909961 -261.08984375 149.5625 C-254.78429581 145.8678669 -248.45705564 142.21147319 -242.125 138.5625 C-241.04484619 137.93996338 -239.96469238 137.31742676 -238.85180664 136.67602539 C-236.66203666 135.41423174 -234.47217645 134.15259466 -232.28222656 132.89111328 C-226.85340058 129.76319852 -221.42680719 126.63141552 -216 123.5 C-213.83334417 122.24998121 -211.6666775 120.99998122 -209.5 119.75 C-208.4275 119.13125 -207.355 118.5125 -206.25 117.875 C-196.5 112.25 -196.5 112.25 -193.24951172 110.37475586 C-191.08442929 109.12564482 -188.91939018 107.87645871 -186.75439453 106.62719727 C-181.31384294 103.48797691 -175.87252784 100.35009437 -170.4296875 97.21484375 C-159.97793801 91.19252671 -149.53700452 85.15330663 -139.125 79.0625 C-129.85500223 73.64078822 -120.54168248 68.29795085 -111.21154785 62.98077393 C-102.0871716 57.77954871 -92.99867226 52.51972122 -83.93310547 47.21655273 C-73.41652145 41.06664108 -62.86085599 34.98508178 -52.30419922 28.90429688 C-47.86304379 26.34474225 -43.42449332 23.78068702 -38.98583984 21.21679688 C-34.69834777 18.74141285 -30.40856692 16.27001086 -26.11865234 13.79882812 C-23.0000025 12.00000144 -19.88467938 10.19550741 -16.76953125 8.390625 C-14.84647477 7.28104096 -12.92330359 6.17165566 -11 5.0625 C-10.11530029 4.54792236 -9.23060059 4.03334473 -8.3190918 3.50317383 C-7.5125415 3.03935303 -6.70599121 2.57553223 -5.875 2.09765625 C-5.17117188 1.69039307 -4.46734375 1.28312988 -3.7421875 0.86352539 C-2 0 -2 0 0 0 Z " fill="#E1000F" transform="translate(702,1)"/>
<path d="M0 0 C0 124.41 0 248.82 0 377 C-4.28456404 375.57181199 -7.1910008 374.48701477 -10.921875 372.26953125 C-11.85112793 371.72176025 -12.78038086 371.17398926 -13.73779297 370.60961914 C-14.73182129 370.01656982 -15.72584961 369.42352051 -16.75 368.8125 C-18.91367549 367.53580222 -21.07775166 366.25978329 -23.2421875 364.984375 C-24.35819336 364.32501953 -25.47419922 363.66566406 -26.62402344 362.98632812 C-32.0212633 359.81074644 -37.44764 356.6862344 -42.875 353.5625 C-45.05991376 352.30341652 -47.24480949 351.04430177 -49.4296875 349.78515625 C-50.51475586 349.16012207 -51.59982422 348.53508789 -52.71777344 347.89111328 C-58.14659942 344.76319852 -63.57319281 341.63141552 -69 338.5 C-71.16665583 337.24998121 -73.3333225 335.99998122 -75.5 334.75 C-97.16666667 322.25 -118.83333333 309.75 -140.5 297.25 C-141.57266113 296.63116943 -142.64532227 296.01233887 -143.75048828 295.37475586 C-145.91557071 294.12564482 -148.08060982 292.87645871 -150.24560547 291.62719727 C-155.68615706 288.48797691 -161.12747216 285.35009437 -166.5703125 282.21484375 C-177.02206199 276.19252671 -187.46299548 270.15330663 -197.875 264.0625 C-206.55262241 258.98724877 -215.26605568 253.97741233 -224 249 C-233.7137372 243.46421072 -243.39387255 237.87430907 -253.04492188 232.22973633 C-269.9491308 222.34595461 -286.89563136 212.53400609 -304 203 C-304 202.34 -304 201.68 -304 201 C-302.4903717 199.79382324 -302.4903717 199.79382324 -300.34790039 198.43554688 C-299.55185898 197.92527954 -298.75581757 197.41501221 -297.93565369 196.88928223 C-297.06098953 196.33800659 -296.18632538 195.78673096 -295.28515625 195.21875 C-293.43210802 194.0330933 -291.57941637 192.84687916 -289.72705078 191.66015625 C-288.77227844 191.05123535 -287.8175061 190.44231445 -286.83380127 189.81494141 C-282.51107512 187.04640052 -278.22136183 184.22851996 -273.93359375 181.40625 C-273.09160431 180.85279907 -272.24961487 180.29934814 -271.3821106 179.72912598 C-268.73312412 177.98727036 -266.08515174 176.24388371 -263.4375 174.5 C-262.03177734 173.57441284 -262.03177734 173.57441284 -260.59765625 172.63012695 C-245.6049884 162.75282657 -230.69647361 152.75649465 -215.82907104 142.69189453 C-201.37356621 132.90899088 -186.82997648 123.26806522 -172.23974609 113.6875 C-158.59247662 104.72295137 -145.02102213 95.65375417 -131.5 86.5 C-117.06726434 76.72901427 -102.56892773 67.06672633 -88 57.5 C-70.36980486 45.92259806 -52.84987626 34.18992358 -35.3843689 22.36569214 C-32.11965698 20.1564798 -28.85291428 17.950289 -25.58526611 15.74542236 C-23.76327486 14.5153191 -21.94219171 13.28387027 -20.12176514 12.05145264 C-17.20797443 10.0804417 -14.29001031 8.11575334 -11.37109375 6.15234375 C-10.46367935 5.53694229 -9.55626495 4.92154083 -8.62135315 4.28749084 C-7.78394089 3.72589767 -6.94652863 3.1643045 -6.08374023 2.58569336 C-4.97131203 1.83539101 -4.97131203 1.83539101 -3.83641052 1.06993103 C-2 0 -2 0 0 0 Z " fill="#E1000F" transform="translate(702,434)"/>
<path d="M0 0 C53.79 0 107.58 0 163 0 C163 20.13 163 40.26 163 61 C133.96 61 104.92 61 75 61 C75 74.86 75 88.72 75 103 C102.06 103 129.12 103 157 103 C157 122.8 157 142.6 157 163 C129.94 163 102.88 163 75 163 C75 179.5 75 196 75 213 C104.04 213 133.08 213 163 213 C163 233.46 163 253.92 163 275 C109.21 275 55.42 275 0 275 C0 184.25 0 93.5 0 0 Z " fill="#E1000F" transform="translate(809,423)"/>
<path d="M0 0 C1.30898303 3.94924911 0.84737272 6.33008506 -0.65893555 10.14160156 C-1.04651535 11.13903381 -1.43409515 12.13646606 -1.8334198 13.16412354 C-2.26350845 14.22886902 -2.69359711 15.2936145 -3.13671875 16.390625 C-3.5725679 17.49098083 -4.00841705 18.59133667 -4.45747375 19.72503662 C-5.38177598 22.04746201 -6.31270699 24.36725857 -7.24975586 26.68457031 C-8.68450775 30.24257958 -10.08848826 33.81169153 -11.49023438 37.3828125 C-12.39139554 39.63615084 -13.29433031 41.88878086 -14.19921875 44.140625 C-14.61918625 45.21346741 -15.03915375 46.28630981 -15.47184753 47.3916626 C-16.07685844 48.86889801 -16.07685844 48.86889801 -16.6940918 50.37597656 C-17.04352341 51.24691956 -17.39295502 52.11786255 -17.75297546 53.01519775 C-19 55 -19 55 -21.00715637 55.8248291 C-23.5908154 56.05193266 -25.16711686 55.43673167 -27.5625 54.453125 C-28.43519531 54.10378906 -29.30789063 53.75445313 -30.20703125 53.39453125 C-31.12871094 53.01683594 -32.05039063 52.63914062 -33 52.25 C-44.47639035 47.76193936 -54.2951612 44.77719748 -66.6875 44.5625 C-67.56728516 44.53994141 -68.44707031 44.51738281 -69.35351562 44.49414062 C-78.22996652 44.52753585 -85.60073836 47.63068269 -92.08203125 53.7109375 C-104.51531497 68.54984638 -105.173144 88.58582905 -104 107 C-102.94210462 118.30870566 -99.68185189 129.90505309 -91.3125 138 C-79.74190753 146.84555574 -65.66905089 146.19886425 -51.8203125 144.5625 C-37.14306646 142.19996543 -23.19670063 136.71910674 -10.37109375 129.28515625 C-8 128 -8 128 -6 128 C-5.76784589 135.58822804 -5.59039658 143.17608649 -5.48187828 150.76706123 C-5.42977739 154.29260158 -5.35919161 157.81570591 -5.24560547 161.33984375 C-5.11569489 165.39606401 -5.0675698 169.44974577 -5.0234375 173.5078125 C-4.97182465 174.76739777 -4.92021179 176.02698303 -4.86703491 177.32473755 C-4.86479803 180.8216332 -4.96300067 183.65844506 -6 187 C-8.98209503 189.92993914 -12.16694937 191.42423202 -16 193 C-17.68996785 193.84927357 -19.37779999 194.70282401 -21.0625 195.5625 C-25.73826767 197.61269516 -30.49429048 199.2119621 -35.375 200.6875 C-36.0337915 200.88996338 -36.69258301 201.09242676 -37.37133789 201.30102539 C-49.51654579 204.81016109 -61.64492194 205.3738843 -74.1875 205.3125 C-74.95968872 205.31067719 -75.73187744 205.30885437 -76.52746582 205.30697632 C-102.75661247 205.2026875 -128.9439026 200.23882334 -149 182 C-150.28197266 180.83984375 -150.28197266 180.83984375 -151.58984375 179.65625 C-157.52865134 174.01215016 -162.00265843 168.13810995 -166 161 C-166.78503906 159.61361328 -166.78503906 159.61361328 -167.5859375 158.19921875 C-182.50449811 130.21745151 -184.81684824 91.47940424 -177 61 C-176.83371094 60.33629395 -176.66742187 59.67258789 -176.49609375 58.98876953 C-172.65850949 44.08970398 -166.25182005 30.54634723 -156 19 C-155.45988281 18.31808594 -154.91976563 17.63617187 -154.36328125 16.93359375 C-138.66508966 -2.48959245 -112.46385362 -11.56013223 -88.44848633 -14.29003906 C-60.85993489 -17.0164026 -24.09209326 -15.81529348 0 0 Z " fill="#E1000F" transform="translate(1186,496)"/>
<path d="M0 0 C18.80724142 17.5249295 29.86018076 44.03253541 30.91113281 69.60888672 C30.93102955 71.02824988 30.94474488 72.44770963 30.953125 73.8671875 C30.95882507 74.63821808 30.96452515 75.40924866 30.97039795 76.2036438 C30.97979958 77.8323634 30.98636256 79.46110161 30.99023438 81.08984375 C30.99983687 83.52119547 31.03086242 85.95166225 31.0625 88.3828125 C31.15774706 102.29639991 29.62968014 115.8110835 24.9375 129 C24.54848511 130.11979248 24.54848511 130.11979248 24.15161133 131.26220703 C15.39132342 155.82490005 -1.51247732 173.69220308 -24.75 185 C-40.87440669 192.06421215 -57.38148979 194.1127041 -74.8125 194.0625 C-75.55845428 194.06162384 -76.30440857 194.06074768 -77.07296753 194.05984497 C-106.32178618 193.94681551 -132.04112503 185.62186873 -153.25 164.6875 C-176.64037914 139.68710441 -182.16903699 107.06464325 -181.38623047 73.89990234 C-180.14423105 44.61275479 -170.29368498 17.68646872 -148.7578125 -2.66796875 C-107.70822059 -37.45918025 -39.98009981 -34.01383876 0 0 Z M-134.38671875 25.921875 C-150.11677919 44.25863117 -154.6122142 69.12768895 -152.91040039 92.66625977 C-150.91153847 114.60175483 -142.64062205 134.38088572 -125.6875 148.87890625 C-106.87178996 163.29152135 -83.80398097 166.92651062 -60.69140625 164.2265625 C-40.82047061 161.37980754 -23.70762833 152.36616375 -11.34765625 136.19921875 C2.79574835 115.30906973 6.05003614 88.58832042 1.5625 64.0625 C-0.00052463 56.95585062 -2.2543755 50.3139244 -5.25 43.6875 C-5.66894531 42.75421875 -6.08789062 41.8209375 -6.51953125 40.859375 C-15.24000055 23.26765019 -30.69312784 13.08574306 -48.65234375 6.42578125 C-77.7270914 -2.41765854 -112.98949676 3.54671782 -134.38671875 25.921875 Z " fill="#E1000F" transform="translate(1393.25,507.3125)"/>
<path d="M0 0 C94.80074488 0 94.80074488 0 112.27734375 16.09765625 C124.72401234 29.23966945 126.77750074 44.9254773 126.34765625 62.34765625 C125.68738719 76.53042493 120.63093616 91.15389806 110 101 C91.45912564 116.10737911 71.15111139 117 48 117 C48 135.81 48 154.62 48 174 C32.16 174 16.32 174 0 174 C0 116.58 0 59.16 0 0 Z M48 39 C48 51.87 48 64.74 48 78 C61.02383555 78.03549306 61.02383555 78.03549306 72 72 C77.2849756 66.42141464 78.42249083 60.88359299 78.25390625 53.3984375 C77.78740494 48.99179438 75.90901637 46.12843412 73.1875 42.75 C65.77911846 36.82329477 57.24701961 39 48 39 Z " fill="#000091" transform="translate(809,219)"/>
<path d="M0 0 C1.8572168 -0.0309375 1.8572168 -0.0309375 3.75195312 -0.0625 C18.81973574 -0.12564419 33.32256438 2.8842902 44.6875 13.375 C53.63956472 22.99318932 57.14085814 34.40472827 57.03955078 47.22436523 C57.03984283 48.20074448 57.04013489 49.17712372 57.04043579 50.18309021 C57.03904892 53.39168362 57.02351792 56.60004119 57.0078125 59.80859375 C57.00408009 62.04061252 57.00123419 64.27263293 56.99923706 66.50465393 C56.99161859 72.36543337 56.9719854 78.22611292 56.9498291 84.08685303 C56.9293322 90.07286223 56.92022712 96.05888765 56.91015625 102.04492188 C56.88873784 113.77999875 56.85357022 125.51497542 56.8125 137.25 C45.9225 137.25 35.0325 137.25 23.8125 137.25 C20.8425 131.64 17.8725 126.03 14.8125 120.25 C13.86375 121.425625 12.915 122.60125 11.9375 123.8125 C3.97411729 132.86763679 -5.32357573 137.6846211 -17.1875 139.25 C-20.60500138 139.43905016 -24.01529228 139.48052798 -27.4375 139.5 C-28.77361328 139.5309375 -28.77361328 139.5309375 -30.13671875 139.5625 C-41.80625131 139.63024765 -51.23181176 135.91132044 -59.875 128.125 C-69.09536088 118.42046492 -70.70680237 104.86620941 -70.5 92.0703125 C-69.52530875 80.154712 -65.1277703 71.26267167 -56.125 63.5625 C-40.60610335 52.16986517 -19.56440641 51.03269738 -1 51.1875 C0.57104492 51.19426758 0.57104492 51.19426758 2.17382812 51.20117188 C4.72011536 51.21279876 7.2662746 51.22913719 9.8125 51.25 C9.52090437 49.64462395 9.22115423 48.04072763 8.91796875 46.4375 C8.66889771 45.09751953 8.66889771 45.09751953 8.41479492 43.73046875 C7.58964036 40.33218323 6.4573906 38.53747295 3.8125 36.25 C-8.02502612 30.70903032 -22.53080998 36.79124606 -34.10375977 40.48803711 C-36.23058095 41.19959692 -36.23058095 41.19959692 -38.20678711 42.40454102 C-40.1875 43.25 -40.1875 43.25 -42.24902344 43.24145508 C-45.27015052 41.69626653 -45.86222787 39.44948027 -47.203125 36.38671875 C-47.73164062 35.18982422 -48.26015625 33.99292969 -48.8046875 32.75976562 C-49.07249023 32.13239502 -49.34029297 31.50502441 -49.61621094 30.85864258 C-50.43299782 28.94803141 -51.27292488 27.04899638 -52.1171875 25.15039062 C-56.1875 15.8117303 -56.1875 15.8117303 -56.1875 11.25 C-38.09580055 3.13713029 -19.76288174 0.08103693 0 0 Z M-19.1875 84.25 C-22.18925566 88.98003922 -22.63725949 92.83225693 -21.74609375 98.234375 C-20.88091207 101.35628931 -19.94643578 102.52566513 -17.1875 104.25 C-11.39879088 106.61273842 -6.43105985 106.56081702 -0.5546875 104.4921875 C4.7773931 101.69416501 7.89190272 97.37137635 10.25 91.9375 C11.00051136 87.01748109 10.974131 82.21566357 10.8125 77.25 C0.79964042 76.84948562 -11.62172104 76.78324956 -19.1875 84.25 Z " fill="#000091" transform="translate(1400.1875,255.75)"/>
<path d="M0 0 C5.07252086 4.35725892 8.79132129 9.00947745 12.1875 14.75 C12.64769531 15.51828125 13.10789062 16.2865625 13.58203125 17.078125 C18.97636645 26.92156446 21.76305648 38.56683606 22.1875 49.75 C22.22746094 50.57242188 22.26742188 51.39484375 22.30859375 52.2421875 C22.79065589 71.35453361 18.63932795 90.27877159 5.875 105 C-6.51613913 117.98706456 -21.37684496 124.32221607 -39.3203125 125.0859375 C-60.17183322 125.42177875 -78.76938184 122.4402475 -94.46484375 107.3828125 C-109.70215036 90.29471824 -113.87452709 69.14107112 -112.8125 46.75 C-111.34391149 29.3472262 -105.76867052 12.94404285 -92.8125 0.75 C-67.04650022 -20.5144524 -26.2331608 -20.20951383 0 0 Z M-58.5625 26.375 C-66.61683433 37.05229189 -66.20980203 54.40392725 -64.49609375 67.09277344 C-63.10321646 74.85840241 -61.35033878 80.98423188 -55.8125 86.75 C-50.57519243 89.71451372 -46.67542574 90.30837388 -40.8125 89.75 C-34.84255946 87.56867557 -32.20263605 84.26293824 -29.1875 78.8125 C-23.57774147 64.71146764 -23.95265257 44.6961313 -29.625 30.6875 C-31.88003886 26.12731031 -34.71335193 23.85481477 -39.1875 21.5 C-46.70321001 19.35265428 -52.93607237 21.00431908 -58.5625 26.375 Z " fill="#000091" transform="translate(1065.8125,270.25)"/>
<path d="M0 0 C0.88171875 0.26683594 1.7634375 0.53367188 2.671875 0.80859375 C15.74783004 5.3770563 25.7698646 14.97619984 31.8125 27.3125 C38.80132341 45.48344086 37 58.12045752 37 79 C9.94 79 -17.12 79 -45 79 C-41.89454437 90.6178859 -41.89454437 90.6178859 -33.5 97.8125 C-20.93402038 104.46128031 -2.04351318 102.0054883 11 98 C16.72001233 96.1291548 22.3510842 94.08361648 28 92 C28 103.55 28 115.1 28 127 C14.45243129 132.6448203 14.45243129 132.6448203 9.25 133.75 C8.24453125 133.97171875 7.2390625 134.1934375 6.203125 134.421875 C-17.94720991 138.78071593 -45.73409 138.49413813 -67 125 C-82.17759937 113.58026567 -89.81174855 98.77447011 -92.56640625 80.17578125 C-95.06259703 58.87243188 -92.46375653 35.35328619 -79 18 C-60.51786653 -4.15007132 -26.52833838 -8.37164777 0 0 Z M-39.375 35.3125 C-42.77044681 39.68598311 -44 43.44455314 -44 49 C-31.46 49 -18.92 49 -6 49 C-7.0221708 40.82263359 -8.66709118 36.21533667 -15 31 C-23.60431738 27.17585894 -32.96131858 28.25901094 -39.375 35.3125 Z " fill="#E1000F" transform="translate(1034,40)"/>
<path d="M0 0 C15.84 0 31.68 0 48 0 C48 44.55 48 89.1 48 135 C69.78 135 91.56 135 114 135 C114 147.87 114 160.74 114 174 C76.38 174 38.76 174 0 174 C0 116.58 0 59.16 0 0 Z " fill="#E1000F" transform="translate(809,0)"/>
<path d="M0 0 C10.23 0 20.46 0 31 0 C31 8.91 31 17.82 31 27 C41.89 27 52.78 27 64 27 C64 38.88 64 50.76 64 63 C53.11 63 42.22 63 31 63 C31.07401937 70.72353813 31.15687427 78.44592282 31.26245117 86.16894531 C31.29568038 88.79551191 31.3237185 91.42214957 31.34643555 94.04882812 C31.38001728 97.82713061 31.43233753 101.60478305 31.48828125 105.3828125 C31.49467117 106.55490265 31.5010611 107.7269928 31.50764465 108.93460083 C31.61026852 116.89980805 31.61026852 116.89980805 35 124 C43.70242128 129.13219716 57.49436607 123.9628386 66 122 C66 133.55 66 145.1 66 157 C48.17767124 164.1289315 26.30266705 167.97837114 7.40234375 162.0390625 C-2.37737202 157.80913666 -8.87528979 151.29210477 -13.140625 141.6015625 C-16.13431007 132.53886134 -16.26535897 123.90173118 -16.1953125 114.46484375 C-16.19157537 112.97555228 -16.18873171 111.48625832 -16.18673706 109.9969635 C-16.17915567 106.10569287 -16.15955544 102.21457511 -16.1373291 98.32336426 C-16.11675127 94.34124824 -16.10770999 90.35910716 -16.09765625 86.37695312 C-16.07630347 78.58455815 -16.04116721 70.7923201 -16 63 C-21.28 63 -26.56 63 -32 63 C-33.12192571 56.05193375 -34.25393002 48.81794243 -32 42 C-29.50083954 39.27746325 -26.56068959 37.71281763 -23.3125 36 C-8.65897439 28.24775895 -5.81032108 14.97012137 0 0 Z " fill="#000091" transform="translate(1249,231)"/>
<path d="M0 0 C15.51 0 31.02 0 47 0 C47 61.05 47 122.1 47 185 C31.49 185 15.98 185 0 185 C0 123.95 0 62.9 0 0 Z " fill="#000091" transform="translate(1566,208)"/>
<path d="M0 0 C0.73734375 0.00064453 1.4746875 0.00128906 2.234375 0.00195312 C6.14714243 0.0335077 9.50649833 0.41379967 13.375 1.1875 C12.055 15.7075 10.735 30.2275 9.375 45.1875 C6.10484291 46.27755236 4.02067941 45.91505183 0.66796875 45.45703125 C-8.22448018 44.4117519 -17.97144274 44.80135881 -25.8359375 49.51171875 C-31.07234294 53.72072819 -33.56736355 58.57914121 -34.625 65.1875 C-34.73842665 67.57812344 -34.80098438 69.971369 -34.83032227 72.36450195 C-34.84022186 73.06748917 -34.85012146 73.77047638 -34.86032104 74.49476624 C-34.8917633 76.80507099 -34.91662468 79.11539626 -34.94140625 81.42578125 C-34.96199072 83.03289812 -34.98298758 84.64000976 -35.00437927 86.24711609 C-35.05944579 90.46713002 -35.10892276 94.68719156 -35.15722656 98.9072876 C-35.21641063 103.97599723 -35.28255338 109.04462027 -35.34752655 114.11325836 C-35.44534194 121.80461914 -35.53433063 129.4960367 -35.625 137.1875 C-51.135 137.1875 -66.645 137.1875 -82.625 137.1875 C-82.625 92.6375 -82.625 48.0875 -82.625 2.1875 C-71.075 2.1875 -59.525 2.1875 -47.625 2.1875 C-40.625 19.6875 -40.625 19.6875 -40.625 24.1875 C-39.965 24.1875 -39.305 24.1875 -38.625 24.1875 C-38.24988281 23.10082031 -38.24988281 23.10082031 -37.8671875 21.9921875 C-33.68057226 12.53938958 -24.75121432 6.38126951 -15.625 2.1875 C-10.27072526 0.29590763 -5.59709106 -0.09394411 0 0 Z " fill="#000091" transform="translate(1195.625,255.8125)"/>
<path d="M0 0 C15.51 0 31.02 0 47 0 C47 44.55 47 89.1 47 135 C31.49 135 15.98 135 0 135 C0 90.45 0 45.9 0 0 Z " fill="#000091" transform="translate(1488,258)"/>
<path d="M0 0 C-1.52734179 4.05737323 -3.42189232 7.85965446 -5.45703125 11.6796875 C-5.79644241 12.32086014 -6.13585358 12.96203278 -6.48554993 13.62263489 C-7.59141797 15.7084285 -8.70162112 17.7918713 -9.8125 19.875 C-10.19138367 20.58741852 -10.57026733 21.29983704 -10.96063232 22.03384399 C-16.40899175 32.27338841 -21.9441878 42.45495878 -27.74951172 52.49780273 C-29.9345447 56.28341904 -32.07395012 60.02489897 -33.86328125 64.015625 C-37.74702079 72.45769903 -42.5436339 75.92857039 -50.70751953 79.86572266 C-54.30789461 81.6471223 -57.81435639 83.59597218 -61.3371582 85.52514648 C-64.41874689 87.21143897 -67.50883218 88.88111472 -70.6015625 90.546875 C-74.89315261 92.86046452 -79.17937578 95.18352928 -83.4609375 97.515625 C-85.04189209 98.37571167 -85.04189209 98.37571167 -86.65478516 99.25317383 C-88.64742907 100.33751287 -90.63934984 101.42318241 -92.63037109 102.51049805 C-99.34652545 106.15991794 -106.14468394 109.61963555 -113 113 C-111.73663701 108.92874827 -110.22710863 105.28193369 -108.19921875 101.53515625 C-107.64073242 100.4994751 -107.08224609 99.46379395 -106.50683594 98.39672852 C-105.90645508 97.29643311 -105.30607422 96.1961377 -104.6875 95.0625 C-104.06520508 93.91386475 -103.44291016 92.76522949 -102.80175781 91.58178711 C-98.17624882 83.06260883 -93.47834966 74.5806706 -88.58300781 66.21313477 C-86.04894284 61.84472636 -83.75249443 57.59387185 -81.94921875 52.87109375 C-76.08559322 38.17493678 -65.10842002 33.0192313 -51.44546509 26.60888672 C-45.46479439 23.79606837 -39.77227572 20.56960263 -34.0625 17.25 C-26.50497436 12.93150864 -18.88972303 8.74262421 -11.1875 4.6875 C-10.2910376 4.21280273 -9.3945752 3.73810547 -8.47094727 3.24902344 C-7.64908936 2.82008789 -6.82723145 2.39115234 -5.98046875 1.94921875 C-5.25754639 1.57112061 -4.53462402 1.19302246 -3.78979492 0.8034668 C-2 0 -2 0 0 0 Z " fill="#E0000F" transform="translate(1374,535)"/>
<path d="M0 0 C4.50290996 3.5818602 6.54785792 7.514955 8 13 C8.37033429 16.33322645 8.352093 19.61841439 8.29296875 22.96875 C8.28872391 23.88966431 8.28447906 24.81057861 8.28010559 25.75939941 C8.26344065 28.67324245 8.22581188 31.58636939 8.1875 34.5 C8.17243739 36.48696911 8.15875175 38.47394917 8.14648438 40.4609375 C8.11614102 45.3077831 8.05739751 50.15309906 8 55 C1.4 55 -5.2 55 -12 55 C-12.04898437 52.69902344 -12.09796875 50.39804687 -12.1484375 48.02734375 C-12.20256585 45.7799675 -12.2598265 43.53269116 -12.31738281 41.28540039 C-12.35548484 39.73274284 -12.39036928 38.18000267 -12.421875 36.62719727 C-12.46793685 34.38528053 -12.52585878 32.14392355 -12.5859375 29.90234375 C-12.59748871 29.21663803 -12.60903992 28.53093231 -12.62094116 27.82444763 C-12.76007254 23.20190823 -13.58717587 19.35992569 -15 15 C-17.69201151 14.25221902 -19.4719851 13.8491386 -22.1875 14.625 C-24.66931816 16.5077586 -25.06576073 18.02158123 -26 21 C-26.23096904 23.67206065 -26.37103943 26.2519183 -26.4140625 28.92578125 C-26.43342865 29.67337204 -26.4527948 30.42096283 -26.4727478 31.19120789 C-26.53223918 33.56485806 -26.57880592 35.93855754 -26.625 38.3125 C-26.66320789 39.92775482 -26.70226125 41.54298987 -26.7421875 43.15820312 C-26.83949805 47.10536238 -26.91930522 51.05232655 -27 55 C-33.93 55 -40.86 55 -48 55 C-48 36.19 -48 17.38 -48 -2 C-42.72 -2 -37.44 -2 -32 -2 C-31.01 -0.02 -30.02 1.96 -29 4 C-28.319375 3.21625 -27.63875 2.4325 -26.9375 1.625 C-19.60048091 -4.93148514 -8.28719348 -4.71232571 0 0 Z " fill="#E1000F" transform="translate(1417,754)"/>
<path d="M0 0 C6.6 0 13.2 0 20 0 C20.03738281 2.62453125 20.07476563 5.2490625 20.11328125 7.953125 C20.15950835 10.49829385 20.21073762 13.04331632 20.26245117 15.58837891 C20.29568069 17.35554083 20.32371882 19.12280839 20.34643555 20.89013672 C20.38001831 23.43242351 20.43233451 25.97374408 20.48828125 28.515625 C20.49467117 29.30430969 20.5010611 30.09299438 20.50764465 30.90557861 C20.62199608 35.18327025 20.90895422 37.9053558 24 41 C28.3170905 40.65148566 28.3170905 40.65148566 31.8125 38.3125 C34.2694242 33.5279634 34.15833013 28.13582142 34.31640625 22.8515625 C34.33718735 22.19417084 34.35796844 21.53677917 34.37937927 20.85946655 C34.44420753 18.78140638 34.50344564 16.70323144 34.5625 14.625 C34.60574888 13.20701989 34.64936509 11.78905093 34.69335938 10.37109375 C34.80050355 6.9141778 34.90006973 3.45716196 35 0 C41.6 0 48.2 0 55 0 C55 18.81 55 37.62 55 57 C49.72 57 44.44 57 39 57 C38.505 54.03 38.505 54.03 38 51 C37.07767578 51.63228516 37.07767578 51.63228516 36.13671875 52.27734375 C35.32847656 52.82519531 34.52023437 53.37304688 33.6875 53.9375 C32.48673828 54.75541016 32.48673828 54.75541016 31.26171875 55.58984375 C25.59849706 59.12079889 18.2730632 58.85304741 11.8671875 57.57421875 C7.01825936 55.80207685 3.82546306 52.17182465 1 48 C0.05662624 45.16987873 -0.12172829 43.45700082 -0.11352539 40.52856445 C-0.11344986 39.62785721 -0.11337433 38.72714996 -0.11329651 37.79914856 C-0.10813522 36.83031235 -0.10297394 35.86147614 -0.09765625 34.86328125 C-0.0962413 33.86870407 -0.09482635 32.87412689 -0.09336853 31.84941101 C-0.08776761 28.67041018 -0.07521496 25.49147957 -0.0625 22.3125 C-0.05748512 20.15820414 -0.05292219 18.00390718 -0.04882812 15.84960938 C-0.03864845 10.56635737 -0.01907313 5.28325738 0 0 Z " fill="#E1000F" transform="translate(1302,752)"/>
<path d="M0 0 C3.56137952 3.23514628 6.70519258 7.31632106 7.24050903 12.18939209 C7.2338472 13.37519867 7.2338472 13.37519867 7.22705078 14.58496094 C7.22689972 15.48559265 7.22674866 16.38622437 7.22659302 17.31414795 C7.21627045 18.27782288 7.20594788 19.2414978 7.1953125 20.234375 C7.1924826 21.22753723 7.18965271 22.22069946 7.18673706 23.24395752 C7.17555143 26.41276144 7.15044962 29.58128165 7.125 32.75 C7.11496812 34.8997355 7.10584263 37.04947543 7.09765625 39.19921875 C7.07731986 44.4663428 7.03816772 49.7328542 7 55 C0.4 55 -6.2 55 -13 55 C-13.04898438 52.44765625 -13.09796875 49.8953125 -13.1484375 47.265625 C-13.20246851 44.78998012 -13.25976763 42.31443094 -13.31738281 39.83886719 C-13.35563327 38.12018989 -13.39049303 36.40143362 -13.421875 34.68261719 C-13.46761128 32.2099996 -13.52559084 29.73792387 -13.5859375 27.265625 C-13.59748871 26.49881409 -13.60903992 25.73200317 -13.62094116 24.94195557 C-13.7442155 19.65207516 -13.7442155 19.65207516 -16 15 C-18.29558468 13.74058283 -18.29558468 13.74058283 -21 14 C-24.41781352 16.7187153 -26.28941141 18.71542075 -27 23 C-27.14952957 25.4699938 -27.25559002 27.91861673 -27.31640625 30.390625 C-27.33718735 31.09523865 -27.35796844 31.79985229 -27.37937927 32.52581787 C-27.44453837 34.76711681 -27.50360248 37.00852864 -27.5625 39.25 C-27.60571726 40.77344897 -27.64933257 42.29688671 -27.69335938 43.8203125 C-27.80093115 47.54676119 -27.9002535 51.2733008 -28 55 C-34.6 55 -41.2 55 -48 55 C-48 36.19 -48 17.38 -48 -2 C-43.05 -2 -38.1 -2 -33 -2 C-31 1 -31 1 -31 4 C-30.39671875 3.57847656 -29.7934375 3.15695312 -29.171875 2.72265625 C-28.37265625 2.17480469 -27.5734375 1.62695312 -26.75 1.0625 C-25.96109375 0.51722656 -25.1721875 -0.02804687 -24.359375 -0.58984375 C-17.25964038 -4.83322818 -7.01767041 -4.20435042 0 0 Z " fill="#000091" transform="translate(1021,754)"/>
<path d="M0 0 C4.50049316 4.6328606 6.25807769 10.07032931 6.23852539 16.40527344 C6.23844986 17.22582214 6.23837433 18.04637085 6.23829651 18.89178467 C6.23313522 19.76796448 6.22797394 20.64414429 6.22265625 21.546875 C6.2212413 22.45125305 6.21982635 23.3556311 6.21836853 24.28741455 C6.21277911 27.17081027 6.20022853 30.05412782 6.1875 32.9375 C6.18248363 34.89453013 6.17792096 36.85156147 6.17382812 38.80859375 C6.16281313 43.60159253 6.14555574 48.39453302 6.125 53.1875 C1.175 53.1875 -3.775 53.1875 -8.875 53.1875 C-9.865 51.2075 -10.855 49.2275 -11.875 47.1875 C-12.40609375 47.60902344 -12.9371875 48.03054688 -13.484375 48.46484375 C-14.54398438 49.28662109 -14.54398438 49.28662109 -15.625 50.125 C-16.32109375 50.67027344 -17.0171875 51.21554687 -17.734375 51.77734375 C-23.07283298 55.29410165 -29.71648589 54.63388894 -35.875 54.1875 C-41.17305465 52.4535912 -43.67532773 49.57562197 -46.875 45.1875 C-48.84525457 39.2767363 -48.67962101 32.55901456 -46.6875 26.6875 C-42.56633921 21.00314029 -37.60632223 18.60266041 -30.875 17.1875 C-25.87650212 16.66921109 -20.8975769 16.37940347 -15.875 16.1875 C-15.875 14.5375 -15.875 12.8875 -15.875 11.1875 C-23.46569123 10.74292589 -29.61115155 11.95246971 -36.875 14.1875 C-38.855 9.8975 -40.835 5.6075 -42.875 1.1875 C-31.43931799 -7.38926151 -12.05324184 -7.5987829 0 0 Z M-26.875 32.1875 C-27.12505386 35.22932893 -27.12505386 35.22932893 -26.875 38.1875 C-25.71754513 39.55747745 -25.71754513 39.55747745 -22.5625 39.5 C-18.9134316 39.47961054 -18.9134316 39.47961054 -16.4375 37.625 C-14.3501872 34.36879203 -14.5834577 31.97754984 -14.875 28.1875 C-19.76754977 27.90792573 -23.34840299 28.66090299 -26.875 32.1875 Z " fill="#000091" transform="translate(954.875,755.8125)"/>
<path d="M0 0 C5.35533029 4.01365519 7.18970326 8.4259005 8.96484375 14.81640625 C8.96484375 20.09640625 8.96484375 25.37640625 8.96484375 30.81640625 C-2.25515625 30.81640625 -13.47515625 30.81640625 -25.03515625 30.81640625 C-22.69667483 36.73371643 -22.69667483 36.73371643 -19.03515625 38.81640625 C-10.54360109 39.7451701 -3.09932948 38.39694168 4.96484375 35.81640625 C4.96484375 40.76640625 4.96484375 45.71640625 4.96484375 50.81640625 C-5.10075951 55.84920788 -17.50416571 56.52638188 -28.53515625 53.81640625 C-34.56058607 51.63283168 -39.82052725 47.35255158 -43.2265625 41.9140625 C-47.44352278 32.60415501 -47.4633163 20.66164423 -44.13671875 11.1015625 C-40.7237142 4.02139349 -35.35605561 -0.51184285 -28.03515625 -3.18359375 C-18.95623556 -5.9843374 -8.18211215 -4.75850284 0 0 Z M-24.03515625 13.81640625 C-24.36515625 15.13640625 -24.69515625 16.45640625 -25.03515625 17.81640625 C-20.08515625 17.81640625 -15.13515625 17.81640625 -10.03515625 17.81640625 C-10.45723051 12.84371488 -10.45723051 12.84371488 -13.41015625 11.00390625 C-18.35110553 8.76871491 -20.30838083 10.2857769 -24.03515625 13.81640625 Z " fill="#E1000F" transform="translate(1600.03515625,755.18359375)"/>
<path d="M0 0 C4.2325751 3.64640912 7.42418218 7.59292841 9 13 C9.22920098 16.11079302 9.1884672 19.1955864 9.125 22.3125 C9.08375 25.179375 9.0425 28.04625 9 31 C-2.22 31 -13.44 31 -25 31 C-22.7261969 36.66641304 -22.7261969 36.66641304 -20.19140625 38.35546875 C-11.47998138 40.91765253 -2.37409344 38.6797099 6 36 C6 40.95 6 45.9 6 51 C-4.81631079 55.87794408 -17.77015992 57.20727351 -29.1875 53.3125 C-36.4569357 50.16241119 -40.51469703 46.09969124 -44 39 C-46.74533754 29.92302206 -46.61987394 16.50065652 -42.3828125 8.01171875 C-38.14187616 1.84199498 -32.96624062 -1.78191271 -25.69921875 -3.5625 C-16.65649327 -5.02818054 -8.1104766 -4.57808349 0 0 Z M-23 13 C-23.33 14.65 -23.66 16.3 -24 18 C-19.05 18 -14.1 18 -9 18 C-10.94441041 12.84177941 -10.94441041 12.84177941 -15 10 C-18.66842255 10 -20.10451959 10.79029126 -23 13 Z " fill="#000091" transform="translate(1138,755)"/>
<path d="M0 0 C14.52 0 29.04 0 44 0 C44 5.61 44 11.22 44 17 C36.08 17 28.16 17 20 17 C20 20.96 20 24.92 20 29 C27.26 29 34.52 29 42 29 C42 34.61 42 40.22 42 46 C34.74 46 27.48 46 20 46 C20 54.91 20 63.82 20 73 C13.4 73 6.8 73 0 73 C0 48.91 0 24.82 0 0 Z " fill="#000091" transform="translate(809,736)"/>
<path d="M0 0 C18.15 0 36.3 0 55 0 C55 5.61 55 11.22 55 17 C49.39 17 43.78 17 38 17 C38 35.48 38 53.96 38 73 C31.07 73 24.14 73 17 73 C17 54.52 17 36.04 17 17 C11.39 17 5.78 17 0 17 C0 11.39 0 5.78 0 0 Z " fill="#E1000F" transform="translate(1238,736)"/>
<path d="M0 0 C0.495 0.99 0.495 0.99 1 2 C0.26821134 4.07196631 -0.55899003 6.1108552 -1.4375 8.125 C-1.91058594 9.22070312 -2.38367187 10.31640625 -2.87109375 11.4453125 C-3.24363281 12.28835938 -3.61617187 13.13140625 -4 14 C-7.41113977 13.46139898 -10.734809 12.85996054 -14.0625 11.9375 C-17.11636554 11.14619127 -19.82604014 10.80162751 -23 11 C-23.33 11.99 -23.66 12.98 -24 14 C-23.19949219 14.23783203 -23.19949219 14.23783203 -22.3828125 14.48046875 C-13.55281735 17.24557104 -5.32689488 20.09557534 0 28 C1.89049005 33.67147014 1.75724357 39.80797914 -0.1875 45.4375 C-4.22520008 51.14597253 -9.23561233 53.76106803 -16 55 C-25.08079459 55.73833208 -35.67219571 56.16390215 -44 52 C-44 46.39 -44 40.78 -44 35 C-41.710625 35.66 -39.42125 36.32 -37.0625 37 C-31.21591907 38.62151268 -26.10528763 39.42844124 -20 39 C-20 38.01 -20 37.02 -20 36 C-21.15757813 35.50371094 -22.31515625 35.00742187 -23.5078125 34.49609375 C-25.04729414 33.81083668 -26.58633352 33.12458545 -28.125 32.4375 C-28.88554688 32.11458984 -29.64609375 31.79167969 -30.4296875 31.45898438 C-35.89808608 28.98406261 -39.67484632 26.05130616 -43 21 C-44.7354912 15.7935264 -44.66344383 10.85065911 -42.8125 5.6875 C-33.36550285 -8.32011646 -13.63810525 -5.40005902 0 0 Z " fill="#E1000F" transform="translate(1513,755)"/>
<path d="M0 0 C-1.52734179 4.05737323 -3.42189232 7.85965446 -5.45703125 11.6796875 C-5.79644241 12.32086014 -6.13585358 12.96203278 -6.48554993 13.62263489 C-7.59141797 15.7084285 -8.70162112 17.7918713 -9.8125 19.875 C-10.19138367 20.58741852 -10.57026733 21.29983704 -10.96063232 22.03384399 C-16.88516225 33.16829431 -22.98267545 44.18828946 -29.23828125 55.140625 C-32.60318385 61.03524413 -35.83174753 66.99760169 -39 73 C-43.13621084 69.6189962 -46.81316569 66.33409466 -50 62 C-49.67 61.34 -49.34 60.68 -49 60 C-48.64480097 56.16385043 -48.45275406 53.85370366 -50.5625 50.5625 C-53.86452877 48.44581489 -56.14689752 48.64971796 -60 49 C-61.485 49.495 -61.485 49.495 -63 50 C-66.66666667 46.33333333 -70.33333333 42.66666667 -74 39 C-73.27224365 38.61368408 -72.5444873 38.22736816 -71.79467773 37.8293457 C-59.13982284 31.10319549 -46.50865035 24.35744113 -34.0625 17.25 C-26.50101633 12.93806859 -18.8900118 8.74277624 -11.1875 4.6875 C-9.8428064 3.9754541 -9.8428064 3.9754541 -8.47094727 3.24902344 C-7.64908936 2.82008789 -6.82723145 2.39115234 -5.98046875 1.94921875 C-5.25754639 1.57112061 -4.53462402 1.19302246 -3.78979492 0.8034668 C-2 0 -2 0 0 0 Z " fill="#000091" transform="translate(1374,535)"/>
<path d="M0 0 C-1.56448671 5.6143991 -3.16395187 10.86810338 -6 16 C-6.70125 15.77183594 -7.4025 15.54367187 -8.125 15.30859375 C-14.26674477 13.44771184 -18.7016758 12.69280064 -25 14 C-27.67134589 20.01052824 -28.38409057 27.94659192 -26.234375 34.2421875 C-24.6866911 36.44616774 -23.54391402 37.13369414 -21 38 C-14.31681446 38.24239533 -8.19326871 36.29750291 -2 34 C-2 39.28 -2 44.56 -2 50 C-11.03429517 55.49143432 -20.14204371 56.35759713 -30.66796875 54.5390625 C-36.82570068 52.7373165 -41.77943795 49.44220865 -45.28515625 44.0078125 C-49.74434223 35.53695742 -50.30605723 25.64552648 -48.46875 16.296875 C-46.33660554 9.48328291 -42.99730041 4.04469097 -37 0 C-24.35844538 -6.09503527 -12.91261939 -4.66520443 0 0 Z " fill="#000091" transform="translate(1087,755)"/>
<path d="M0 0 C4.88732879 4.18913897 7.32306711 8.45841961 7.828125 14.80078125 C7.93977366 21.3787483 7.76626045 26.82317041 3.078125 31.9375 C-4.36991244 38.79233092 -12.30783894 38.77344378 -21.9296875 38.56640625 C-28.67556372 38.22698216 -33.99623629 36.56929461 -38.875 31.8125 C-41.76203824 26.88047634 -42.66878993 23.05649037 -42.6875 17.3125 C-42.70425781 16.12785156 -42.72101563 14.94320312 -42.73828125 13.72265625 C-42.07865699 7.41721573 -39.17208048 3.2661604 -34.375 -0.75 C-23.90378394 -5.30270263 -10.19547002 -5.28654001 0 0 Z " fill="#000091" transform="translate(1529.375,207.75)"/>
<path d="M0 0 C1.19496094 -0.00386719 1.19496094 -0.00386719 2.4140625 -0.0078125 C4.375 0.125 4.375 0.125 5.375 1.125 C5.31014743 3.95198235 5.18323914 6.74290777 5 9.5625 C4.95617187 10.35205078 4.91234375 11.14160156 4.8671875 11.95507812 C4.5043504 17.8662992 4.5043504 17.8662992 3.375 20.125 C2.79492188 20.10179687 2.21484375 20.07859375 1.6171875 20.0546875 C-3.16666257 19.94416951 -7.22867261 19.98045005 -11.625 22.125 C-14.08499576 25.63020274 -13.9688326 29.38547031 -14.0390625 33.515625 C-14.05842865 34.22023865 -14.0777948 34.92485229 -14.0977478 35.65081787 C-14.15732735 37.89209039 -14.20384123 40.13341489 -14.25 42.375 C-14.28819979 43.89845938 -14.32725269 45.42189762 -14.3671875 46.9453125 C-14.46461103 50.67176239 -14.54434735 54.39799861 -14.625 58.125 C-21.555 58.125 -28.485 58.125 -35.625 58.125 C-35.625 39.315 -35.625 20.505 -35.625 1.125 C-30.345 1.125 -25.065 1.125 -19.625 1.125 C-17.625 6.125 -17.625 6.125 -17.625 9.125 C-16.965 9.125 -16.305 9.125 -15.625 9.125 C-15.41875 8.5475 -15.2125 7.97 -15 7.375 C-11.68354963 1.94808121 -6.07777849 -0.01979732 0 0 Z " fill="#000091" transform="translate(897.625,750.875)"/>
<path d="M0 0 C2.2277652 0.05019677 4.4556385 0.09581782 6.68359375 0.13671875 C12.1247651 0.24655317 17.56188065 0.4135325 23 0.625 C20.94329546 10.62211329 3.9099425 18.7869595 -4.1171875 24.2265625 C-7.01742775 26.20022962 -9.75306665 28.20307352 -12.3828125 30.5234375 C-23.67122506 39.67542415 -38.25670622 37.42946537 -52 36.625 C-51.31009251 30.995472 -49.47314946 28.49986829 -45.375 24.75 C-44.27171785 23.69450291 -43.17014763 22.63721342 -42.0703125 21.578125 C-41.53825195 21.07087891 -41.00619141 20.56363281 -40.45800781 20.04101562 C-38.63216497 18.26775901 -36.92469254 16.41615983 -35.25 14.5 C-34.7348584 13.92830078 -34.2197168 13.35660156 -33.68896484 12.76757812 C-31.90583231 10.66527598 -31.90583231 10.66527598 -30.77636719 8.08105469 C-24.40737954 -3.36630726 -11.34776385 -0.44281511 0 0 Z " fill="#E1000F" transform="translate(922,381.375)"/>
<path d="M0 0 C6.6 0 13.2 0 20 0 C20 18.81 20 37.62 20 57 C13.4 57 6.8 57 0 57 C0 38.19 0 19.38 0 0 Z " fill="#E1000F" transform="translate(1524,752)"/>
<path d="M0 0 C6.6 0 13.2 0 20 0 C20 18.81 20 37.62 20 57 C13.4 57 6.8 57 0 57 C0 38.19 0 19.38 0 0 Z " fill="#E1000F" transform="translate(1437,752)"/>
<path d="M0 0 C9.57 0 19.14 0 29 0 C29 5.61 29 11.22 29 17 C19.43 17 9.86 17 0 17 C0 11.39 0 5.78 0 0 Z " fill="#E1000F" transform="translate(1179,773)"/>
<path d="M0 0 C3.25 2.0625 3.25 2.0625 5 5 C5.68577608 9.26705119 5.50023114 11.20652991 3.1875 14.875 C0.16480213 17.81133508 -1.67270179 17.97888399 -5.875 18.25 C-9.68388494 18.19398699 -11.99409625 17.47545015 -15 15 C-17.57720556 11.83706591 -17.04880024 8.74849846 -16.6796875 4.90234375 C-14.22608196 -1.96493153 -5.89182392 -0.84398569 0 0 Z " fill="#E1000F" transform="translate(1540,730)"/>
<path d="M0 0 C3.25 2 3.25 2 5 5 C5.65353981 8.02786793 5.45605113 9.80764212 5 13 C2.79259319 15.96858157 1.51402627 16.82865791 -2 18 C-7.26187747 18.39712283 -10.46357539 17.70025275 -15 15 C-16.64965169 13.35034831 -16.24949498 11.4523645 -16.3125 9.1875 C-16.34988281 8.31480469 -16.38726563 7.44210937 -16.42578125 6.54296875 C-15.01759259 -1.86740575 -6.69728776 -1.03246046 0 0 Z " fill="#E1000F" transform="translate(1453,730)"/>
<path d="M0 0 C4.45850936 0.79616239 5.90783917 1.93313458 8.5 5.625 C9.125 9.125 9.125 9.125 8.5 12.625 C5.90783917 16.31686542 4.45850936 17.45383761 0 18.25 C-4.45850936 17.45383761 -5.90783917 16.31686542 -8.5 12.625 C-9.125 9.125 -9.125 9.125 -8.5 5.625 C-5.90783917 1.93313458 -4.45850936 0.79616239 0 0 Z " fill="#FDFBFC" transform="translate(1317.5,582.375)"/>
<path d="M0 0 C1.5 1.0625 1.5 1.0625 3 3 C3.64776088 7.37238596 3.4995785 9.28847911 0.9375 12.9375 C-2.71152089 15.4995785 -4.62761404 15.64776088 -9 15 C-10.9375 13.5 -10.9375 13.5 -12 12 C-10.39125 12.061875 -10.39125 12.061875 -8.75 12.125 C-5.34287835 12.01142928 -3.73773233 11.89535315 -1 10 C0.14352916 7.71294169 0.10334439 6.40735238 0.0625 3.875 C0.041875 2.59625 0.02125 1.3175 0 0 Z " fill="#E4D9DC" transform="translate(1323,585)"/>
</svg>
