<?xml version="1.0" encoding="UTF-8"?>
<svg id="Calque_2" data-name="Calque 2" xmlns="http://www.w3.org/2000/svg" viewBox="0 0 8004.19 4021.13">
  <defs>
    <style>
      .cls-1, .cls-2, .cls-3, .cls-4 {
        fill-rule: evenodd;
      }

      .cls-1, .cls-5 {
        fill: #ef4d46;
      }

      .cls-2 {
        fill: #fff;
      }

      .cls-3, .cls-6 {
        fill: #3f61ac;
      }

      .cls-4 {
        fill: #e6e6e6;
      }
    </style>
  </defs>
  <g id="Calque_1-2" data-name="Calque 1">
    <g>
      <path class="cls-5" d="M4319.66,2068.08v-15.27c54.03-57.9,88.34-95.27,102.9-112.11,14.56-16.85,26.58-31.93,36.06-45.27h225.28v11.05c-28.08,22.46-66.67,51.06-115.8,85.8-49.13,34.74-86.32,60-111.59,75.8h-136.85Z"/>
      <g>
        <path class="cls-5" d="M4016.73,855.79V0h231.22v669.06h329.56v186.73h-560.77Z"/>
        <path class="cls-5" d="M5021.2,867.5c-110.44,0-196.2-29.36-257.27-88.1-61.08-58.73-91.61-142.33-91.61-250.83s28.29-197.94,84.88-257.85c56.58-59.9,137.36-89.85,242.34-89.85s177.07,26.05,231.51,78.15c54.44,52.1,81.66,127.12,81.66,225.07v101.85h-409.17c1.55,37.08,15.12,66.15,40.68,87.22,25.56,21.07,60.39,31.61,104.49,31.61,40.19,0,77.17-3.8,110.93-11.42,33.75-7.61,70.33-20.58,109.75-38.92v164.49c-35.91,18.35-72.98,31.02-111.22,38.05-38.25,7.02-83.91,10.54-136.97,10.54ZM5007.74,336.58c-26.93,0-49.46,8.49-67.61,25.46-18.15,16.98-28.78,43.61-31.9,79.9h196.68c-.79-31.99-9.86-57.56-27.22-76.68-17.37-19.11-40.68-28.68-69.95-28.68Z"/>
      </g>
      <g>
        <path class="cls-6" d="M4637.79,1359.37c0,95.62-28.2,169.46-84.58,221.56-56.39,52.1-136.49,78.15-240.29,78.15h-64.97v283.9h-231.22v-855.79h296.19c108.09,0,189.26,23.62,243.51,70.83,54.24,47.22,81.37,114.35,81.37,201.36ZM4247.95,1470.59h42.14c34.73,0,62.34-9.75,82.83-29.27,20.49-19.51,30.73-46.44,30.73-80.78,0-57.75-32-86.63-96-86.63h-59.71v196.68Z"/>
        <path class="cls-6" d="M5394.07,1609.91c0,108.49-29.18,193.08-87.51,253.75-58.35,60.69-140,91.02-244.97,91.02s-180.79-31.03-240.29-93.07c-59.51-62.05-89.27-145.94-89.27-251.7s29.17-192.09,87.51-252c58.33-59.9,140.19-89.85,245.56-89.85,65.16,0,122.72,13.86,172.68,41.56,49.95,27.72,88.48,67.42,115.61,119.12,27.12,51.71,40.68,112.09,40.68,181.17ZM4964.42,1609.91c0,56.98,7.61,100.39,22.83,130.24,15.22,29.85,40.77,44.78,76.68,44.78s60.58-14.93,75.22-44.78c14.63-29.85,21.95-73.26,21.95-130.24s-7.42-99.31-22.24-128.19c-14.84-28.87-40.2-43.32-76.1-43.32s-60.29,14.34-75.51,43.02c-15.22,28.68-22.83,71.51-22.83,128.49Z"/>
        <path class="cls-6" d="M5925,1268.05c19.9,0,38.83,1.57,56.78,4.68l12.88,2.34-20.49,215.99c-18.73-4.68-44.69-7.02-77.85-7.02-49.96,0-86.25,11.42-108.88,34.25-22.64,22.83-33.95,55.71-33.95,98.63v326.04h-228.88v-663.21h170.34l35.7,105.95h11.12c19.12-35.12,45.75-63.51,79.9-85.17,34.14-21.66,68.58-32.49,103.32-32.49Z"/>
        <path class="cls-6" d="M6412.02,1773.8c30.82,0,67.7-7.61,110.63-22.83v166.83c-30.83,13.27-60.2,22.74-88.1,28.39-27.9,5.65-60.58,8.49-98.05,8.49-76.88,0-132.29-18.82-166.24-56.49-33.95-37.65-50.92-95.51-50.92-173.56v-273.36h-80.19v-93.07l101.85-72,59.12-139.31h149.85v132.87h162.73v171.51h-162.73v258.14c0,42.93,20.68,64.39,62.05,64.39Z"/>
        <path class="cls-6" d="M7071.12,1942.97l-43.9-87.8h-4.68c-30.83,38.25-62.25,64.39-94.24,78.44-32,14.05-73.37,21.07-124.1,21.07-62.44,0-111.61-18.73-147.51-56.2-35.91-37.46-53.85-90.14-53.85-158.05s24.59-123.22,73.75-157.75c49.17-34.54,120.38-53.95,213.66-58.24l110.63-3.52v-9.36c0-54.63-26.93-81.95-80.78-81.95-48.39,0-109.86,16.39-184.39,49.17l-66.15-151.02c77.27-39.8,174.82-59.71,292.68-59.71,85.07,0,150.92,21.07,197.56,63.22,46.63,42.15,69.95,101.08,69.95,176.78v434.92h-158.63ZM6901.37,1793.12c27.71,0,51.41-8.78,71.12-26.34,19.7-17.56,29.56-40.39,29.56-68.49v-51.51l-52.68,2.34c-75.32,2.73-112.97,30.44-112.97,83.12,0,40.59,21.66,60.88,64.97,60.88Z"/>
        <path class="cls-6" d="M7380.78,1114.69c0-34.34,9.56-59.9,28.68-76.68,19.12-16.77,49.95-25.17,92.48-25.17s73.56,8.59,93.07,25.76c19.51,17.18,29.27,42.54,29.27,76.09,0,67.13-40.78,100.68-122.34,100.68s-121.17-33.56-121.17-100.68ZM7615.51,1942.97h-228.88v-663.21h228.88v663.21Z"/>
        <path class="cls-6" d="M8004.19,1942.97h-228.88v-910.82h228.88v910.82Z"/>
      </g>
      <g>
        <path class="cls-6" d="M4111.97,4009.29h-95.24v-357.97h211.55v77.62h-116.31v68.31h107.25v77.62h-107.25v134.42Z"/>
        <path class="cls-6" d="M4448.89,3726.98c8.32,0,16.24.65,23.75,1.96l5.39.98-8.57,90.35c-7.83-1.96-18.69-2.94-32.56-2.94-20.9,0-36.08,4.78-45.54,14.33-9.47,9.55-14.2,23.3-14.2,41.26v136.38h-95.74v-277.41h71.26l14.94,44.32h4.65c7.99-14.7,19.13-26.57,33.42-35.63,14.28-9.06,28.69-13.58,43.22-13.58Z"/>
        <path class="cls-6" d="M4697.66,4009.29l-18.36-36.72h-1.96c-12.9,16-26.04,26.93-39.42,32.81-13.39,5.87-30.69,8.82-51.91,8.82-26.12,0-46.69-7.84-61.7-23.51-15.02-15.67-22.53-37.71-22.53-66.11s10.29-51.54,30.85-65.98c20.57-14.45,50.35-22.56,89.37-24.37l46.27-1.47v-3.92c0-22.86-11.26-34.28-33.79-34.28-20.24,0-45.95,6.86-77.13,20.57l-27.67-63.18c32.32-16.65,73.13-24.97,122.43-24.97,35.58,0,63.13,8.81,82.64,26.44,19.5,17.64,29.26,42.29,29.26,73.95v181.92h-66.36ZM4626.65,3946.61c11.59,0,21.51-3.67,29.75-11.02,8.24-7.34,12.36-16.89,12.36-28.64v-21.55l-22.04.98c-31.51,1.15-47.26,12.73-47.26,34.77,0,16.97,9.06,25.47,27.18,25.47Z"/>
        <path class="cls-6" d="M5004.22,4009.29v-151.32c0-18.44-2.66-32.35-7.96-41.75-5.31-9.38-13.84-14.08-25.59-14.08-16.16,0-27.84,6.46-35.01,19.34-7.19,12.9-10.78,35.01-10.78,66.36v121.44h-95.74v-277.41h72.23l12,34.28h5.63c8.16-13.05,19.47-22.85,33.91-29.38,14.45-6.53,31.05-9.79,49.82-9.79,30.69,0,54.56,8.9,71.62,26.69,17.06,17.79,25.59,42.84,25.59,75.17v180.45h-95.73Z"/>
        <path class="cls-6" d="M5291.43,4014.19c-45.38,0-79.79-12.24-103.21-36.73-23.42-24.49-35.13-59.66-35.13-105.53s12.65-81.7,37.95-107c25.3-25.3,61.3-37.95,107.98-37.95,32.15,0,62.44,7.01,90.84,21.05l-28.16,70.77c-11.6-5.06-22.28-9.1-32.08-12.12-9.79-3.02-20-4.53-30.6-4.53-15.51,0-27.51,6.04-35.99,18.13-8.49,12.08-12.73,29.13-12.73,51.17,0,44.4,16.4,66.6,49.21,66.6,28.07,0,55.01-8.17,80.8-24.49v76.15c-24.65,16.32-54.28,24.49-88.88,24.49Z"/>
        <path class="cls-6" d="M5569.33,4014.19c-46.2,0-82.07-12.29-107.61-36.85-25.55-24.56-38.32-59.54-38.32-104.92s11.83-82.79,35.5-107.86c23.67-25.05,57.46-37.58,101.37-37.58s74.07,10.9,96.84,32.69c22.77,21.79,34.16,53.17,34.16,94.15v42.6h-171.15c.65,15.51,6.32,27.66,17.02,36.48,10.69,8.81,25.26,13.22,43.71,13.22,16.81,0,32.27-1.6,46.4-4.77,14.12-3.19,29.42-8.61,45.91-16.29v68.81c-15.02,7.67-30.53,12.97-46.52,15.91-16,2.94-35.1,4.41-57.29,4.41ZM5563.7,3792.1c-11.26,0-20.69,3.55-28.28,10.66-7.59,7.1-12.04,18.24-13.35,33.42h82.27c-.33-13.38-4.13-24.08-11.39-32.07-7.27-8-17.02-12-29.26-12Z"/>
        <path class="cls-5" d="M5853.12,3913.06v-76.4h138.34v76.4h-138.34Z"/>
        <path class="cls-5" d="M6328.86,4009.29h-96.72v-278.88h-87.41v-79.09h271.3v79.09h-87.17v278.88Z"/>
        <path class="cls-5" d="M6659.17,4009.29l-12-34.52h-5.63c-8,12.73-19.14,22.49-33.43,29.26-14.28,6.77-31.06,10.17-50.31,10.17-30.53,0-54.28-8.85-71.26-26.57-16.98-17.7-25.46-42.72-25.46-75.04v-180.7h95.73v151.56c0,18.13,2.57,31.84,7.71,41.14,5.14,9.31,13.59,13.96,25.34,13.96,16.49,0,28.24-6.49,35.26-19.46,7.02-12.98,10.53-34.89,10.53-65.74v-121.45h95.73v277.41h-72.23Z"/>
        <path class="cls-5" d="M6972.58,4009.29v-151.32c0-18.44-2.66-32.35-7.96-41.75-5.31-9.38-13.83-14.08-25.59-14.08-16.16,0-27.83,6.46-35.01,19.34-7.19,12.9-10.78,35.01-10.78,66.36v121.44h-95.73v-277.41h72.23l12,34.28h5.63c8.16-13.05,19.46-22.85,33.91-29.38,14.45-6.53,31.06-9.79,49.83-9.79,30.69,0,54.56,8.9,71.62,26.69,17.06,17.79,25.59,42.84,25.59,75.17v180.45h-95.74Z"/>
        <path class="cls-5" d="M7131.48,3662.82c0-14.36,4-25.05,12-32.08,8-7.01,20.89-10.53,38.69-10.53s30.77,3.59,38.93,10.78c8.16,7.18,12.24,17.79,12.24,31.83,0,28.08-17.06,42.11-51.17,42.11s-50.69-14.04-50.69-42.11ZM7229.67,4009.29h-95.74v-277.41h95.74v277.41Z"/>
        <path class="cls-5" d="M7510.76,3924.08c0,29.72-10.12,52.15-30.36,67.33-20.24,15.19-49.3,22.78-87.17,22.78-20.57,0-38.44-1.11-53.62-3.31-15.18-2.21-30.69-6.25-46.52-12.12v-76.64c14.85,6.53,31.14,11.92,48.85,16.16,17.71,4.25,33.5,6.37,47.38,6.37,20.73,0,31.1-4.74,31.1-14.2,0-4.9-2.9-9.26-8.69-13.1-5.8-3.84-22.65-11.3-50.56-22.4-25.47-10.45-43.26-22.32-53.38-35.63-10.12-13.3-15.18-30.15-15.18-50.56,0-25.78,9.96-45.87,29.87-60.23,19.92-14.36,48.07-21.54,84.48-21.54,18.28,0,35.46,2,51.54,5.99,16.08,4,32.77,9.84,50.07,17.51l-25.96,61.71c-12.73-5.72-26.2-10.57-40.4-14.57-14.2-4-25.8-6-34.77-6-15.67,0-23.51,3.84-23.51,11.51,0,4.74,2.73,8.78,8.2,12.12,5.46,3.35,21.26,10.17,47.38,20.44,19.43,8,33.91,15.84,43.46,23.51,9.55,7.68,16.57,16.69,21.06,27.05,4.49,10.37,6.73,22.98,6.73,37.83Z"/>
        <path class="cls-5" d="M7561.93,3662.82c0-14.36,4-25.05,12-32.08,8-7.01,20.89-10.53,38.69-10.53s30.77,3.59,38.93,10.78c8.16,7.18,12.24,17.79,12.24,31.83,0,28.08-17.06,42.11-51.17,42.11s-50.69-14.04-50.69-42.11ZM7660.12,4009.29h-95.74v-277.41h95.74v277.41Z"/>
        <path class="cls-5" d="M7860.9,4014.19c-46.2,0-82.07-12.29-107.61-36.85-25.55-24.56-38.32-59.54-38.32-104.92s11.83-82.79,35.5-107.86c23.67-25.05,57.46-37.58,101.37-37.58s74.07,10.9,96.84,32.69c22.77,21.79,34.16,53.17,34.16,94.15v42.6h-171.15c.65,15.51,6.32,27.66,17.02,36.48,10.69,8.81,25.26,13.22,43.71,13.22,16.81,0,32.27-1.6,46.4-4.77,14.12-3.19,29.42-8.61,45.91-16.29v68.81c-15.02,7.67-30.53,12.97-46.52,15.91-16,2.94-35.1,4.41-57.29,4.41ZM7855.27,3792.1c-11.26,0-20.69,3.55-28.28,10.66-7.59,7.1-12.04,18.24-13.35,33.42h82.27c-.33-13.38-4.13-24.08-11.39-32.07-7.27-8-17.02-12-29.26-12Z"/>
      </g>
      <g>
        <path class="cls-3" d="M0,2010.86l1753.82,1012.5,1518.85-1012.5-1518.85-1012.5L0,2010.86Z"/>
        <path class="cls-1" d="M1978.21,3152.87l1503.85,868.25v-1870.76s-1503.85,1002.5-1503.85,1002.5Z"/>
        <path class="cls-1" d="M1978.21,868.92l1503.85,1002.5V.67s-1503.85,868.25-1503.85,868.25Z"/>
      </g>
      <path class="cls-5" d="M4821.98,3456.32h-805.25v-1356.3h805.25v294.08h-438.8v213.37h406.33v294.08h-406.33v256.05h438.8v298.72Z"/>
      <path class="cls-5" d="M5516.83,3474.88c-171.94,0-302.28-46.39-391.02-139.16-88.76-92.77-133.13-226.04-133.13-399.84s47.92-309.53,143.79-405.4c95.86-95.86,232.23-143.79,409.12-143.79,121.84,0,236.56,26.6,344.18,79.78l-106.69,268.11c-43.92-19.16-84.42-34.47-121.53-45.92-37.11-11.44-75.76-17.16-115.96-17.16-58.76,0-104.23,22.89-136.37,68.65-32.17,45.78-48.24,110.39-48.24,193.89,0,168.23,62.16,252.34,186.47,252.34,106.37,0,208.42-30.92,306.14-92.77v288.52c-93.39,61.85-205.64,92.77-336.76,92.77Z"/>
      <path class="cls-5" d="M7001.84,2641.33c-42.99-81.94-104.06-144.87-183.22-188.78-79.18-43.91-170.39-65.87-273.67-65.87-166.99,0-296.72,47.47-389.17,142.4-92.47,94.94-138.69,228.07-138.69,399.38s47.15,300.57,141.48,398.91c94.31,98.34,221.26,147.51,380.82,147.51s295.78-48.08,388.25-144.26c92.45-96.16,138.69-230.22,138.69-402.16,0-109.47-21.5-205.17-64.48-287.13ZM6827.63,3227.04c-68.47,71.27-164.36,106.91-287.62,106.91s-212.31-36.42-282.22-109.32c-69.9-72.83-104.82-171.4-104.82-295.57s34.27-225.6,102.74-295.9c68.53-70.36,164.69-105.54,288.4-105.54,76.55,0,144.11,16.29,202.81,48.79,58.63,32.57,103.91,79.15,135.77,139.87,31.79,60.72,47.75,131.66,47.75,212.77,0,127.43-34.27,226.71-102.8,297.98Z"/>
      <g>
        <polygon class="cls-3" points="6815.47 2653 6717.54 2832.84 6619.59 3012.68 6537.69 2930.78 6455.79 2848.88 6635.63 2750.94 6815.47 2653 6815.47 2653"/>
        <polygon class="cls-1" points="6259.92 3208.56 6439.75 3110.63 6619.59 3012.68 6537.69 2930.78 6455.79 2848.88 6357.85 3028.72 6259.92 3208.56 6259.92 3208.56"/>
        <path class="cls-2" d="M6567.48,2901c16.45,16.45,16.45,43.12,0,59.57-16.45,16.45-43.12,16.45-59.57,0-16.45-16.45-16.45-43.12,0-59.57,16.45-16.45,43.12-16.45,59.57,0h0Z"/>
        <path class="cls-4" d="M6567.48,2901c16.45,16.45,16.45,43.12,0,59.57-16.45,16.45-43.12,16.45-59.57,0-1.42-1.42-2.72-2.93-3.9-4.49,16.5,12.43,40.06,11.13,55.08-3.9,15.03-15.03,16.32-38.58,3.9-55.08,1.56,1.18,3.06,2.48,4.49,3.9h0Z"/>
      </g>
    </g>
  </g>
</svg>